{"glyphs":{"0":{"ha":882,"x_min":0,"x_max":0,"o":"m 440 -18 b 67 403 207 -18 67 143 l 67 494 b 440 917 67 754 210 917 b 815 496 674 917 815 756 l 815 406 b 440 -18 815 146 672 -18 m 440 103 b 672 399 589 103 672 210 l 672 499 b 440 799 672 688 586 799 b 211 501 294 799 211 690 l 211 400 b 440 103 211 211 296 103 "},"1":{"ha":508,"x_min":0,"x_max":0,"o":"m 293 -7 b 232 58 253 -7 232 15 l 232 703 b 139 665 208 679 175 665 b 58 692 107 665 79 675 b 28 761 39 708 28 733 b 68 832 28 808 64 835 b 150 800 89 813 114 800 b 263 906 210 800 256 846 l 311 906 b 374 840 353 906 374 883 l 374 58 b 311 -7 374 15 353 -7 l 293 -7 "},"2":{"ha":743,"x_min":0,"x_max":0,"o":"m 142 0 b 53 78 79 0 53 21 l 53 113 b 331 446 53 297 196 379 b 554 646 449 504 554 549 b 371 794 554 739 486 794 b 151 622 239 794 176 714 b 57 692 151 618 57 617 b 139 839 57 739 85 794 b 381 917 193 883 275 917 b 694 649 576 917 694 815 b 431 361 694 488 567 424 b 192 163 313 308 215 258 b 186 122 189 150 186 136 l 642 122 b 710 67 689 122 710 103 l 710 58 b 642 0 710 21 689 0 l 142 0 "},"3":{"ha":758,"x_min":0,"x_max":0,"o":"m 353 -18 b 106 53 244 -18 161 13 b 22 183 50 93 22 143 b 106 257 22 257 104 263 b 353 99 140 154 233 99 b 561 257 481 99 561 160 b 356 415 561 361 490 415 l 292 415 b 224 467 242 415 224 436 l 224 475 b 289 526 224 513 246 526 l 372 526 b 540 663 482 526 540 578 b 351 801 540 749 469 801 b 132 665 236 801 165 742 b 49 736 129 658 49 669 b 132 856 49 775 79 819 b 353 917 185 890 261 917 b 679 674 560 917 679 828 b 526 482 679 576 628 513 b 701 251 639 444 701 363 b 353 -18 701 83 572 -18 "},"4":{"ha":825,"x_min":0,"x_max":0,"o":"m 560 -7 b 501 58 524 -7 501 21 l 501 240 l 133 240 b 46 307 79 240 46 268 l 46 338 b 86 426 46 368 60 390 l 407 842 b 529 906 443 892 461 906 b 636 813 607 906 636 879 l 636 357 l 735 357 b 797 301 778 357 797 339 l 797 294 b 735 240 797 257 778 240 l 636 240 l 636 58 b 575 -7 636 15 617 -7 l 560 -7 m 507 354 l 507 789 l 175 354 "},"5":{"ha":747,"x_min":0,"x_max":0,"o":"m 357 -18 b 124 42 260 -18 179 7 b 36 160 68 78 36 122 b 104 231 36 208 100 238 b 357 97 154 149 242 97 b 572 275 489 97 572 167 b 369 449 572 383 497 449 b 160 388 272 449 208 424 b 72 476 100 392 72 421 l 72 818 b 146 899 72 867 100 899 l 597 899 b 664 840 642 899 664 879 l 664 833 b 597 776 664 796 642 776 l 199 776 l 199 519 b 383 560 251 543 313 560 b 706 276 578 560 706 450 b 357 -18 706 97 572 -18 "},"6":{"ha":815,"x_min":0,"x_max":0,"o":"m 435 -18 b 67 399 196 -18 67 150 l 67 490 b 444 917 67 756 213 917 b 658 864 539 917 611 894 b 731 757 707 832 731 793 b 658 688 731 703 661 683 b 451 799 617 751 553 799 b 210 533 306 799 219 706 b 208 468 208 519 208 511 b 464 567 267 522 360 567 b 768 296 647 567 768 464 l 768 289 b 435 -18 768 111 629 -18 m 429 96 b 631 278 547 96 631 169 l 631 286 b 433 460 631 397 560 460 b 210 357 347 460 263 415 b 211 338 210 350 211 343 b 429 96 225 185 300 96 "},"7":{"ha":736,"x_min":0,"x_max":0,"o":"m 231 -7 b 151 47 183 -7 144 38 l 550 771 l 94 771 b 31 829 53 771 31 790 l 31 839 b 94 899 31 878 53 899 l 619 899 b 708 831 694 899 708 867 l 708 819 b 667 715 708 789 688 753 l 304 43 b 231 -7 283 4 257 -7 "},"8":{"ha":810,"x_min":0,"x_max":0,"o":"m 404 -17 b 51 239 185 -17 51 83 b 233 463 51 343 114 424 b 78 665 128 497 78 569 b 406 917 78 814 207 917 b 729 668 607 917 729 819 b 575 464 729 572 678 500 b 757 239 697 426 757 346 b 404 -17 757 89 617 -17 m 406 513 b 593 657 525 513 593 567 b 404 807 593 746 525 807 b 215 657 279 807 215 749 b 406 513 215 571 286 513 m 406 93 b 617 250 544 93 617 153 b 404 410 617 346 538 410 b 192 250 269 410 192 347 b 406 93 192 158 271 93 "},"9":{"ha":815,"x_min":0,"x_max":0,"o":"m 364 -18 b 151 33 269 -18 199 3 b 79 135 103 63 79 101 b 139 207 79 188 136 211 b 358 99 188 143 257 99 b 607 357 514 99 596 181 b 607 419 608 375 608 389 b 353 322 550 365 456 322 b 49 593 168 322 49 424 l 49 599 b 382 915 49 776 188 915 b 749 501 610 915 749 761 l 749 406 b 364 -18 749 126 613 -18 m 382 429 b 604 532 468 429 551 474 b 603 557 604 540 603 549 b 386 803 590 711 517 803 b 186 610 269 803 186 718 l 186 603 b 382 429 186 492 256 429 "},"A":{"ha":875,"x_min":0,"x_max":0,"o":"m 96 -7 b 18 36 54 -7 14 24 l 338 861 b 436 907 349 890 371 907 b 535 861 503 907 524 890 l 857 36 b 778 -7 861 25 821 -7 b 693 60 746 -7 713 8 l 614 264 l 254 264 l 175 58 b 96 -7 157 8 126 -7 m 578 379 l 433 760 l 289 379 "},"Á":{"ha":875,"x_min":0,"x_max":0,"o":"m 339 975 b 328 982 333 975 328 976 b 542 1194 328 1006 438 1194 b 603 1135 581 1194 603 1169 b 339 975 603 1032 357 975 m 96 -7 b 18 36 54 -7 14 24 l 338 861 b 436 907 349 890 371 907 b 535 861 503 907 524 890 l 857 36 b 778 -7 861 25 821 -7 b 693 60 746 -7 713 8 l 614 264 l 254 264 l 175 58 b 96 -7 157 8 126 -7 m 578 379 l 433 760 l 289 379 "},"Ă":{"ha":875,"x_min":0,"x_max":0,"o":"m 438 967 b 242 1110 325 967 242 1019 b 317 1185 242 1144 263 1185 b 438 1081 328 1121 365 1081 b 560 1185 514 1081 549 1121 b 635 1110 614 1185 635 1144 b 438 967 635 1029 575 967 m 96 -7 b 18 36 54 -7 14 24 l 338 861 b 436 907 349 890 371 907 b 535 861 503 907 524 890 l 857 36 b 778 -7 861 25 821 -7 b 693 60 746 -7 713 8 l 614 264 l 254 264 l 175 58 b 96 -7 157 8 126 -7 m 578 379 l 433 760 l 289 379 "},"Â":{"ha":875,"x_min":0,"x_max":0,"o":"m 282 968 b 232 1011 256 968 232 985 b 438 1208 232 1086 408 1203 b 643 1011 467 1203 643 1086 b 596 968 643 985 622 968 b 438 1107 556 968 510 1010 b 282 968 364 1010 322 968 m 96 -7 b 18 36 54 -7 14 24 l 338 861 b 436 907 349 890 371 907 b 535 861 503 907 524 890 l 857 36 b 778 -7 861 25 821 -7 b 693 60 746 -7 713 8 l 614 264 l 254 264 l 175 58 b 96 -7 157 8 126 -7 m 578 379 l 433 760 l 289 379 "},"Ä":{"ha":875,"x_min":0,"x_max":0,"o":"m 306 985 b 228 1063 257 985 228 1013 b 304 1140 228 1114 257 1140 b 383 1063 356 1140 383 1114 b 306 985 383 1013 356 985 m 569 985 b 492 1063 521 985 492 1013 b 568 1140 492 1114 521 1140 b 647 1063 619 1140 647 1114 b 569 985 647 1013 619 985 m 96 -7 b 18 36 54 -7 14 24 l 338 861 b 436 907 349 890 371 907 b 535 861 503 907 524 890 l 857 36 b 778 -7 861 25 821 -7 b 693 60 746 -7 713 8 l 614 264 l 254 264 l 175 58 b 96 -7 157 8 126 -7 m 578 379 l 433 760 l 289 379 "},"À":{"ha":875,"x_min":0,"x_max":0,"o":"m 510 975 b 246 1135 492 975 246 1032 b 307 1194 246 1169 268 1194 b 521 982 411 1194 521 1006 b 510 975 521 976 515 975 m 96 -7 b 18 36 54 -7 14 24 l 338 861 b 436 907 349 890 371 907 b 535 861 503 907 524 890 l 857 36 b 778 -7 861 25 821 -7 b 693 60 746 -7 713 8 l 614 264 l 254 264 l 175 58 b 96 -7 157 8 126 -7 m 578 379 l 433 760 l 289 379 "},"Ā":{"ha":875,"x_min":0,"x_max":0,"o":"m 282 1006 b 213 1060 238 1006 213 1024 l 213 1068 b 282 1119 213 1101 239 1119 l 593 1119 b 663 1068 638 1119 663 1101 l 663 1060 b 593 1006 663 1024 638 1006 l 282 1006 m 96 -7 b 18 36 54 -7 14 24 l 338 861 b 436 907 349 890 371 907 b 535 861 503 907 524 890 l 857 36 b 778 -7 861 25 821 -7 b 693 60 746 -7 713 8 l 614 264 l 254 264 l 175 58 b 96 -7 157 8 126 -7 m 578 379 l 433 760 l 289 379 "},"Ą":{"ha":875,"x_min":0,"x_max":0,"o":"m 765 -272 b 625 -154 681 -272 625 -228 b 736 3 625 -99 663 -40 b 693 60 719 13 704 31 l 614 264 l 254 264 l 175 58 b 96 -7 157 8 126 -7 b 18 36 54 -7 14 24 l 338 861 b 436 907 349 890 371 907 b 535 861 503 907 524 890 l 857 36 b 832 8 858 29 849 18 b 731 -128 754 -53 731 -93 b 776 -176 731 -157 750 -176 b 828 -149 800 -176 817 -167 b 874 -201 850 -150 874 -169 b 765 -272 874 -243 833 -272 m 578 379 l 433 760 l 289 379 "},"Å":{"ha":875,"x_min":0,"x_max":0,"o":"m 96 -7 b 18 36 54 -7 14 24 l 338 861 b 385 901 344 881 357 894 b 268 1056 314 921 268 981 b 439 1217 268 1147 340 1217 b 608 1056 539 1217 608 1149 b 488 901 608 981 560 921 b 535 861 515 894 526 881 l 857 36 b 778 -7 861 25 821 -7 b 693 60 746 -7 713 8 l 614 264 l 254 264 l 175 58 b 96 -7 157 8 126 -7 m 438 971 b 526 1056 489 971 526 1007 b 438 1143 526 1106 488 1143 b 350 1056 388 1143 350 1106 b 438 971 350 1008 389 971 m 578 379 l 433 760 l 289 379 "},"Ǻ":{"ha":875,"x_min":0,"x_max":0,"o":"m 96 -7 b 18 36 54 -7 14 24 l 338 861 b 385 901 344 881 357 894 b 268 1056 314 921 268 981 b 382 1208 268 1128 314 1186 b 407 1214 390 1211 399 1213 b 568 1386 426 1251 496 1338 b 635 1410 592 1401 614 1410 b 697 1356 669 1410 697 1388 b 639 1271 697 1325 678 1294 b 499 1207 593 1240 542 1219 b 608 1056 565 1186 608 1128 b 488 901 608 981 560 921 b 535 861 515 894 526 881 l 857 36 b 778 -7 861 25 821 -7 b 693 60 746 -7 713 8 l 614 264 l 254 264 l 175 58 b 96 -7 157 8 126 -7 m 438 971 b 526 1056 489 971 526 1007 b 438 1143 526 1106 488 1143 b 350 1056 388 1143 350 1106 b 438 971 350 1008 389 971 m 578 379 l 433 760 l 289 379 "},"Ã":{"ha":875,"x_min":0,"x_max":0,"o":"m 261 993 b 228 1008 247 993 236 999 b 215 1050 219 1018 215 1032 b 333 1181 215 1101 253 1181 b 425 1150 363 1181 393 1169 b 528 1068 457 1131 490 1103 b 614 1172 543 1115 571 1172 b 647 1157 628 1172 639 1167 b 660 1114 656 1147 660 1133 b 540 985 660 1063 621 985 b 450 1014 511 985 481 994 b 347 1097 419 1033 385 1063 b 261 993 331 1050 304 993 m 96 -7 b 18 36 54 -7 14 24 l 338 861 b 436 907 349 890 371 907 b 535 861 503 907 524 890 l 857 36 b 778 -7 861 25 821 -7 b 693 60 746 -7 713 8 l 614 264 l 254 264 l 175 58 b 96 -7 157 8 126 -7 m 578 379 l 433 760 l 289 379 "},"Æ":{"ha":1192,"x_min":0,"x_max":0,"o":"m 96 -7 b 18 36 54 -7 14 24 l 332 844 b 424 899 343 876 367 899 l 1069 899 b 1136 839 1114 899 1136 876 l 1136 831 b 1069 771 1136 792 1114 771 l 564 771 l 661 521 l 967 521 b 1033 464 1013 521 1033 500 l 1033 457 b 967 399 1033 418 1011 399 l 711 399 l 817 126 l 1078 126 b 1143 69 1122 126 1143 107 l 1143 63 b 1078 0 1143 22 1122 0 l 794 0 b 686 72 733 0 707 17 l 614 264 l 254 264 l 175 58 b 96 -7 156 8 126 -7 m 579 379 l 433 760 l 289 379 "},"Ǽ":{"ha":1192,"x_min":0,"x_max":0,"o":"m 593 975 b 582 982 588 975 582 976 b 796 1194 582 1006 692 1194 b 857 1135 835 1194 857 1169 b 593 975 857 1032 611 975 m 96 -7 b 18 36 54 -7 14 24 l 332 844 b 424 899 343 876 367 899 l 1069 899 b 1136 839 1114 899 1136 876 l 1136 831 b 1069 771 1136 792 1114 771 l 564 771 l 661 521 l 967 521 b 1033 464 1013 521 1033 500 l 1033 457 b 967 399 1033 418 1011 399 l 711 399 l 817 126 l 1078 126 b 1143 69 1122 126 1143 107 l 1143 63 b 1078 0 1143 22 1122 0 l 794 0 b 686 72 733 0 707 17 l 614 264 l 254 264 l 175 58 b 96 -7 156 8 126 -7 m 579 379 l 433 760 l 289 379 "},"B":{"ha":858,"x_min":0,"x_max":0,"o":"m 172 0 b 96 81 126 0 96 32 l 96 818 b 172 899 96 867 126 899 l 468 899 b 771 665 664 899 771 817 b 613 472 771 568 715 503 b 807 251 746 442 807 357 b 465 0 807 83 700 0 l 172 0 m 450 507 b 622 649 556 507 622 563 b 447 783 622 738 564 783 l 238 783 l 238 507 m 456 115 b 660 263 600 115 660 158 b 460 404 660 357 593 404 l 238 404 l 238 115 "},"":{"ha":858,"x_min":0,"x_max":0,"o":"m 172 0 l 465 0 b 807 251 700 0 807 83 b 613 472 807 357 746 442 b 771 665 715 503 771 568 b 468 899 771 817 664 899 l 172 899 b 96 818 126 899 96 867 l 96 81 b 172 0 96 32 126 0 m 238 507 l 238 783 l 447 783 b 622 649 564 783 622 738 b 450 507 622 563 556 507 m 238 115 l 238 404 l 460 404 b 660 263 593 404 660 357 b 456 115 660 158 600 115 "},"C":{"ha":913,"x_min":0,"x_max":0,"o":"m 61 447 b 518 917 61 722 249 917 b 772 844 631 917 715 885 b 857 726 829 806 857 758 b 774 649 857 660 776 643 b 519 788 722 739 621 788 b 210 450 338 788 210 650 b 522 111 210 251 342 111 b 782 268 643 111 744 171 b 871 192 785 275 871 258 b 782 63 871 158 842 106 b 514 -18 722 18 633 -18 b 61 447 247 -18 61 174 "},"Ć":{"ha":913,"x_min":0,"x_max":0,"o":"m 418 975 b 407 982 413 975 407 976 b 621 1194 407 1006 517 1194 b 682 1135 660 1194 682 1169 b 418 975 682 1032 436 975 m 61 447 b 518 917 61 722 249 917 b 772 844 631 917 715 885 b 857 726 829 806 857 758 b 774 649 857 660 776 643 b 519 788 722 739 621 788 b 210 450 338 788 210 650 b 522 111 210 251 342 111 b 782 268 643 111 744 171 b 871 192 785 275 871 258 b 782 63 871 158 842 106 b 514 -18 722 18 633 -18 b 61 447 247 -18 61 174 "},"Č":{"ha":913,"x_min":0,"x_max":0,"o":"m 517 961 b 311 1158 488 967 311 1083 b 358 1201 311 1185 332 1201 b 517 1063 399 1201 444 1160 b 672 1201 590 1160 632 1201 b 722 1158 699 1201 722 1185 b 517 961 722 1083 546 967 m 61 447 b 518 917 61 722 249 917 b 772 844 631 917 715 885 b 857 726 829 806 857 758 b 774 649 857 660 776 643 b 519 788 722 739 621 788 b 210 450 338 788 210 650 b 522 111 210 251 342 111 b 782 268 643 111 744 171 b 871 192 785 275 871 258 b 782 63 871 158 842 106 b 514 -18 722 18 633 -18 b 61 447 247 -18 61 174 "},"Ç":{"ha":913,"x_min":0,"x_max":0,"o":"m 440 -311 b 290 -204 350 -311 290 -250 b 335 -150 290 -169 307 -153 b 422 -200 351 -165 379 -200 b 500 -135 464 -200 500 -183 b 375 1 500 -85 431 -22 b 61 447 185 56 61 224 b 518 917 61 722 249 917 b 772 844 631 917 715 885 b 857 726 829 806 857 758 b 774 649 857 660 776 643 b 519 788 722 739 621 788 b 210 450 338 788 210 650 b 522 111 210 251 342 111 b 782 268 643 111 744 171 b 871 192 785 275 871 258 b 785 64 871 160 842 108 b 604 -11 740 31 681 3 b 525 -18 581 -15 553 -18 b 610 -172 568 -51 610 -104 b 440 -311 610 -272 522 -311 "},"Ĉ":{"ha":913,"x_min":0,"x_max":0,"o":"m 361 968 b 311 1011 335 968 311 985 b 517 1208 311 1086 488 1203 b 722 1011 546 1203 722 1086 b 675 968 722 985 701 968 b 517 1107 635 968 589 1010 b 361 968 443 1010 401 968 m 61 447 b 518 917 61 722 249 917 b 772 844 631 917 715 885 b 857 726 829 806 857 758 b 774 649 857 660 776 643 b 519 788 722 739 621 788 b 210 450 338 788 210 650 b 522 111 210 251 342 111 b 782 268 643 111 744 171 b 871 192 785 275 871 258 b 782 63 871 158 842 106 b 514 -18 722 18 633 -18 b 61 447 247 -18 61 174 "},"Ċ":{"ha":913,"x_min":0,"x_max":0,"o":"m 517 985 b 435 1064 465 985 435 1015 b 518 1144 435 1114 465 1144 b 599 1064 569 1144 599 1114 b 517 985 599 1014 569 985 m 61 447 b 518 917 61 722 249 917 b 772 844 631 917 715 885 b 857 726 829 806 857 758 b 774 649 857 660 776 643 b 519 788 722 739 621 788 b 210 450 338 788 210 650 b 522 111 210 251 342 111 b 782 268 643 111 744 171 b 871 192 785 275 871 258 b 782 63 871 158 842 106 b 514 -18 722 18 633 -18 b 61 447 247 -18 61 174 "},"D":{"ha":940,"x_min":0,"x_max":0,"o":"m 96 818 b 172 899 96 867 129 899 l 392 899 b 879 451 697 899 879 732 b 385 0 879 171 693 0 l 175 0 b 96 79 131 0 96 36 m 388 124 b 735 450 607 124 735 243 b 389 775 735 654 606 775 l 238 775 l 238 124 l 388 124 "},"Ð":{"ha":1001,"x_min":0,"x_max":0,"o":"m 225 0 b 146 79 181 0 146 36 l 146 394 l 72 394 b 18 444 32 394 18 415 l 18 457 b 72 506 18 485 32 506 l 146 506 l 146 818 b 222 899 146 867 179 899 l 447 899 b 940 451 751 899 940 729 b 440 0 940 172 747 0 l 225 0 m 449 126 b 797 450 671 126 797 244 b 450 772 797 653 669 772 l 288 772 l 288 506 l 531 506 b 586 457 571 506 586 485 l 586 444 b 531 394 586 415 571 394 l 288 394 l 288 126 "},"Ď":{"ha":940,"x_min":0,"x_max":0,"o":"m 393 961 b 188 1158 364 967 188 1083 b 235 1201 188 1185 208 1201 b 393 1063 275 1201 321 1160 b 549 1201 467 1160 508 1201 b 599 1158 575 1201 599 1185 b 393 961 599 1083 422 967 m 96 818 b 172 899 96 867 129 899 l 392 899 b 879 451 697 899 879 732 b 385 0 879 171 693 0 l 175 0 b 96 79 131 0 96 36 m 388 124 b 735 450 607 124 735 243 b 389 775 735 654 606 775 l 238 775 l 238 124 l 388 124 "},"Đ":{"ha":1001,"x_min":0,"x_max":0,"o":"m 225 0 b 146 79 181 0 146 36 l 146 394 l 72 394 b 18 444 32 394 18 415 l 18 457 b 72 506 18 485 32 506 l 146 506 l 146 818 b 222 899 146 867 179 899 l 447 899 b 940 451 751 899 940 729 b 440 0 940 172 747 0 l 225 0 m 449 126 b 797 450 671 126 797 244 b 450 772 797 653 669 772 l 288 772 l 288 506 l 531 506 b 586 457 571 506 586 485 l 586 444 b 531 394 586 415 571 394 l 288 394 l 288 126 "},"E":{"ha":815,"x_min":0,"x_max":0,"o":"m 172 0 b 96 79 126 0 96 31 l 96 818 b 172 899 96 867 126 899 l 693 899 b 760 839 738 899 760 876 l 760 831 b 693 771 760 792 738 771 l 239 771 l 239 519 l 590 519 b 657 463 636 519 657 500 l 657 458 b 590 399 657 419 635 399 l 239 399 l 239 126 l 701 126 b 767 69 746 126 767 107 l 767 63 b 701 0 767 22 746 0 l 172 0 "},"":{"ha":815,"x_min":0,"x_max":0,"o":"m 172 0 l 701 0 b 767 63 746 0 767 22 l 767 69 b 701 126 767 107 746 126 l 239 126 l 239 399 l 590 399 b 657 458 635 399 657 419 l 657 463 b 590 519 657 500 636 519 l 239 519 l 239 771 l 693 771 b 760 831 738 771 760 792 l 760 839 b 693 899 760 876 738 899 l 172 899 b 96 818 126 899 96 867 l 96 79 b 172 0 96 31 126 0 "},"É":{"ha":815,"x_min":0,"x_max":0,"o":"m 332 975 b 321 982 326 975 321 976 b 535 1194 321 1006 431 1194 b 596 1135 574 1194 596 1169 b 332 975 596 1032 350 975 m 172 0 b 96 79 126 0 96 31 l 96 818 b 172 899 96 867 126 899 l 693 899 b 760 839 738 899 760 876 l 760 831 b 693 771 760 792 738 771 l 239 771 l 239 519 l 590 519 b 657 463 636 519 657 500 l 657 458 b 590 399 657 419 635 399 l 239 399 l 239 126 l 701 126 b 767 69 746 126 767 107 l 767 63 b 701 0 767 22 746 0 l 172 0 "},"Ĕ":{"ha":815,"x_min":0,"x_max":0,"o":"m 431 967 b 235 1110 318 967 235 1019 b 310 1185 235 1144 256 1185 b 431 1081 321 1121 358 1081 b 553 1185 507 1081 542 1121 b 628 1110 607 1185 628 1144 b 431 967 628 1029 568 967 m 172 0 b 96 79 126 0 96 31 l 96 818 b 172 899 96 867 126 899 l 693 899 b 760 839 738 899 760 876 l 760 831 b 693 771 760 792 738 771 l 239 771 l 239 519 l 590 519 b 657 463 636 519 657 500 l 657 458 b 590 399 657 419 635 399 l 239 399 l 239 126 l 701 126 b 767 69 746 126 767 107 l 767 63 b 701 0 767 22 746 0 l 172 0 "},"Ě":{"ha":815,"x_min":0,"x_max":0,"o":"m 431 961 b 225 1158 401 967 225 1083 b 272 1201 225 1185 246 1201 b 431 1063 313 1201 358 1160 b 586 1201 504 1160 546 1201 b 636 1158 613 1201 636 1185 b 431 961 636 1083 460 967 m 172 0 b 96 79 126 0 96 31 l 96 818 b 172 899 96 867 126 899 l 693 899 b 760 839 738 899 760 876 l 760 831 b 693 771 760 792 738 771 l 239 771 l 239 519 l 590 519 b 657 463 636 519 657 500 l 657 458 b 590 399 657 419 635 399 l 239 399 l 239 126 l 701 126 b 767 69 746 126 767 107 l 767 63 b 701 0 767 22 746 0 l 172 0 "},"Ê":{"ha":815,"x_min":0,"x_max":0,"o":"m 275 968 b 225 1011 249 968 225 985 b 431 1208 225 1086 401 1203 b 636 1011 460 1203 636 1086 b 589 968 636 985 615 968 b 431 1107 549 968 503 1010 b 275 968 357 1010 315 968 m 172 0 b 96 79 126 0 96 31 l 96 818 b 172 899 96 867 126 899 l 693 899 b 760 839 738 899 760 876 l 760 831 b 693 771 760 792 738 771 l 239 771 l 239 519 l 590 519 b 657 463 636 519 657 500 l 657 458 b 590 399 657 419 635 399 l 239 399 l 239 126 l 701 126 b 767 69 746 126 767 107 l 767 63 b 701 0 767 22 746 0 l 172 0 "},"Ë":{"ha":815,"x_min":0,"x_max":0,"o":"m 299 985 b 221 1063 250 985 221 1013 b 297 1140 221 1114 250 1140 b 376 1063 349 1140 376 1114 b 299 985 376 1013 349 985 m 563 985 b 485 1063 514 985 485 1013 b 561 1140 485 1114 514 1140 b 640 1063 613 1140 640 1114 b 563 985 640 1013 613 985 m 172 0 b 96 79 126 0 96 31 l 96 818 b 172 899 96 867 126 899 l 693 899 b 760 839 738 899 760 876 l 760 831 b 693 771 760 792 738 771 l 239 771 l 239 519 l 590 519 b 657 463 636 519 657 500 l 657 458 b 590 399 657 419 635 399 l 239 399 l 239 126 l 701 126 b 767 69 746 126 767 107 l 767 63 b 701 0 767 22 746 0 l 172 0 "},"Ė":{"ha":815,"x_min":0,"x_max":0,"o":"m 431 985 b 349 1064 379 985 349 1015 b 432 1144 349 1114 379 1144 b 513 1064 483 1144 513 1114 b 431 985 513 1014 483 985 m 172 0 b 96 79 126 0 96 31 l 96 818 b 172 899 96 867 126 899 l 693 899 b 760 839 738 899 760 876 l 760 831 b 693 771 760 792 738 771 l 239 771 l 239 519 l 590 519 b 657 463 636 519 657 500 l 657 458 b 590 399 657 419 635 399 l 239 399 l 239 126 l 701 126 b 767 69 746 126 767 107 l 767 63 b 701 0 767 22 746 0 l 172 0 "},"È":{"ha":815,"x_min":0,"x_max":0,"o":"m 503 975 b 239 1135 485 975 239 1032 b 300 1194 239 1169 261 1194 b 514 982 404 1194 514 1006 b 503 975 514 976 508 975 m 172 0 b 96 79 126 0 96 31 l 96 818 b 172 899 96 867 126 899 l 693 899 b 760 839 738 899 760 876 l 760 831 b 693 771 760 792 738 771 l 239 771 l 239 519 l 590 519 b 657 463 636 519 657 500 l 657 458 b 590 399 657 419 635 399 l 239 399 l 239 126 l 701 126 b 767 69 746 126 767 107 l 767 63 b 701 0 767 22 746 0 l 172 0 "},"Ē":{"ha":815,"x_min":0,"x_max":0,"o":"m 275 1006 b 206 1060 231 1006 206 1024 l 206 1068 b 275 1119 206 1101 232 1119 l 586 1119 b 656 1068 631 1119 656 1101 l 656 1060 b 586 1006 656 1024 631 1006 l 275 1006 m 172 0 b 96 79 126 0 96 31 l 96 818 b 172 899 96 867 126 899 l 693 899 b 760 839 738 899 760 876 l 760 831 b 693 771 760 792 738 771 l 239 771 l 239 519 l 590 519 b 657 463 636 519 657 500 l 657 458 b 590 399 657 419 635 399 l 239 399 l 239 126 l 701 126 b 767 69 746 126 767 107 l 767 63 b 701 0 767 22 746 0 l 172 0 "},"Ę":{"ha":815,"x_min":0,"x_max":0,"o":"m 674 -274 b 533 -156 589 -274 533 -229 b 642 0 533 -100 569 -43 l 172 0 b 96 79 126 0 96 31 l 96 818 b 172 899 96 867 126 899 l 693 899 b 760 839 738 899 760 876 l 760 831 b 693 771 760 792 738 771 l 239 771 l 239 519 l 590 519 b 657 463 636 519 657 500 l 657 458 b 590 399 657 419 635 399 l 239 399 l 239 126 l 701 126 b 767 69 746 126 767 107 l 767 63 b 747 13 767 40 760 22 b 639 -129 664 -53 639 -94 b 685 -178 639 -158 658 -178 b 736 -150 708 -178 725 -168 b 782 -203 758 -151 782 -171 b 674 -274 782 -244 742 -274 "},"F":{"ha":754,"x_min":0,"x_max":0,"o":"m 96 818 b 172 899 96 867 126 899 l 657 899 b 724 840 701 899 724 878 l 724 832 b 657 772 724 793 701 772 l 238 772 l 238 486 l 549 486 b 615 429 594 486 615 465 l 615 424 b 549 365 615 385 593 365 l 240 365 l 240 60 b 178 -6 240 17 219 -6 l 156 -6 b 96 69 117 -6 96 21 "},"G":{"ha":989,"x_min":0,"x_max":0,"o":"m 833 474 b 910 392 885 474 910 442 l 910 8 b 863 -6 910 4 889 -6 b 785 110 821 -6 785 15 l 785 126 b 486 -17 729 38 625 -17 b 61 447 226 -17 61 179 b 522 917 61 722 250 917 b 774 850 632 917 717 888 b 863 731 832 813 863 765 b 785 657 863 665 789 651 b 525 793 729 746 625 793 b 208 446 339 793 208 651 b 514 99 208 244 324 99 b 783 300 660 99 765 181 l 783 357 l 572 357 b 500 411 524 357 500 372 l 500 418 b 572 474 500 458 524 474 l 833 474 "},"Ğ":{"ha":989,"x_min":0,"x_max":0,"o":"m 525 967 b 329 1110 413 967 329 1019 b 404 1185 329 1144 350 1185 b 525 1081 415 1121 453 1081 b 647 1185 601 1081 636 1121 b 722 1110 701 1185 722 1144 b 525 967 722 1029 663 967 m 833 474 b 910 392 885 474 910 442 l 910 8 b 863 -6 910 4 889 -6 b 785 110 821 -6 785 15 l 785 126 b 486 -17 729 38 625 -17 b 61 447 226 -17 61 179 b 522 917 61 722 250 917 b 774 850 632 917 717 888 b 863 731 832 813 863 765 b 785 657 863 665 789 651 b 525 793 729 746 625 793 b 208 446 339 793 208 651 b 514 99 208 244 324 99 b 783 300 660 99 765 181 l 783 357 l 572 357 b 500 411 524 357 500 372 l 500 418 b 572 474 500 458 524 474 l 833 474 "},"Ĝ":{"ha":989,"x_min":0,"x_max":0,"o":"m 369 968 b 319 1011 343 968 319 985 b 525 1208 319 1086 496 1203 b 731 1011 554 1203 731 1086 b 683 968 731 985 710 968 b 525 1107 643 968 597 1010 b 369 968 451 1010 410 968 m 833 474 b 910 392 885 474 910 442 l 910 8 b 863 -6 910 4 889 -6 b 785 110 821 -6 785 15 l 785 126 b 486 -17 729 38 625 -17 b 61 447 226 -17 61 179 b 522 917 61 722 250 917 b 774 850 632 917 717 888 b 863 731 832 813 863 765 b 785 657 863 665 789 651 b 525 793 729 746 625 793 b 208 446 339 793 208 651 b 514 99 208 244 324 99 b 783 300 660 99 765 181 l 783 357 l 572 357 b 500 411 524 357 500 372 l 500 418 b 572 474 500 458 524 474 l 833 474 "},"Ģ":{"ha":989,"x_min":0,"x_max":0,"o":"m 833 474 b 910 392 885 474 910 442 l 910 8 b 863 -6 910 4 889 -6 b 785 110 821 -6 785 15 l 785 126 b 486 -17 729 38 625 -17 b 61 447 226 -17 61 179 b 522 917 61 722 250 917 b 774 850 632 917 717 888 b 863 731 832 813 863 765 b 785 657 863 665 789 651 b 525 793 729 746 625 793 b 208 446 339 793 208 651 b 514 99 208 244 324 99 b 783 300 660 99 765 181 l 783 357 l 572 357 b 500 411 524 357 500 372 l 500 418 b 572 474 500 458 524 474 l 833 474 m 551 -72 b 614 -119 588 -72 614 -89 l 614 -122 b 571 -192 614 -140 596 -161 l 479 -303 b 410 -276 457 -321 396 -310 l 465 -126 b 539 -72 481 -92 490 -72 l 551 -72 "},"Ġ":{"ha":989,"x_min":0,"x_max":0,"o":"m 525 985 b 443 1064 474 985 443 1015 b 526 1144 443 1114 474 1144 b 607 1064 578 1144 607 1114 b 525 985 607 1014 578 985 m 833 474 b 910 392 885 474 910 442 l 910 8 b 863 -6 910 4 889 -6 b 785 110 821 -6 785 15 l 785 126 b 486 -17 729 38 625 -17 b 61 447 226 -17 61 179 b 522 917 61 722 250 917 b 774 850 632 917 717 888 b 863 731 832 813 863 765 b 785 657 863 665 789 651 b 525 793 729 746 625 793 b 208 446 339 793 208 651 b 514 99 208 244 324 99 b 783 300 660 99 765 181 l 783 357 l 572 357 b 500 411 524 357 500 372 l 500 418 b 572 474 500 458 524 474 l 833 474 "},"H":{"ha":951,"x_min":0,"x_max":0,"o":"m 156 -6 b 96 60 117 -6 96 17 l 96 839 b 156 904 96 882 117 904 l 176 904 b 239 839 218 904 239 882 l 239 513 l 713 513 l 713 839 b 772 904 713 882 733 904 l 793 904 b 856 839 835 904 856 882 l 856 60 b 793 -6 856 17 835 -6 l 772 -6 b 713 60 733 -6 713 17 l 713 388 l 239 388 l 239 60 b 176 -6 239 17 218 -6 l 156 -6 "},"Ħ":{"ha":951,"x_min":0,"x_max":0,"o":"m 156 -6 b 96 60 117 -6 96 17 l 96 646 l 57 646 b 3 683 22 646 3 656 l 3 693 b 57 729 3 719 24 729 l 96 729 l 96 839 b 156 904 96 882 117 904 l 176 904 b 239 839 218 904 239 882 l 239 729 l 713 729 l 713 839 b 772 904 713 882 733 904 l 793 904 b 856 839 835 904 856 882 l 856 729 l 894 729 b 949 693 929 729 949 719 l 949 683 b 894 646 949 656 929 646 l 856 646 l 856 60 b 793 -6 856 17 835 -6 l 772 -6 b 713 60 733 -6 713 17 l 713 388 l 239 388 l 239 60 b 176 -6 239 17 218 -6 l 156 -6 m 713 513 l 713 646 l 239 646 l 239 513 "},"Ĥ":{"ha":951,"x_min":0,"x_max":0,"o":"m 319 968 b 269 1011 293 968 269 985 b 475 1208 269 1086 446 1203 b 681 1011 504 1203 681 1086 b 633 968 681 985 660 968 b 475 1107 593 968 547 1010 b 319 968 401 1010 360 968 m 156 -6 b 96 60 117 -6 96 17 l 96 839 b 156 904 96 882 117 904 l 176 904 b 239 839 218 904 239 882 l 239 513 l 713 513 l 713 839 b 772 904 713 882 733 904 l 793 904 b 856 839 835 904 856 882 l 856 60 b 793 -6 856 17 835 -6 l 772 -6 b 713 60 733 -6 713 17 l 713 388 l 239 388 l 239 60 b 176 -6 239 17 218 -6 l 156 -6 "},"I":{"ha":360,"x_min":0,"x_max":0,"o":"m 108 839 b 169 904 108 882 129 904 l 189 904 b 251 839 231 904 251 882 l 251 60 b 189 -6 251 17 231 -6 l 169 -6 b 108 60 129 -6 108 17 "},"Ĳ":{"ha":1004,"x_min":0,"x_max":0,"o":"m 108 839 b 169 904 108 882 129 904 l 189 904 b 251 839 231 904 251 882 l 251 60 b 189 -6 251 17 231 -6 l 169 -6 b 108 60 129 -6 108 17 m 392 126 b 457 204 392 181 454 210 b 619 106 489 146 546 106 b 774 304 729 106 774 161 l 774 839 b 835 904 774 882 794 904 l 856 904 b 917 839 896 904 917 882 l 917 303 b 631 -18 917 85 824 -18 b 392 126 486 -18 392 58 "},"Í":{"ha":360,"x_min":0,"x_max":0,"o":"m 81 975 b 69 982 75 975 69 976 b 283 1194 69 1006 179 1194 b 344 1135 322 1194 344 1169 b 81 975 344 1032 99 975 m 108 839 b 169 904 108 882 129 904 l 189 904 b 251 839 231 904 251 882 l 251 60 b 189 -6 251 17 231 -6 l 169 -6 b 108 60 129 -6 108 17 "},"Ĭ":{"ha":360,"x_min":0,"x_max":0,"o":"m 179 967 b -17 1110 67 967 -17 1019 b 58 1185 -17 1144 4 1185 b 179 1081 69 1121 107 1081 b 301 1185 256 1081 290 1121 b 376 1110 356 1185 376 1144 b 179 967 376 1029 317 967 m 108 839 b 169 904 108 882 129 904 l 189 904 b 251 839 231 904 251 882 l 251 60 b 189 -6 251 17 231 -6 l 169 -6 b 108 60 129 -6 108 17 "},"Î":{"ha":360,"x_min":0,"x_max":0,"o":"m 24 968 b -26 1011 -3 968 -26 985 b 179 1208 -26 1086 150 1203 b 385 1011 208 1203 385 1086 b 338 968 385 985 364 968 b 179 1107 297 968 251 1010 b 24 968 106 1010 64 968 m 108 839 b 169 904 108 882 129 904 l 189 904 b 251 839 231 904 251 882 l 251 60 b 189 -6 251 17 231 -6 l 169 -6 b 108 60 129 -6 108 17 "},"Ï":{"ha":360,"x_min":0,"x_max":0,"o":"m 47 985 b -31 1063 -1 985 -31 1013 b 46 1140 -31 1114 -1 1140 b 125 1063 97 1140 125 1114 b 47 985 125 1013 97 985 m 311 985 b 233 1063 263 985 233 1013 b 310 1140 233 1114 263 1140 b 389 1063 361 1140 389 1114 b 311 985 389 1013 361 985 m 108 839 b 169 904 108 882 129 904 l 189 904 b 251 839 231 904 251 882 l 251 60 b 189 -6 251 17 231 -6 l 169 -6 b 108 60 129 -6 108 17 "},"İ":{"ha":360,"x_min":0,"x_max":0,"o":"m 179 985 b 97 1064 128 985 97 1015 b 181 1144 97 1114 128 1144 b 261 1064 232 1144 261 1114 b 179 985 261 1014 232 985 m 108 839 b 169 904 108 882 129 904 l 189 904 b 251 839 231 904 251 882 l 251 60 b 189 -6 251 17 231 -6 l 169 -6 b 108 60 129 -6 108 17 "},"Ì":{"ha":360,"x_min":0,"x_max":0,"o":"m 251 975 b -12 1135 233 975 -12 1032 b 49 1194 -12 1169 10 1194 b 263 982 153 1194 263 1006 b 251 975 263 976 257 975 m 108 839 b 169 904 108 882 129 904 l 189 904 b 251 839 231 904 251 882 l 251 60 b 189 -6 251 17 231 -6 l 169 -6 b 108 60 129 -6 108 17 "},"Ī":{"ha":360,"x_min":0,"x_max":0,"o":"m 24 1006 b -46 1060 -21 1006 -46 1024 l -46 1068 b 24 1119 -46 1101 -19 1119 l 335 1119 b 404 1068 379 1119 404 1101 l 404 1060 b 335 1006 404 1024 379 1006 l 24 1006 m 108 839 b 169 904 108 882 129 904 l 189 904 b 251 839 231 904 251 882 l 251 60 b 189 -6 251 17 231 -6 l 169 -6 b 108 60 129 -6 108 17 "},"Į":{"ha":360,"x_min":0,"x_max":0,"o":"m 158 -279 b 18 -161 74 -279 18 -235 b 138 0 18 -103 58 -44 b 108 60 118 10 108 29 l 108 839 b 169 904 108 882 129 904 l 189 904 b 251 839 231 904 251 882 l 251 60 b 232 7 251 35 244 18 b 124 -135 149 -58 124 -100 b 169 -183 124 -164 143 -183 b 221 -156 193 -183 210 -174 b 267 -208 243 -157 267 -176 b 158 -279 267 -250 226 -279 "},"Ĩ":{"ha":360,"x_min":0,"x_max":0,"o":"m 3 993 b -31 1008 -11 993 -22 999 b -43 1050 -39 1018 -43 1032 b 75 1181 -43 1101 -6 1181 b 167 1150 104 1181 135 1169 b 269 1068 199 1131 232 1103 b 356 1172 285 1115 313 1172 b 389 1157 369 1172 381 1167 b 401 1114 397 1147 401 1133 b 282 985 401 1063 363 985 b 192 1014 253 985 222 994 b 89 1097 161 1033 126 1063 b 3 993 72 1050 46 993 m 108 839 b 169 904 108 882 129 904 l 189 904 b 251 839 231 904 251 882 l 251 60 b 189 -6 251 17 231 -6 l 169 -6 b 108 60 129 -6 108 17 "},"J":{"ha":644,"x_min":0,"x_max":0,"o":"m 32 126 b 97 204 32 181 94 210 b 260 106 129 146 186 106 b 414 304 369 106 414 161 l 414 839 b 475 904 414 882 435 904 l 496 904 b 557 839 536 904 557 882 l 557 303 b 271 -18 557 85 464 -18 b 32 126 126 -18 32 58 "},"Ĵ":{"ha":644,"x_min":0,"x_max":0,"o":"m 331 968 b 281 1011 304 968 281 985 b 486 1208 281 1086 457 1203 b 692 1011 515 1203 692 1086 b 644 968 692 985 671 968 b 486 1107 604 968 558 1010 b 331 968 413 1010 371 968 m 32 126 b 97 204 32 181 94 210 b 260 106 129 146 186 106 b 414 304 369 106 414 161 l 414 839 b 475 904 414 882 435 904 l 496 904 b 557 839 536 904 557 882 l 557 303 b 271 -18 557 85 464 -18 b 32 126 126 -18 32 58 "},"K":{"ha":808,"x_min":0,"x_max":0,"o":"m 96 839 b 156 904 96 882 117 904 l 176 904 b 239 839 218 904 239 882 l 239 478 l 599 858 b 678 904 629 896 653 904 b 756 840 739 904 758 846 l 397 460 l 765 57 b 683 -6 771 50 746 -6 b 606 35 653 -6 629 6 l 239 435 l 239 60 b 176 -6 239 17 218 -6 l 156 -6 b 96 60 117 -6 96 17 "},"Ķ":{"ha":808,"x_min":0,"x_max":0,"o":"m 96 839 b 156 904 96 882 117 904 l 176 904 b 239 839 218 904 239 882 l 239 478 l 599 858 b 678 904 629 896 653 904 b 756 840 739 904 758 846 l 397 460 l 765 57 b 683 -6 771 50 746 -6 b 606 35 653 -6 629 6 l 239 435 l 239 60 b 176 -6 239 17 218 -6 l 156 -6 b 96 60 117 -6 96 17 m 383 -303 b 314 -276 361 -321 300 -310 l 369 -126 b 443 -72 385 -92 394 -72 l 456 -72 b 518 -119 492 -72 518 -89 l 518 -122 b 475 -192 518 -140 500 -161 l 383 -303 "},"L":{"ha":733,"x_min":0,"x_max":0,"o":"m 172 0 b 96 79 126 0 96 31 l 96 839 b 156 904 96 883 117 904 l 176 904 b 239 839 218 904 239 883 l 239 129 l 629 129 b 696 68 672 129 696 108 l 696 63 b 629 0 696 22 672 0 l 172 0 "},"Ĺ":{"ha":733,"x_min":0,"x_max":0,"o":"m 71 975 b 60 982 65 975 60 976 b 274 1194 60 1006 169 1194 b 335 1135 313 1194 335 1169 b 71 975 335 1032 89 975 m 172 0 b 96 79 126 0 96 31 l 96 839 b 156 904 96 883 117 904 l 176 904 b 239 839 218 904 239 883 l 239 129 l 629 129 b 696 68 672 129 696 108 l 696 63 b 629 0 696 22 672 0 l 172 0 "},"Ľ":{"ha":733,"x_min":0,"x_max":0,"o":"m 432 725 b 399 767 410 725 399 739 l 399 871 b 456 960 399 936 401 960 l 468 960 b 517 871 517 960 531 931 l 492 767 b 457 725 485 738 479 725 l 432 725 m 172 0 b 96 79 126 0 96 31 l 96 839 b 156 904 96 883 117 904 l 176 904 b 239 839 218 904 239 883 l 239 129 l 629 129 b 696 68 672 129 696 108 l 696 63 b 629 0 696 22 672 0 l 172 0 "},"Ļ":{"ha":733,"x_min":0,"x_max":0,"o":"m 172 0 b 96 79 126 0 96 31 l 96 839 b 156 904 96 883 117 904 l 176 904 b 239 839 218 904 239 883 l 239 129 l 629 129 b 696 68 672 129 696 108 l 696 63 b 629 0 696 22 672 0 l 172 0 m 329 -303 b 260 -276 307 -321 246 -310 l 315 -126 b 389 -72 331 -92 340 -72 l 401 -72 b 464 -119 438 -72 464 -89 l 464 -122 b 421 -192 464 -140 446 -161 l 329 -303 "},"Ŀ":{"ha":733,"x_min":0,"x_max":0,"o":"m 172 0 b 96 79 126 0 96 31 l 96 839 b 156 904 96 883 117 904 l 176 904 b 239 839 218 904 239 883 l 239 129 l 629 129 b 696 68 672 129 696 108 l 696 63 b 629 0 696 22 672 0 l 172 0 m 478 403 b 403 476 429 403 403 428 l 403 493 b 478 569 403 542 429 569 l 497 569 b 574 493 547 569 574 542 l 574 476 b 497 403 574 428 547 403 l 478 403 "},"Ł":{"ha":761,"x_min":0,"x_max":0,"o":"m 222 0 b 146 79 176 0 146 31 l 146 433 l 47 403 b 19 461 40 400 19 431 b 101 539 19 493 35 517 l 146 554 l 146 839 b 206 904 146 883 167 904 l 226 904 b 289 839 268 904 289 883 l 289 597 l 542 675 b 569 617 550 676 569 647 b 488 539 569 585 551 558 l 289 478 l 289 129 l 679 129 b 746 68 722 129 746 108 l 746 63 b 679 0 746 22 722 0 l 222 0 "},"M":{"ha":1042,"x_min":0,"x_max":0,"o":"m 96 825 b 178 904 96 874 128 904 l 215 904 b 308 832 271 904 286 883 l 521 353 l 735 832 b 826 904 757 885 774 904 l 861 904 b 946 825 913 904 946 874 l 946 60 b 886 -6 946 17 928 -6 l 867 -6 b 810 60 826 -6 810 17 l 810 719 l 611 272 b 519 211 596 236 581 211 b 428 272 457 211 444 236 l 232 715 l 232 60 b 174 -6 232 17 215 -6 l 151 -6 b 96 60 113 -6 96 17 "},"N":{"ha":949,"x_min":0,"x_max":0,"o":"m 154 -6 b 96 60 114 -6 96 17 l 96 824 b 164 904 96 872 119 904 l 188 904 b 274 850 231 904 247 886 l 718 219 l 718 839 b 778 904 718 882 736 904 l 794 904 b 853 839 833 904 853 882 l 853 75 b 786 -6 853 25 828 -6 l 775 -6 b 699 38 732 -6 721 7 l 231 700 l 231 60 b 169 -6 231 17 211 -6 l 154 -6 "},"Ń":{"ha":949,"x_min":0,"x_max":0,"o":"m 375 975 b 364 982 369 975 364 976 b 578 1194 364 1006 474 1194 b 639 1135 617 1194 639 1169 b 375 975 639 1032 393 975 m 154 -6 b 96 60 114 -6 96 17 l 96 824 b 164 904 96 872 119 904 l 188 904 b 274 850 231 904 247 886 l 718 219 l 718 839 b 778 904 718 882 736 904 l 794 904 b 853 839 833 904 853 882 l 853 75 b 786 -6 853 25 828 -6 l 775 -6 b 699 38 732 -6 721 7 l 231 700 l 231 60 b 169 -6 231 17 211 -6 l 154 -6 "},"Ň":{"ha":949,"x_min":0,"x_max":0,"o":"m 474 961 b 268 1158 444 967 268 1083 b 315 1201 268 1185 289 1201 b 474 1063 356 1201 401 1160 b 629 1201 547 1160 589 1201 b 679 1158 656 1201 679 1185 b 474 961 679 1083 503 967 m 154 -6 b 96 60 114 -6 96 17 l 96 824 b 164 904 96 872 119 904 l 188 904 b 274 850 231 904 247 886 l 718 219 l 718 839 b 778 904 718 882 736 904 l 794 904 b 853 839 833 904 853 882 l 853 75 b 786 -6 853 25 828 -6 l 775 -6 b 699 38 732 -6 721 7 l 231 700 l 231 60 b 169 -6 231 17 211 -6 l 154 -6 "},"Ņ":{"ha":949,"x_min":0,"x_max":0,"o":"m 154 -6 b 96 60 114 -6 96 17 l 96 824 b 164 904 96 872 119 904 l 188 904 b 274 850 231 904 247 886 l 718 219 l 718 839 b 778 904 718 882 736 904 l 794 904 b 853 839 833 904 853 882 l 853 75 b 786 -6 853 25 828 -6 l 775 -6 b 699 38 732 -6 721 7 l 231 700 l 231 60 b 169 -6 231 17 211 -6 l 154 -6 m 426 -303 b 357 -276 404 -321 343 -310 l 413 -126 b 486 -72 428 -92 438 -72 l 499 -72 b 561 -119 535 -72 561 -89 l 561 -122 b 518 -192 561 -140 543 -161 l 426 -303 "},"Ŋ":{"ha":949,"x_min":0,"x_max":0,"o":"m 575 -282 b 336 -137 431 -282 336 -206 b 401 -60 336 -83 399 -54 b 564 -158 433 -118 490 -158 b 717 14 667 -158 711 -110 b 699 38 711 19 706 28 l 231 700 l 231 60 b 169 -6 231 17 211 -6 l 154 -6 b 96 60 114 -6 96 17 l 96 824 b 164 904 96 872 119 904 l 188 904 b 274 850 231 904 247 886 l 718 219 l 718 839 b 778 904 718 882 736 904 l 794 904 b 853 839 833 904 853 882 l 853 39 b 575 -282 853 -179 758 -282 "},"Ñ":{"ha":949,"x_min":0,"x_max":0,"o":"m 297 993 b 264 1008 283 993 272 999 b 251 1050 256 1018 251 1032 b 369 1181 251 1101 289 1181 b 461 1150 399 1181 429 1169 b 564 1068 493 1131 526 1103 b 650 1172 579 1115 607 1172 b 683 1157 664 1172 675 1167 b 696 1114 692 1147 696 1133 b 576 985 696 1063 657 985 b 486 1014 547 985 517 994 b 383 1097 456 1033 421 1063 b 297 993 367 1050 340 993 m 154 -6 b 96 60 114 -6 96 17 l 96 824 b 164 904 96 872 119 904 l 188 904 b 274 850 231 904 247 886 l 718 219 l 718 839 b 778 904 718 882 736 904 l 794 904 b 853 839 833 904 853 882 l 853 75 b 786 -6 853 25 828 -6 l 775 -6 b 699 38 732 -6 721 7 l 231 700 l 231 60 b 169 -6 231 17 211 -6 l 154 -6 "},"O":{"ha":1029,"x_min":0,"x_max":0,"o":"m 514 -18 b 60 447 246 -18 60 174 b 515 917 60 722 250 917 b 969 450 783 917 969 725 b 514 -18 969 175 781 -18 m 515 108 b 825 447 697 108 825 247 b 514 790 825 647 696 790 b 204 450 332 790 204 651 b 515 108 204 250 333 108 "},"Ó":{"ha":1029,"x_min":0,"x_max":0,"o":"m 415 975 b 404 982 410 975 404 976 b 618 1194 404 1006 514 1194 b 679 1135 657 1194 679 1169 b 415 975 679 1032 433 975 m 514 -18 b 60 447 246 -18 60 174 b 515 917 60 722 250 917 b 969 450 783 917 969 725 b 514 -18 969 175 781 -18 m 515 108 b 825 447 697 108 825 247 b 514 790 825 647 696 790 b 204 450 332 790 204 651 b 515 108 204 250 333 108 "},"Ŏ":{"ha":1029,"x_min":0,"x_max":0,"o":"m 514 967 b 318 1110 401 967 318 1019 b 393 1185 318 1144 339 1185 b 514 1081 404 1121 442 1081 b 636 1185 590 1081 625 1121 b 711 1110 690 1185 711 1144 b 514 967 711 1029 651 967 m 514 -18 b 60 447 246 -18 60 174 b 515 917 60 722 250 917 b 969 450 783 917 969 725 b 514 -18 969 175 781 -18 m 515 108 b 825 447 697 108 825 247 b 514 790 825 647 696 790 b 204 450 332 790 204 651 b 515 108 204 250 333 108 "},"Ô":{"ha":1029,"x_min":0,"x_max":0,"o":"m 358 968 b 308 1011 332 968 308 985 b 514 1208 308 1086 485 1203 b 719 1011 543 1203 719 1086 b 672 968 719 985 699 968 b 514 1107 632 968 586 1010 b 358 968 440 1010 399 968 m 514 -18 b 60 447 246 -18 60 174 b 515 917 60 722 250 917 b 969 450 783 917 969 725 b 514 -18 969 175 781 -18 m 515 108 b 825 447 697 108 825 247 b 514 790 825 647 696 790 b 204 450 332 790 204 651 b 515 108 204 250 333 108 "},"Ö":{"ha":1029,"x_min":0,"x_max":0,"o":"m 382 985 b 304 1063 333 985 304 1013 b 381 1140 304 1114 333 1140 b 460 1063 432 1140 460 1114 b 382 985 460 1013 432 985 m 646 985 b 568 1063 597 985 568 1013 b 644 1140 568 1114 597 1140 b 724 1063 696 1140 724 1114 b 646 985 724 1013 696 985 m 514 -18 b 60 447 246 -18 60 174 b 515 917 60 722 250 917 b 969 450 783 917 969 725 b 514 -18 969 175 781 -18 m 515 108 b 825 447 697 108 825 247 b 514 790 825 647 696 790 b 204 450 332 790 204 651 b 515 108 204 250 333 108 "},"Ò":{"ha":1029,"x_min":0,"x_max":0,"o":"m 586 975 b 322 1135 568 975 322 1032 b 383 1194 322 1169 344 1194 b 597 982 488 1194 597 1006 b 586 975 597 976 592 975 m 514 -18 b 60 447 246 -18 60 174 b 515 917 60 722 250 917 b 969 450 783 917 969 725 b 514 -18 969 175 781 -18 m 515 108 b 825 447 697 108 825 247 b 514 790 825 647 696 790 b 204 450 332 790 204 651 b 515 108 204 250 333 108 "},"Ő":{"ha":1029,"x_min":0,"x_max":0,"o":"m 353 975 b 347 982 350 975 347 976 b 529 1194 347 1006 433 1194 b 586 1140 567 1194 586 1172 b 353 975 586 1042 369 975 m 608 975 b 603 982 606 975 603 976 b 785 1194 603 1006 689 1194 b 842 1140 822 1194 842 1172 b 608 975 842 1042 625 975 m 514 -18 b 60 447 246 -18 60 174 b 515 917 60 722 250 917 b 969 450 783 917 969 725 b 514 -18 969 175 781 -18 m 515 108 b 825 447 697 108 825 247 b 514 790 825 647 696 790 b 204 450 332 790 204 651 b 515 108 204 250 333 108 "},"Ō":{"ha":1029,"x_min":0,"x_max":0,"o":"m 358 1006 b 289 1060 314 1006 289 1024 l 289 1068 b 358 1119 289 1101 315 1119 l 669 1119 b 739 1068 714 1119 739 1101 l 739 1060 b 669 1006 739 1024 714 1006 l 358 1006 m 514 -18 b 60 447 246 -18 60 174 b 515 917 60 722 250 917 b 969 450 783 917 969 725 b 514 -18 969 175 781 -18 m 515 108 b 825 447 697 108 825 247 b 514 790 825 647 696 790 b 204 450 332 790 204 651 b 515 108 204 250 333 108 "},"Ø":{"ha":1029,"x_min":0,"x_max":0,"o":"m 867 761 b 969 450 932 681 969 574 b 514 -18 969 175 781 -18 b 236 68 406 -18 311 13 l 121 -60 b 58 -1 114 -67 58 -42 b 92 67 58 17 67 38 l 160 142 b 60 447 96 221 60 326 b 515 917 60 722 250 917 b 789 833 621 917 715 886 l 894 950 b 956 892 900 957 956 932 b 924 824 956 874 949 853 l 867 761 m 514 790 b 204 450 332 790 204 651 b 260 246 204 371 224 301 l 697 731 b 514 790 647 769 585 790 m 515 108 b 825 447 697 108 825 247 b 767 657 825 528 804 600 l 329 169 b 515 108 379 131 443 108 "},"Ǿ":{"ha":1029,"x_min":0,"x_max":0,"o":"m 415 975 b 404 982 410 975 404 976 b 618 1194 404 1006 514 1194 b 679 1135 657 1194 679 1169 b 415 975 679 1032 433 975 m 867 761 b 969 450 932 681 969 574 b 514 -18 969 175 781 -18 b 236 68 406 -18 311 13 l 121 -60 b 58 -1 114 -67 58 -42 b 92 67 58 17 67 38 l 160 142 b 60 447 96 221 60 326 b 515 917 60 722 250 917 b 789 833 621 917 715 886 l 894 950 b 956 892 900 957 956 932 b 924 824 956 874 949 853 l 867 761 m 514 790 b 204 450 332 790 204 651 b 260 246 204 371 224 301 l 697 731 b 514 790 647 769 585 790 m 515 108 b 825 447 697 108 825 247 b 767 657 825 528 804 600 l 329 169 b 515 108 379 131 443 108 "},"Õ":{"ha":1029,"x_min":0,"x_max":0,"o":"m 338 993 b 304 1008 324 993 313 999 b 292 1050 296 1018 292 1032 b 410 1181 292 1101 329 1181 b 501 1150 439 1181 469 1169 b 604 1068 533 1131 567 1103 b 690 1172 619 1115 647 1172 b 724 1157 704 1172 715 1167 b 736 1114 732 1147 736 1133 b 617 985 736 1063 697 985 b 526 1014 588 985 557 994 b 424 1097 496 1033 461 1063 b 338 993 407 1050 381 993 m 514 -18 b 60 447 246 -18 60 174 b 515 917 60 722 250 917 b 969 450 783 917 969 725 b 514 -18 969 175 781 -18 m 515 108 b 825 447 697 108 825 247 b 514 790 825 647 696 790 b 204 450 332 790 204 651 b 515 108 204 250 333 108 "},"Œ":{"ha":1432,"x_min":0,"x_max":0,"o":"m 514 -18 b 60 447 246 -18 60 174 b 515 917 60 722 250 917 b 650 899 564 917 608 910 l 1310 899 b 1376 839 1354 899 1376 876 l 1376 831 b 1310 771 1376 792 1354 771 l 842 771 b 963 519 910 713 954 626 l 1207 519 b 1274 463 1253 519 1274 500 l 1274 458 b 1207 399 1274 419 1251 399 l 964 399 b 840 126 958 285 914 190 l 1318 126 b 1383 69 1363 126 1383 107 l 1383 63 b 1318 0 1383 22 1363 0 l 650 0 b 514 -18 608 -11 561 -18 m 515 108 b 825 447 697 108 825 247 b 514 790 825 647 696 790 b 204 450 332 790 204 651 b 515 108 204 250 333 108 "},"P":{"ha":790,"x_min":0,"x_max":0,"o":"m 156 -6 b 96 60 117 -6 96 17 l 96 818 b 172 899 96 867 126 899 l 404 899 b 753 613 626 899 753 797 b 399 324 753 424 631 324 l 239 324 l 239 60 b 176 -6 239 21 218 -6 l 156 -6 m 401 439 b 610 610 539 439 610 499 b 403 781 610 722 539 781 l 238 781 l 238 439 l 401 439 "},"Þ":{"ha":799,"x_min":0,"x_max":0,"o":"m 156 -6 b 96 60 117 -6 96 17 l 96 839 b 156 904 96 882 117 904 l 176 904 b 239 839 218 904 239 882 l 239 738 l 403 738 b 751 454 626 738 751 636 b 397 168 751 268 631 168 l 239 168 l 239 60 b 176 -6 239 17 218 -6 l 156 -6 m 401 283 b 610 451 540 283 610 343 b 404 619 610 563 540 619 l 239 619 l 239 283 "},"Q":{"ha":1029,"x_min":0,"x_max":0,"o":"m 974 39 b 892 -18 979 33 947 -18 b 808 28 867 -18 838 -4 l 774 63 b 514 -18 701 11 611 -18 b 60 447 247 -18 60 172 b 517 917 60 722 250 917 b 969 450 783 917 969 725 b 867 149 969 333 931 229 l 974 39 m 517 108 b 688 154 582 108 640 125 l 544 301 b 536 390 519 328 511 368 l 546 399 b 632 385 572 424 607 413 l 772 240 b 828 447 808 294 828 365 b 515 790 828 646 699 790 b 204 450 332 790 204 649 b 517 108 204 250 335 108 "},"R":{"ha":818,"x_min":0,"x_max":0,"o":"m 156 -6 b 96 68 117 -6 96 21 l 96 818 b 172 899 96 867 126 899 l 428 899 b 764 629 647 899 764 807 b 553 374 764 494 690 403 b 496 365 535 369 515 367 l 758 53 b 675 -6 765 44 735 -6 b 582 50 638 -6 613 10 l 336 351 l 238 351 l 238 60 b 175 -6 238 21 217 -6 l 156 -6 m 425 464 b 619 622 557 464 619 525 b 421 781 619 726 553 781 l 236 781 l 236 464 "},"Ŕ":{"ha":818,"x_min":0,"x_max":0,"o":"m 299 975 b 288 982 293 975 288 976 b 501 1194 288 1006 397 1194 b 563 1135 540 1194 563 1169 b 299 975 563 1032 317 975 m 156 -6 b 96 68 117 -6 96 21 l 96 818 b 172 899 96 867 126 899 l 428 899 b 764 629 647 899 764 807 b 553 374 764 494 690 403 b 496 365 535 369 515 367 l 758 53 b 675 -6 765 44 735 -6 b 582 50 638 -6 613 10 l 336 351 l 238 351 l 238 60 b 175 -6 238 21 217 -6 l 156 -6 m 425 464 b 619 622 557 464 619 525 b 421 781 619 726 553 781 l 236 781 l 236 464 "},"Ř":{"ha":818,"x_min":0,"x_max":0,"o":"m 397 961 b 192 1158 368 967 192 1083 b 239 1201 192 1185 213 1201 b 397 1063 279 1201 325 1160 b 553 1201 471 1160 513 1201 b 603 1158 579 1201 603 1185 b 397 961 603 1083 426 967 m 156 -6 b 96 68 117 -6 96 21 l 96 818 b 172 899 96 867 126 899 l 428 899 b 764 629 647 899 764 807 b 553 374 764 494 690 403 b 496 365 535 369 515 367 l 758 53 b 675 -6 765 44 735 -6 b 582 50 638 -6 613 10 l 336 351 l 238 351 l 238 60 b 175 -6 238 21 217 -6 l 156 -6 m 425 464 b 619 622 557 464 619 525 b 421 781 619 726 553 781 l 236 781 l 236 464 "},"Ŗ":{"ha":818,"x_min":0,"x_max":0,"o":"m 156 -6 b 96 68 117 -6 96 21 l 96 818 b 172 899 96 867 126 899 l 428 899 b 764 629 647 899 764 807 b 553 374 764 494 690 403 b 496 365 535 369 515 367 l 758 53 b 675 -6 765 44 735 -6 b 582 50 638 -6 613 10 l 336 351 l 238 351 l 238 60 b 175 -6 238 21 217 -6 l 156 -6 m 425 464 b 619 622 557 464 619 525 b 421 781 619 726 553 781 l 236 781 l 236 464 m 353 -303 b 283 -276 331 -321 269 -310 l 339 -126 b 413 -72 354 -92 364 -72 l 425 -72 b 488 -119 461 -72 488 -89 l 488 -122 b 444 -192 488 -140 469 -161 l 353 -303 "},"S":{"ha":769,"x_min":0,"x_max":0,"o":"m 90 75 b 44 161 60 104 44 135 b 110 238 44 208 106 243 b 381 100 161 163 257 100 b 576 240 506 100 576 151 b 351 393 576 342 471 365 b 68 656 213 425 68 474 b 392 917 68 808 200 917 b 646 843 510 917 596 883 b 700 757 682 815 700 783 b 633 678 700 706 636 674 b 393 799 586 746 497 799 b 207 661 281 799 207 744 b 419 518 207 563 294 547 b 719 250 572 483 719 424 b 382 -18 719 85 592 -18 b 90 75 243 -18 144 25 "},"":{"ha":769,"x_min":0,"x_max":0,"o":"m 90 75 b 382 -18 144 25 243 -18 b 719 250 592 -18 719 85 b 419 518 719 424 572 483 b 207 661 294 547 207 563 b 393 799 207 744 281 799 b 633 678 497 799 586 746 b 700 757 636 674 700 706 b 646 843 700 783 682 815 b 392 917 596 883 510 917 b 68 656 200 917 68 808 b 351 393 68 474 213 425 b 576 240 471 365 576 342 b 381 100 576 151 506 100 b 110 238 257 100 161 163 b 44 161 106 243 44 208 b 90 75 44 135 60 104 "},"Ś":{"ha":769,"x_min":0,"x_max":0,"o":"m 299 975 b 288 982 293 975 288 976 b 501 1194 288 1006 397 1194 b 563 1135 540 1194 563 1169 b 299 975 563 1032 317 975 m 90 75 b 44 161 60 104 44 135 b 110 238 44 208 106 243 b 381 100 161 163 257 100 b 576 240 506 100 576 151 b 351 393 576 342 471 365 b 68 656 213 425 68 474 b 392 917 68 808 200 917 b 646 843 510 917 596 883 b 700 757 682 815 700 783 b 633 678 700 706 636 674 b 393 799 586 746 497 799 b 207 661 281 799 207 744 b 419 518 207 563 294 547 b 719 250 572 483 719 424 b 382 -18 719 85 592 -18 b 90 75 243 -18 144 25 "},"Š":{"ha":769,"x_min":0,"x_max":0,"o":"m 397 961 b 192 1158 368 967 192 1083 b 239 1201 192 1185 213 1201 b 397 1063 279 1201 325 1160 b 553 1201 471 1160 513 1201 b 603 1158 579 1201 603 1185 b 397 961 603 1083 426 967 m 90 75 b 44 161 60 104 44 135 b 110 238 44 208 106 243 b 381 100 161 163 257 100 b 576 240 506 100 576 151 b 351 393 576 342 471 365 b 68 656 213 425 68 474 b 392 917 68 808 200 917 b 646 843 510 917 596 883 b 700 757 682 815 700 783 b 633 678 700 706 636 674 b 393 799 586 746 497 799 b 207 661 281 799 207 744 b 419 518 207 563 294 547 b 719 250 572 483 719 424 b 382 -18 719 85 592 -18 b 90 75 243 -18 144 25 "},"Ş":{"ha":769,"x_min":0,"x_max":0,"o":"m 357 -293 b 214 -190 269 -293 214 -240 b 257 -143 214 -158 236 -146 b 346 -194 275 -167 304 -194 b 414 -132 382 -194 414 -172 b 339 -17 414 -89 378 -44 b 90 75 222 -8 139 31 b 44 161 60 104 44 135 b 110 238 44 208 106 243 b 381 100 161 163 257 100 b 576 240 506 100 576 151 b 351 393 576 342 471 365 b 68 656 213 425 68 474 b 392 917 68 808 200 917 b 646 843 510 917 596 883 b 700 757 682 815 700 783 b 633 678 700 706 636 674 b 393 799 586 746 497 799 b 207 661 281 799 207 744 b 419 518 207 563 294 547 b 719 250 572 483 719 424 b 475 -11 719 111 629 15 l 436 -15 b 511 -158 486 -56 511 -107 b 357 -293 511 -251 433 -293 "},"Ŝ":{"ha":769,"x_min":0,"x_max":0,"o":"m 242 968 b 192 1011 215 968 192 985 b 397 1208 192 1086 368 1203 b 603 1011 426 1203 603 1086 b 556 968 603 985 582 968 b 397 1107 515 968 469 1010 b 242 968 324 1010 282 968 m 90 75 b 44 161 60 104 44 135 b 110 238 44 208 106 243 b 381 100 161 163 257 100 b 576 240 506 100 576 151 b 351 393 576 342 471 365 b 68 656 213 425 68 474 b 392 917 68 808 200 917 b 646 843 510 917 596 883 b 700 757 682 815 700 783 b 633 678 700 706 636 674 b 393 799 586 746 497 799 b 207 661 281 799 207 744 b 419 518 207 563 294 547 b 719 250 572 483 719 424 b 382 -18 719 85 592 -18 b 90 75 243 -18 144 25 "},"Ș":{"ha":769,"x_min":0,"x_max":0,"o":"m 90 75 b 44 161 60 104 44 135 b 110 238 44 208 106 243 b 381 100 161 163 257 100 b 576 240 506 100 576 151 b 351 393 576 342 471 365 b 68 656 213 425 68 474 b 392 917 68 808 200 917 b 646 843 510 917 596 883 b 700 757 682 815 700 783 b 633 678 700 706 636 674 b 393 799 586 746 497 799 b 207 661 281 799 207 744 b 419 518 207 563 294 547 b 719 250 572 483 719 424 b 382 -18 719 85 592 -18 b 90 75 243 -18 144 25 m 343 -303 b 274 -276 321 -321 260 -310 l 329 -126 b 403 -72 344 -92 354 -72 l 415 -72 b 478 -119 451 -72 478 -89 l 478 -122 b 435 -192 478 -140 460 -161 l 343 -303 "},"ẞ":{"ha":778,"x_min":0,"x_max":0,"o":"m 514 515 b 758 256 658 458 758 392 b 503 -18 758 97 669 -18 b 353 15 439 -18 385 -4 b 304 89 321 35 304 63 b 346 154 304 128 342 157 b 483 94 375 121 413 94 b 628 250 589 94 628 156 b 449 425 628 339 563 381 b 367 513 392 447 367 464 b 396 582 367 549 394 581 l 563 785 l 407 785 b 222 536 297 785 222 676 l 222 60 b 160 -6 222 14 197 -6 l 146 -6 b 85 60 110 -6 85 14 l 85 529 b 408 899 85 746 210 899 l 638 899 b 697 761 722 899 738 815 l 514 515 "},"Ə":{"ha":996,"x_min":0,"x_max":0,"o":"m 490 -18 b 61 386 232 -18 61 150 l 61 401 b 111 461 61 443 69 461 l 788 461 b 783 508 788 478 786 493 b 489 793 760 681 639 793 b 211 654 378 793 271 743 b 135 731 207 649 135 675 b 225 850 135 765 165 813 b 492 917 285 888 375 917 b 935 447 747 917 935 722 b 490 -18 935 174 753 -18 m 493 101 b 776 344 629 101 740 197 l 207 344 b 493 101 215 188 335 101 "},"T":{"ha":824,"x_min":0,"x_max":0,"o":"m 340 771 l 94 771 b 28 832 51 771 28 793 l 28 839 b 94 899 28 878 51 899 l 731 899 b 796 839 774 899 796 878 l 796 832 b 731 771 796 793 774 771 l 485 771 l 485 60 b 421 -6 485 17 463 -6 l 401 -6 b 340 60 361 -6 340 17 "},"Ŧ":{"ha":824,"x_min":0,"x_max":0,"o":"m 401 -6 b 340 60 361 -6 340 17 l 340 394 l 176 394 b 122 444 136 394 122 415 l 122 457 b 176 506 122 485 136 506 l 340 506 l 340 771 l 94 771 b 28 832 51 771 28 793 l 28 839 b 94 899 28 878 51 899 l 731 899 b 796 839 774 899 796 878 l 796 832 b 731 771 796 793 774 771 l 485 771 l 485 506 l 651 506 b 707 457 692 506 707 485 l 707 444 b 651 394 707 415 692 394 l 485 394 l 485 60 b 421 -6 485 17 463 -6 l 401 -6 "},"Ť":{"ha":824,"x_min":0,"x_max":0,"o":"m 411 961 b 206 1158 382 967 206 1083 b 253 1201 206 1185 226 1201 b 411 1063 293 1201 339 1160 b 567 1201 485 1160 526 1201 b 617 1158 593 1201 617 1185 b 411 961 617 1083 440 967 m 340 771 l 94 771 b 28 832 51 771 28 793 l 28 839 b 94 899 28 878 51 899 l 731 899 b 796 839 774 899 796 878 l 796 832 b 731 771 796 793 774 771 l 485 771 l 485 60 b 421 -6 485 17 463 -6 l 401 -6 b 340 60 361 -6 340 17 "},"U":{"ha":903,"x_min":0,"x_max":0,"o":"m 85 839 b 146 904 85 882 107 904 l 165 904 b 228 839 207 904 228 882 l 228 369 b 451 110 228 199 303 110 b 675 371 603 110 675 196 l 675 839 b 736 904 675 883 696 904 l 758 904 b 818 839 799 904 818 883 l 818 368 b 450 -17 818 118 689 -17 b 85 365 211 -17 85 115 "},"Ú":{"ha":903,"x_min":0,"x_max":0,"o":"m 353 975 b 342 982 347 975 342 976 b 556 1194 342 1006 451 1194 b 617 1135 594 1194 617 1169 b 353 975 617 1032 371 975 m 85 839 b 146 904 85 882 107 904 l 165 904 b 228 839 207 904 228 882 l 228 369 b 451 110 228 199 303 110 b 675 371 603 110 675 196 l 675 839 b 736 904 675 883 696 904 l 758 904 b 818 839 799 904 818 883 l 818 368 b 450 -17 818 118 689 -17 b 85 365 211 -17 85 115 "},"Ŭ":{"ha":903,"x_min":0,"x_max":0,"o":"m 451 967 b 256 1110 339 967 256 1019 b 331 1185 256 1144 276 1185 b 451 1081 342 1121 379 1081 b 574 1185 528 1081 563 1121 b 649 1110 628 1185 649 1144 b 451 967 649 1029 589 967 m 85 839 b 146 904 85 882 107 904 l 165 904 b 228 839 207 904 228 882 l 228 369 b 451 110 228 199 303 110 b 675 371 603 110 675 196 l 675 839 b 736 904 675 883 696 904 l 758 904 b 818 839 799 904 818 883 l 818 368 b 450 -17 818 118 689 -17 b 85 365 211 -17 85 115 "},"Û":{"ha":903,"x_min":0,"x_max":0,"o":"m 296 968 b 246 1011 269 968 246 985 b 451 1208 246 1086 422 1203 b 657 1011 481 1203 657 1086 b 610 968 657 985 636 968 b 451 1107 569 968 524 1010 b 296 968 378 1010 336 968 m 85 839 b 146 904 85 882 107 904 l 165 904 b 228 839 207 904 228 882 l 228 369 b 451 110 228 199 303 110 b 675 371 603 110 675 196 l 675 839 b 736 904 675 883 696 904 l 758 904 b 818 839 799 904 818 883 l 818 368 b 450 -17 818 118 689 -17 b 85 365 211 -17 85 115 "},"Ü":{"ha":903,"x_min":0,"x_max":0,"o":"m 319 985 b 242 1063 271 985 242 1013 b 318 1140 242 1114 271 1140 b 397 1063 369 1140 397 1114 b 319 985 397 1013 369 985 m 583 985 b 506 1063 535 985 506 1013 b 582 1140 506 1114 535 1140 b 661 1063 633 1140 661 1114 b 583 985 661 1013 633 985 m 85 839 b 146 904 85 882 107 904 l 165 904 b 228 839 207 904 228 882 l 228 369 b 451 110 228 199 303 110 b 675 371 603 110 675 196 l 675 839 b 736 904 675 883 696 904 l 758 904 b 818 839 799 904 818 883 l 818 368 b 450 -17 818 118 689 -17 b 85 365 211 -17 85 115 "},"Ù":{"ha":903,"x_min":0,"x_max":0,"o":"m 524 975 b 260 1135 506 975 260 1032 b 321 1194 260 1169 282 1194 b 535 982 425 1194 535 1006 b 524 975 535 976 529 975 m 85 839 b 146 904 85 882 107 904 l 165 904 b 228 839 207 904 228 882 l 228 369 b 451 110 228 199 303 110 b 675 371 603 110 675 196 l 675 839 b 736 904 675 883 696 904 l 758 904 b 818 839 799 904 818 883 l 818 368 b 450 -17 818 118 689 -17 b 85 365 211 -17 85 115 "},"Ű":{"ha":903,"x_min":0,"x_max":0,"o":"m 290 975 b 285 982 288 975 285 976 b 467 1194 285 1006 371 1194 b 524 1140 504 1194 524 1172 b 290 975 524 1042 307 975 m 546 975 b 540 982 543 975 540 976 b 722 1194 540 1006 626 1194 b 779 1140 760 1194 779 1172 b 546 975 779 1042 563 975 m 85 839 b 146 904 85 882 107 904 l 165 904 b 228 839 207 904 228 882 l 228 369 b 451 110 228 199 303 110 b 675 371 603 110 675 196 l 675 839 b 736 904 675 883 696 904 l 758 904 b 818 839 799 904 818 883 l 818 368 b 450 -17 818 118 689 -17 b 85 365 211 -17 85 115 "},"Ū":{"ha":903,"x_min":0,"x_max":0,"o":"m 296 1006 b 226 1060 251 1006 226 1024 l 226 1068 b 296 1119 226 1101 253 1119 l 607 1119 b 676 1068 651 1119 676 1101 l 676 1060 b 607 1006 676 1024 651 1006 l 296 1006 m 85 839 b 146 904 85 882 107 904 l 165 904 b 228 839 207 904 228 882 l 228 369 b 451 110 228 199 303 110 b 675 371 603 110 675 196 l 675 839 b 736 904 675 883 696 904 l 758 904 b 818 839 799 904 818 883 l 818 368 b 450 -17 818 118 689 -17 b 85 365 211 -17 85 115 "},"Ų":{"ha":903,"x_min":0,"x_max":0,"o":"m 613 -236 b 472 -118 528 -236 472 -192 b 518 -12 472 -82 488 -46 b 450 -17 497 -15 474 -17 b 85 365 211 -17 85 115 l 85 839 b 146 904 85 882 107 904 l 165 904 b 228 839 207 904 228 882 l 228 369 b 451 110 228 199 303 110 b 675 371 603 110 675 196 l 675 839 b 736 904 675 883 696 904 l 758 904 b 818 839 799 904 818 883 l 818 368 b 675 42 818 214 768 103 b 578 -92 600 -18 578 -58 b 624 -140 578 -121 597 -140 b 675 -112 647 -140 664 -131 b 721 -165 697 -114 721 -133 b 613 -236 721 -207 681 -236 "},"Ů":{"ha":903,"x_min":0,"x_max":0,"o":"m 451 965 b 282 1125 351 965 282 1033 b 453 1286 282 1217 354 1286 b 622 1125 553 1286 622 1218 b 451 965 622 1035 550 965 m 451 1040 b 540 1125 503 1040 540 1076 b 451 1211 540 1175 501 1211 b 364 1125 401 1211 364 1175 b 451 1040 364 1078 403 1040 m 85 839 b 146 904 85 882 107 904 l 165 904 b 228 839 207 904 228 882 l 228 369 b 451 110 228 199 303 110 b 675 371 603 110 675 196 l 675 839 b 736 904 675 883 696 904 l 758 904 b 818 839 799 904 818 883 l 818 368 b 450 -17 818 118 689 -17 b 85 365 211 -17 85 115 "},"Ũ":{"ha":903,"x_min":0,"x_max":0,"o":"m 275 993 b 242 1008 261 993 250 999 b 229 1050 233 1018 229 1032 b 347 1181 229 1101 267 1181 b 439 1150 376 1181 407 1169 b 542 1068 471 1131 504 1103 b 628 1172 557 1115 585 1172 b 661 1157 642 1172 653 1167 b 674 1114 669 1147 674 1133 b 554 985 674 1063 635 985 b 464 1014 525 985 494 994 b 361 1097 433 1033 399 1063 b 275 993 344 1050 318 993 m 85 839 b 146 904 85 882 107 904 l 165 904 b 228 839 207 904 228 882 l 228 369 b 451 110 228 199 303 110 b 675 371 603 110 675 196 l 675 839 b 736 904 675 883 696 904 l 758 904 b 818 839 799 904 818 883 l 818 368 b 450 -17 818 118 689 -17 b 85 365 211 -17 85 115 "},"V":{"ha":861,"x_min":0,"x_max":0,"o":"m 431 -8 b 343 46 379 -8 360 7 l 21 858 b 106 904 15 871 60 904 b 189 839 142 904 174 885 l 433 154 l 678 839 b 757 904 694 888 726 904 b 840 858 801 904 844 871 l 519 46 b 431 -8 504 8 483 -8 "},"W":{"ha":1285,"x_min":0,"x_max":0,"o":"m 374 -10 b 276 47 313 -10 286 4 l 67 864 b 151 904 65 871 96 904 b 235 821 189 904 221 882 l 381 160 l 551 725 b 646 790 563 768 590 790 b 740 725 701 790 726 768 l 908 163 l 1057 822 b 1136 904 1069 881 1096 904 b 1217 864 1189 904 1219 871 l 1010 47 b 913 -10 1000 6 974 -10 b 819 49 857 -10 832 7 l 646 629 l 464 49 b 374 -10 453 7 429 -10 "},"Ẃ":{"ha":1285,"x_min":0,"x_max":0,"o":"m 543 975 b 532 982 538 975 532 976 b 746 1194 532 1006 642 1194 b 807 1135 785 1194 807 1169 b 543 975 807 1032 561 975 m 374 -10 b 276 47 313 -10 286 4 l 67 864 b 151 904 65 871 96 904 b 235 821 189 904 221 882 l 381 160 l 551 725 b 646 790 563 768 590 790 b 740 725 701 790 726 768 l 908 163 l 1057 822 b 1136 904 1069 881 1096 904 b 1217 864 1189 904 1219 871 l 1010 47 b 913 -10 1000 6 974 -10 b 819 49 857 -10 832 7 l 646 629 l 464 49 b 374 -10 453 7 429 -10 "},"Ŵ":{"ha":1285,"x_min":0,"x_max":0,"o":"m 486 968 b 436 1011 460 968 436 985 b 642 1208 436 1086 613 1203 b 847 1011 671 1203 847 1086 b 800 968 847 985 826 968 b 642 1107 760 968 714 1010 b 486 968 568 1010 526 968 m 374 -10 b 276 47 313 -10 286 4 l 67 864 b 151 904 65 871 96 904 b 235 821 189 904 221 882 l 381 160 l 551 725 b 646 790 563 768 590 790 b 740 725 701 790 726 768 l 908 163 l 1057 822 b 1136 904 1069 881 1096 904 b 1217 864 1189 904 1219 871 l 1010 47 b 913 -10 1000 6 974 -10 b 819 49 857 -10 832 7 l 646 629 l 464 49 b 374 -10 453 7 429 -10 "},"Ẅ":{"ha":1285,"x_min":0,"x_max":0,"o":"m 510 985 b 432 1063 461 985 432 1013 b 508 1140 432 1114 461 1140 b 588 1063 560 1140 588 1114 b 510 985 588 1013 560 985 m 774 985 b 696 1063 725 985 696 1013 b 772 1140 696 1114 725 1140 b 851 1063 824 1140 851 1114 b 774 985 851 1013 824 985 m 374 -10 b 276 47 313 -10 286 4 l 67 864 b 151 904 65 871 96 904 b 235 821 189 904 221 882 l 381 160 l 551 725 b 646 790 563 768 590 790 b 740 725 701 790 726 768 l 908 163 l 1057 822 b 1136 904 1069 881 1096 904 b 1217 864 1189 904 1219 871 l 1010 47 b 913 -10 1000 6 974 -10 b 819 49 857 -10 832 7 l 646 629 l 464 49 b 374 -10 453 7 429 -10 "},"Ẁ":{"ha":1285,"x_min":0,"x_max":0,"o":"m 714 975 b 450 1135 696 975 450 1032 b 511 1194 450 1169 472 1194 b 725 982 615 1194 725 1006 b 714 975 725 976 719 975 m 374 -10 b 276 47 313 -10 286 4 l 67 864 b 151 904 65 871 96 904 b 235 821 189 904 221 882 l 381 160 l 551 725 b 646 790 563 768 590 790 b 740 725 701 790 726 768 l 908 163 l 1057 822 b 1136 904 1069 881 1096 904 b 1217 864 1189 904 1219 871 l 1010 47 b 913 -10 1000 6 974 -10 b 819 49 857 -10 832 7 l 646 629 l 464 49 b 374 -10 453 7 429 -10 "},"X":{"ha":842,"x_min":0,"x_max":0,"o":"m 328 451 l 40 844 b 125 904 33 854 72 904 b 204 857 154 904 183 890 l 424 538 l 651 858 b 725 907 674 893 700 907 b 806 847 774 907 813 857 l 513 450 l 806 56 b 722 -4 813 46 775 -4 b 643 43 694 -4 664 10 l 417 367 l 186 42 b 113 -7 163 4 138 -7 b 32 53 64 -7 25 43 "},"Y":{"ha":796,"x_min":0,"x_max":0,"o":"m 388 -6 b 326 60 347 -6 326 17 l 326 368 l 8 846 b 99 904 4 856 31 904 b 168 854 125 904 150 888 l 399 488 l 629 854 b 700 904 651 890 676 904 b 786 846 763 904 792 854 l 469 368 l 469 60 b 407 -6 469 17 449 -6 l 388 -6 "},"Ý":{"ha":796,"x_min":0,"x_max":0,"o":"m 299 975 b 288 982 293 975 288 976 b 501 1194 288 1006 397 1194 b 563 1135 540 1194 563 1169 b 299 975 563 1032 317 975 m 388 -6 b 326 60 347 -6 326 17 l 326 368 l 8 846 b 99 904 4 856 31 904 b 168 854 125 904 150 888 l 399 488 l 629 854 b 700 904 651 890 676 904 b 786 846 763 904 792 854 l 469 368 l 469 60 b 407 -6 469 17 449 -6 l 388 -6 "},"Ŷ":{"ha":796,"x_min":0,"x_max":0,"o":"m 242 968 b 192 1011 215 968 192 985 b 397 1208 192 1086 368 1203 b 603 1011 426 1203 603 1086 b 556 968 603 985 582 968 b 397 1107 515 968 469 1010 b 242 968 324 1010 282 968 m 388 -6 b 326 60 347 -6 326 17 l 326 368 l 8 846 b 99 904 4 856 31 904 b 168 854 125 904 150 888 l 399 488 l 629 854 b 700 904 651 890 676 904 b 786 846 763 904 792 854 l 469 368 l 469 60 b 407 -6 469 17 449 -6 l 388 -6 "},"Ÿ":{"ha":796,"x_min":0,"x_max":0,"o":"m 265 985 b 188 1063 217 985 188 1013 b 264 1140 188 1114 217 1140 b 343 1063 315 1140 343 1114 b 265 985 343 1013 315 985 m 529 985 b 451 1063 481 985 451 1013 b 528 1140 451 1114 481 1140 b 607 1063 579 1140 607 1114 b 529 985 607 1013 579 985 m 388 -6 b 326 60 347 -6 326 17 l 326 368 l 8 846 b 99 904 4 856 31 904 b 168 854 125 904 150 888 l 399 488 l 629 854 b 700 904 651 890 676 904 b 786 846 763 904 792 854 l 469 368 l 469 60 b 407 -6 469 17 449 -6 l 388 -6 "},"Ỳ":{"ha":796,"x_min":0,"x_max":0,"o":"m 469 975 b 206 1135 451 975 206 1032 b 267 1194 206 1169 228 1194 b 481 982 371 1194 481 1006 b 469 975 481 976 475 975 m 388 -6 b 326 60 347 -6 326 17 l 326 368 l 8 846 b 99 904 4 856 31 904 b 168 854 125 904 150 888 l 399 488 l 629 854 b 700 904 651 890 676 904 b 786 846 763 904 792 854 l 469 368 l 469 60 b 407 -6 469 17 449 -6 l 388 -6 "},"Z":{"ha":846,"x_min":0,"x_max":0,"o":"m 67 81 b 126 200 67 122 81 143 l 597 774 l 135 774 b 71 832 93 774 71 792 l 71 840 b 135 899 71 879 93 899 l 678 899 b 769 832 744 899 769 868 l 769 819 b 711 704 769 778 747 747 l 236 125 l 726 125 b 790 67 768 125 790 107 l 790 58 b 726 0 790 19 768 0 l 160 0 b 67 68 93 0 67 32 "},"Ź":{"ha":846,"x_min":0,"x_max":0,"o":"m 329 975 b 318 982 324 975 318 976 b 532 1194 318 1006 428 1194 b 593 1135 571 1194 593 1169 b 329 975 593 1032 347 975 m 67 81 b 126 200 67 122 81 143 l 597 774 l 135 774 b 71 832 93 774 71 792 l 71 840 b 135 899 71 879 93 899 l 678 899 b 769 832 744 899 769 868 l 769 819 b 711 704 769 778 747 747 l 236 125 l 726 125 b 790 67 768 125 790 107 l 790 58 b 726 0 790 19 768 0 l 160 0 b 67 68 93 0 67 32 "},"Ž":{"ha":846,"x_min":0,"x_max":0,"o":"m 428 961 b 222 1158 399 967 222 1083 b 269 1201 222 1185 243 1201 b 428 1063 310 1201 356 1160 b 583 1201 501 1160 543 1201 b 633 1158 610 1201 633 1185 b 428 961 633 1083 457 967 m 67 81 b 126 200 67 122 81 143 l 597 774 l 135 774 b 71 832 93 774 71 792 l 71 840 b 135 899 71 879 93 899 l 678 899 b 769 832 744 899 769 868 l 769 819 b 711 704 769 778 747 747 l 236 125 l 726 125 b 790 67 768 125 790 107 l 790 58 b 726 0 790 19 768 0 l 160 0 b 67 68 93 0 67 32 "},"Ż":{"ha":846,"x_min":0,"x_max":0,"o":"m 428 985 b 346 1064 376 985 346 1015 b 429 1144 346 1114 376 1144 b 510 1064 481 1144 510 1114 b 428 985 510 1014 481 985 m 67 81 b 126 200 67 122 81 143 l 597 774 l 135 774 b 71 832 93 774 71 792 l 71 840 b 135 899 71 879 93 899 l 678 899 b 769 832 744 899 769 868 l 769 819 b 711 704 769 778 747 747 l 236 125 l 726 125 b 790 67 768 125 790 107 l 790 58 b 726 0 790 19 768 0 l 160 0 b 67 68 93 0 67 32 "},"Ţ":{"ha":824,"x_min":0,"x_max":0,"o":"m 418 -293 b 275 -190 331 -293 275 -240 b 318 -143 275 -158 297 -146 b 407 -194 336 -167 365 -194 b 475 -132 443 -194 475 -172 b 378 -3 475 -82 424 -28 b 340 60 353 4 340 25 l 340 771 l 94 771 b 28 832 51 771 28 793 l 28 839 b 94 899 28 878 51 899 l 731 899 b 796 839 774 899 796 878 l 796 832 b 731 771 796 793 774 771 l 485 771 l 485 60 b 464 7 485 35 478 18 b 572 -158 538 -36 572 -96 b 418 -293 572 -251 494 -293 "},"Ț":{"ha":824,"x_min":0,"x_max":0,"o":"m 340 771 l 94 771 b 28 832 51 771 28 793 l 28 839 b 94 899 28 878 51 899 l 731 899 b 796 839 774 899 796 878 l 796 832 b 731 771 796 793 774 771 l 485 771 l 485 60 b 421 -6 485 17 463 -6 l 401 -6 b 340 60 361 -6 340 17 m 364 -303 b 294 -276 342 -321 281 -310 l 350 -126 b 424 -72 365 -92 375 -72 l 436 -72 b 499 -119 472 -72 499 -89 l 499 -122 b 456 -192 499 -140 481 -161 l 364 -303 "},"Ạ":{"ha":875,"x_min":0,"x_max":0,"o":"m 96 -7 b 18 36 54 -7 14 24 l 338 861 b 436 907 349 890 371 907 b 535 861 503 907 524 890 l 857 36 b 778 -7 861 25 821 -7 b 693 60 746 -7 713 8 l 614 264 l 254 264 l 175 58 b 96 -7 157 8 126 -7 m 578 379 l 433 760 l 289 379 m 438 -257 b 356 -178 386 -257 356 -226 b 438 -97 356 -128 385 -97 b 519 -178 489 -97 519 -128 b 438 -257 519 -228 490 -257 "},"Ẹ":{"ha":815,"x_min":0,"x_max":0,"o":"m 172 0 b 96 79 126 0 96 31 l 96 818 b 172 899 96 867 126 899 l 693 899 b 760 839 738 899 760 876 l 760 831 b 693 771 760 792 738 771 l 239 771 l 239 519 l 590 519 b 657 463 636 519 657 500 l 657 458 b 590 399 657 419 635 399 l 239 399 l 239 126 l 701 126 b 767 69 746 126 767 107 l 767 63 b 701 0 767 22 746 0 l 172 0 m 431 -257 b 349 -178 379 -257 349 -226 b 431 -97 349 -128 378 -97 b 513 -178 482 -97 513 -128 b 431 -257 513 -228 483 -257 "},"Ị":{"ha":360,"x_min":0,"x_max":0,"o":"m 108 839 b 169 904 108 882 129 904 l 189 904 b 251 839 231 904 251 882 l 251 60 b 189 -6 251 17 231 -6 l 169 -6 b 108 60 129 -6 108 17 m 179 -257 b 97 -178 128 -257 97 -226 b 179 -97 97 -128 126 -97 b 261 -178 231 -97 261 -128 b 179 -257 261 -228 232 -257 "},"Ỵ":{"ha":796,"x_min":0,"x_max":0,"o":"m 388 -6 b 326 60 347 -6 326 17 l 326 368 l 8 846 b 99 904 4 856 31 904 b 168 854 125 904 150 888 l 399 488 l 629 854 b 700 904 651 890 676 904 b 786 846 763 904 792 854 l 469 368 l 469 60 b 407 -6 469 17 449 -6 l 388 -6 m 397 -257 b 315 -178 346 -257 315 -226 b 397 -97 315 -128 344 -97 b 479 -178 449 -97 479 -128 b 397 -257 479 -228 450 -257 "},"Ỹ":{"ha":796,"x_min":0,"x_max":0,"o":"m 221 993 b 188 1008 207 993 196 999 b 175 1050 179 1018 175 1032 b 293 1181 175 1101 213 1181 b 385 1150 322 1181 353 1169 b 488 1068 417 1131 450 1103 b 574 1172 503 1115 531 1172 b 607 1157 588 1172 599 1167 b 619 1114 615 1147 619 1133 b 500 985 619 1063 581 985 b 410 1014 471 985 440 994 b 307 1097 379 1033 344 1063 b 221 993 290 1050 264 993 m 388 -6 b 326 60 347 -6 326 17 l 326 368 l 8 846 b 99 904 4 856 31 904 b 168 854 125 904 150 888 l 399 488 l 629 854 b 700 904 651 890 676 904 b 786 846 763 904 792 854 l 469 368 l 469 60 b 407 -6 469 17 449 -6 l 388 -6 "},"a":{"ha":726,"x_min":0,"x_max":0,"o":"m 46 175 b 494 401 46 329 193 396 l 513 401 l 513 415 b 347 572 513 517 454 572 b 156 458 246 572 186 519 b 71 525 156 457 71 458 b 117 608 71 550 86 581 b 357 685 163 650 243 685 b 649 418 546 685 649 588 l 649 8 b 599 -7 649 1 624 -7 b 519 54 561 -7 531 10 b 514 100 517 67 514 82 b 274 -15 463 28 375 -15 b 46 175 131 -15 46 61 m 513 315 l 475 314 b 181 181 281 307 181 271 b 307 83 181 121 228 83 b 513 264 426 83 513 158 "},"á":{"ha":726,"x_min":0,"x_max":0,"o":"m 250 771 b 239 778 244 771 239 772 b 443 1000 239 801 339 1000 b 503 938 482 1000 503 972 b 250 771 503 835 268 771 m 46 175 b 494 401 46 329 193 396 l 513 401 l 513 415 b 347 572 513 517 454 572 b 156 458 246 572 186 519 b 71 525 156 457 71 458 b 117 608 71 550 86 581 b 357 685 163 650 243 685 b 649 418 546 685 649 588 l 649 8 b 599 -7 649 1 624 -7 b 519 54 561 -7 531 10 b 514 100 517 67 514 82 b 274 -15 463 28 375 -15 b 46 175 131 -15 46 61 m 513 315 l 475 314 b 181 181 281 307 181 271 b 307 83 181 121 228 83 b 513 264 426 83 513 158 "},"ă":{"ha":726,"x_min":0,"x_max":0,"o":"m 357 764 b 168 907 249 764 168 817 b 243 982 168 942 189 982 b 357 878 254 918 289 878 b 471 982 428 878 460 918 b 546 907 525 982 546 942 b 357 764 546 826 489 764 m 46 175 b 494 401 46 329 193 396 l 513 401 l 513 415 b 347 572 513 517 454 572 b 156 458 246 572 186 519 b 71 525 156 457 71 458 b 117 608 71 550 86 581 b 357 685 163 650 243 685 b 649 418 546 685 649 588 l 649 8 b 599 -7 649 1 624 -7 b 519 54 561 -7 531 10 b 514 100 517 67 514 82 b 274 -15 463 28 375 -15 b 46 175 131 -15 46 61 m 513 315 l 475 314 b 181 181 281 307 181 271 b 307 83 181 121 228 83 b 513 264 426 83 513 158 "},"â":{"ha":726,"x_min":0,"x_max":0,"o":"m 208 771 b 158 815 182 771 158 789 b 357 1022 158 894 329 1017 b 556 815 385 1017 556 894 b 508 771 556 789 535 771 b 357 919 469 771 426 815 b 208 771 286 815 247 771 m 46 175 b 494 401 46 329 193 396 l 513 401 l 513 415 b 347 572 513 517 454 572 b 156 458 246 572 186 519 b 71 525 156 457 71 458 b 117 608 71 550 86 581 b 357 685 163 650 243 685 b 649 418 546 685 649 588 l 649 8 b 599 -7 649 1 624 -7 b 519 54 561 -7 531 10 b 514 100 517 67 514 82 b 274 -15 463 28 375 -15 b 46 175 131 -15 46 61 m 513 315 l 475 314 b 181 181 281 307 181 271 b 307 83 181 121 228 83 b 513 264 426 83 513 158 "},"ä":{"ha":726,"x_min":0,"x_max":0,"o":"m 232 803 b 154 881 183 803 154 831 b 231 958 154 932 183 958 b 310 881 282 958 310 932 b 232 803 310 831 282 803 m 482 803 b 404 881 433 803 404 831 b 481 958 404 932 433 958 b 560 881 532 958 560 932 b 482 803 560 831 532 803 m 46 175 b 494 401 46 329 193 396 l 513 401 l 513 415 b 347 572 513 517 454 572 b 156 458 246 572 186 519 b 71 525 156 457 71 458 b 117 608 71 550 86 581 b 357 685 163 650 243 685 b 649 418 546 685 649 588 l 649 8 b 599 -7 649 1 624 -7 b 519 54 561 -7 531 10 b 514 100 517 67 514 82 b 274 -15 463 28 375 -15 b 46 175 131 -15 46 61 m 513 315 l 475 314 b 181 181 281 307 181 271 b 307 83 181 121 228 83 b 513 264 426 83 513 158 "},"à":{"ha":726,"x_min":0,"x_max":0,"o":"m 464 771 b 211 938 446 771 211 835 b 271 1000 211 972 232 1000 b 475 778 375 1000 475 801 b 464 771 475 772 469 771 m 46 175 b 494 401 46 329 193 396 l 513 401 l 513 415 b 347 572 513 517 454 572 b 156 458 246 572 186 519 b 71 525 156 457 71 458 b 117 608 71 550 86 581 b 357 685 163 650 243 685 b 649 418 546 685 649 588 l 649 8 b 599 -7 649 1 624 -7 b 519 54 561 -7 531 10 b 514 100 517 67 514 82 b 274 -15 463 28 375 -15 b 46 175 131 -15 46 61 m 513 315 l 475 314 b 181 181 281 307 181 271 b 307 83 181 121 228 83 b 513 264 426 83 513 158 "},"ā":{"ha":726,"x_min":0,"x_max":0,"o":"m 222 814 b 153 868 178 814 153 832 l 153 876 b 222 928 153 910 179 928 l 492 928 b 561 876 536 928 561 910 l 561 868 b 492 814 561 832 536 814 l 222 814 m 46 175 b 494 401 46 329 193 396 l 513 401 l 513 415 b 347 572 513 517 454 572 b 156 458 246 572 186 519 b 71 525 156 457 71 458 b 117 608 71 550 86 581 b 357 685 163 650 243 685 b 649 418 546 685 649 588 l 649 8 b 599 -7 649 1 624 -7 b 519 54 561 -7 531 10 b 514 100 517 67 514 82 b 274 -15 463 28 375 -15 b 46 175 131 -15 46 61 m 513 315 l 475 314 b 181 181 281 307 181 271 b 307 83 181 121 228 83 b 513 264 426 83 513 158 "},"ą":{"ha":726,"x_min":0,"x_max":0,"o":"m 571 -282 b 431 -164 486 -282 431 -237 b 557 1 431 -104 472 -43 b 525 35 544 8 533 19 b 514 100 518 51 514 72 b 274 -15 463 28 375 -15 b 46 175 131 -15 46 61 b 494 401 46 329 193 396 l 513 401 l 513 415 b 347 572 513 517 454 572 b 156 458 246 572 186 519 b 71 525 156 457 71 458 b 115 608 71 550 86 581 b 357 685 161 650 243 685 b 649 418 546 685 649 588 l 649 8 b 639 0 649 6 644 3 b 536 -137 560 -62 536 -103 b 582 -186 536 -167 556 -186 b 633 -158 606 -186 622 -176 b 679 -211 656 -160 679 -179 b 571 -282 679 -253 639 -282 m 307 83 b 513 264 426 83 513 158 l 513 315 l 475 314 b 181 181 281 307 181 271 b 307 83 181 121 228 83 "},"å":{"ha":726,"x_min":0,"x_max":0,"o":"m 357 743 b 183 908 254 743 183 814 b 358 1075 183 1003 257 1075 b 531 908 461 1075 531 1004 b 357 743 531 815 458 743 m 357 818 b 449 908 411 818 449 857 b 357 1001 449 961 410 1001 b 265 908 304 1001 265 961 b 357 818 265 858 306 818 m 46 175 b 494 401 46 329 193 396 l 513 401 l 513 415 b 347 572 513 517 454 572 b 156 458 246 572 186 519 b 71 525 156 457 71 458 b 117 608 71 550 86 581 b 357 685 163 650 243 685 b 649 418 546 685 649 588 l 649 8 b 599 -7 649 1 624 -7 b 519 54 561 -7 531 10 b 514 100 517 67 514 82 b 274 -15 463 28 375 -15 b 46 175 131 -15 46 61 m 513 315 l 475 314 b 181 181 281 307 181 271 b 307 83 181 121 228 83 b 513 264 426 83 513 158 "},"ǻ":{"ha":726,"x_min":0,"x_max":0,"o":"m 358 758 b 192 924 260 758 192 829 b 306 1082 192 1000 238 1061 b 471 1261 321 1117 394 1210 b 538 1285 494 1276 517 1285 b 600 1231 572 1285 600 1263 b 542 1146 600 1200 581 1169 b 407 1085 497 1117 449 1097 b 526 924 479 1065 526 1003 b 358 758 526 831 456 758 m 358 833 b 444 924 408 833 444 872 b 358 1017 444 976 407 1017 b 274 924 310 1017 274 976 b 358 833 274 874 311 833 m 274 -15 b 46 175 131 -15 46 61 b 494 401 46 329 193 396 l 513 401 l 513 415 b 347 572 513 517 454 572 b 156 458 246 572 186 519 b 71 525 156 457 71 458 b 117 608 71 550 86 581 b 357 685 163 650 243 685 b 649 418 546 685 649 588 l 649 8 b 599 -7 649 1 624 -7 b 519 54 561 -7 531 10 b 514 100 517 67 514 82 b 274 -15 463 28 375 -15 m 307 83 b 513 264 426 83 513 158 l 513 315 l 475 314 b 181 181 281 307 181 271 b 307 83 181 121 228 83 "},"ã":{"ha":726,"x_min":0,"x_max":0,"o":"m 192 796 b 154 810 175 796 163 801 b 140 847 144 819 140 832 b 254 986 140 921 190 986 b 346 954 285 986 314 974 b 442 871 378 935 410 906 b 522 978 457 921 490 978 b 560 964 539 978 551 972 b 574 925 569 954 574 942 b 460 788 574 853 522 788 b 367 818 429 788 397 797 b 272 903 336 839 304 868 b 192 796 256 853 224 796 m 46 175 b 494 401 46 329 193 396 l 513 401 l 513 415 b 347 572 513 517 454 572 b 156 458 246 572 186 519 b 71 525 156 457 71 458 b 117 608 71 550 86 581 b 357 685 163 650 243 685 b 649 418 546 685 649 588 l 649 8 b 599 -7 649 1 624 -7 b 519 54 561 -7 531 10 b 514 100 517 67 514 82 b 274 -15 463 28 375 -15 b 46 175 131 -15 46 61 m 513 315 l 475 314 b 181 181 281 307 181 271 b 307 83 181 121 228 83 b 513 264 426 83 513 158 "},"æ":{"ha":1204,"x_min":0,"x_max":0,"o":"m 275 -15 b 46 175 132 -15 46 61 b 494 401 46 329 193 396 l 513 401 l 513 415 b 347 574 513 517 454 574 b 156 458 246 574 186 519 b 71 525 156 457 71 458 b 115 607 71 550 86 581 b 350 685 160 650 239 685 b 589 563 467 685 547 640 b 840 685 644 639 732 685 b 1163 349 1033 685 1163 549 l 1163 338 b 1121 297 1161 308 1151 297 l 626 297 b 632 258 628 283 629 271 b 854 90 657 157 742 90 b 1065 201 971 90 1029 142 b 1136 133 1067 204 1136 192 b 1104 69 1136 114 1125 92 b 851 -18 1063 25 975 -18 b 557 144 708 -18 607 42 b 275 -15 510 50 404 -15 m 1028 390 b 840 581 1021 506 950 581 b 629 390 729 581 646 501 m 307 83 b 513 264 426 83 513 158 l 513 315 l 475 314 b 181 181 281 307 181 271 b 307 83 181 121 228 83 "},"ǽ":{"ha":1204,"x_min":0,"x_max":0,"o":"m 497 771 b 486 778 492 771 486 772 b 690 1000 486 801 586 1000 b 750 938 729 1000 750 972 b 497 771 750 835 515 771 m 275 -15 b 46 175 132 -15 46 61 b 494 401 46 329 193 396 l 513 401 l 513 415 b 347 574 513 517 454 574 b 156 458 246 574 186 519 b 71 525 156 457 71 458 b 115 607 71 550 86 581 b 350 685 160 650 239 685 b 589 563 467 685 547 640 b 840 685 644 639 732 685 b 1163 349 1033 685 1163 549 l 1163 338 b 1121 297 1161 308 1151 297 l 626 297 b 632 258 628 283 629 271 b 854 90 657 157 742 90 b 1065 201 971 90 1029 142 b 1136 133 1067 204 1136 192 b 1104 69 1136 114 1125 92 b 851 -18 1063 25 975 -18 b 557 144 708 -18 607 42 b 275 -15 510 50 404 -15 m 1028 390 b 840 581 1021 506 950 581 b 629 390 729 581 646 501 m 307 83 b 513 264 426 83 513 158 l 513 315 l 475 314 b 181 181 281 307 181 271 b 307 83 181 121 228 83 "},"b":{"ha":813,"x_min":0,"x_max":0,"o":"m 221 60 b 161 -6 221 10 196 -6 l 146 -6 b 85 60 110 -6 85 10 l 85 939 b 135 954 85 943 107 954 b 222 836 176 954 222 932 l 222 564 b 456 685 275 639 351 685 b 768 335 635 685 768 547 b 451 -18 768 125 636 -18 b 221 100 339 -18 257 36 m 635 333 b 429 571 635 472 549 571 b 221 432 326 571 256 517 l 221 283 b 426 96 225 175 318 96 b 635 333 551 96 635 192 "},"":{"ha":813,"x_min":0,"x_max":0,"o":"m 221 100 b 451 -18 257 36 339 -18 b 768 335 636 -18 768 125 b 456 685 768 547 635 685 b 222 564 351 685 275 639 l 222 836 b 135 954 222 932 176 954 b 85 939 107 954 85 943 l 85 60 b 146 -6 85 10 110 -6 l 161 -6 b 221 60 196 -6 221 10 m 635 333 b 426 96 635 192 551 96 b 221 283 318 96 225 175 l 221 432 b 429 571 256 517 326 571 b 635 333 549 571 635 472 "},"c":{"ha":717,"x_min":0,"x_max":0,"o":"m 44 335 b 392 685 44 538 192 685 b 610 615 492 685 563 654 b 678 500 656 578 678 532 b 596 439 678 443 600 432 b 394 569 565 513 508 569 b 175 335 269 569 175 471 b 394 97 175 197 268 97 b 596 228 507 97 565 154 b 678 165 600 235 678 225 b 608 51 678 135 656 89 b 392 -18 563 13 490 -18 b 44 335 190 -18 44 129 "},"ć":{"ha":717,"x_min":0,"x_max":0,"o":"m 285 771 b 274 778 279 771 274 772 b 478 1000 274 801 374 1000 b 538 938 517 1000 538 972 b 285 771 538 835 303 771 m 44 335 b 392 685 44 538 192 685 b 610 615 492 685 563 654 b 678 500 656 578 678 532 b 596 439 678 443 600 432 b 394 569 565 513 508 569 b 175 335 269 569 175 471 b 394 97 175 197 268 97 b 596 228 507 97 565 154 b 678 165 600 235 678 225 b 608 51 678 135 656 89 b 392 -18 563 13 490 -18 b 44 335 190 -18 44 129 "},"č":{"ha":717,"x_min":0,"x_max":0,"o":"m 392 764 b 194 971 364 769 194 892 b 242 1017 194 997 215 1017 b 392 867 281 1017 322 971 b 542 1017 461 971 503 1017 b 589 971 568 1017 589 997 b 392 764 589 892 419 769 m 44 335 b 392 685 44 538 192 685 b 610 615 492 685 563 654 b 678 500 656 578 678 532 b 596 439 678 443 600 432 b 394 569 565 513 508 569 b 175 335 269 569 175 471 b 394 97 175 197 268 97 b 596 228 507 97 565 154 b 678 165 600 235 678 225 b 608 51 678 135 656 89 b 392 -18 563 13 490 -18 b 44 335 190 -18 44 129 "},"ç":{"ha":718,"x_min":0,"x_max":0,"o":"m 342 -311 b 193 -206 250 -311 193 -253 b 238 -150 193 -171 211 -154 b 326 -203 254 -165 285 -203 b 403 -135 368 -203 403 -183 b 292 -4 403 -87 343 -31 b 44 335 143 35 44 165 b 392 685 44 538 192 685 b 610 615 492 685 563 654 b 678 500 656 578 678 532 b 596 439 678 443 600 432 b 394 569 565 513 508 569 b 175 335 269 569 175 471 b 394 97 175 197 268 97 b 596 228 507 97 565 154 b 678 165 600 235 678 225 b 617 58 678 136 658 94 b 465 -11 582 26 532 0 b 426 -17 453 -14 440 -15 b 510 -171 469 -50 510 -101 b 342 -311 510 -269 425 -311 "},"ĉ":{"ha":717,"x_min":0,"x_max":0,"o":"m 243 771 b 193 815 217 771 193 789 b 392 1022 193 894 364 1017 b 590 815 419 1017 590 894 b 543 771 590 789 569 771 b 392 919 504 771 461 815 b 243 771 321 815 282 771 m 44 335 b 392 685 44 538 192 685 b 610 615 492 685 563 654 b 678 500 656 578 678 532 b 596 439 678 443 600 432 b 394 569 565 513 508 569 b 175 335 269 569 175 471 b 394 97 175 197 268 97 b 596 228 507 97 565 154 b 678 165 600 235 678 225 b 608 51 678 135 656 89 b 392 -18 563 13 490 -18 b 44 335 190 -18 44 129 "},"ċ":{"ha":717,"x_min":0,"x_max":0,"o":"m 390 803 b 308 882 339 803 308 833 b 392 963 308 932 339 963 b 472 882 443 963 472 932 b 390 803 472 832 443 803 m 44 335 b 392 685 44 538 192 685 b 610 615 492 685 563 654 b 678 500 656 578 678 532 b 596 439 678 443 600 432 b 394 569 565 513 508 569 b 175 335 269 569 175 471 b 394 97 175 197 268 97 b 596 228 507 97 565 154 b 678 165 600 235 678 225 b 608 51 678 135 656 89 b 392 -18 563 13 490 -18 b 44 335 190 -18 44 129 "},"d":{"ha":813,"x_min":0,"x_max":0,"o":"m 357 -18 b 44 333 178 -18 44 122 b 361 685 44 544 176 685 b 590 575 469 685 551 635 l 590 939 b 640 954 590 943 614 954 b 728 836 683 954 728 932 l 728 60 b 667 -6 728 10 703 -6 l 653 -6 b 592 60 617 -6 592 10 l 592 111 b 357 -18 539 31 463 -18 m 592 433 b 386 571 557 518 489 571 b 178 333 261 571 178 476 b 383 96 178 194 264 96 b 592 292 494 96 592 178 "},"ð":{"ha":806,"x_min":0,"x_max":0,"o":"m 569 838 b 751 393 674 742 751 594 b 392 -18 751 135 606 -18 b 53 304 189 -18 53 103 b 379 615 53 490 185 615 b 613 503 483 615 571 563 b 447 775 592 619 532 711 l 308 699 b 236 714 274 679 250 690 l 232 721 b 253 785 217 746 217 765 l 346 835 b 140 883 283 861 214 878 b 242 975 129 885 142 975 b 481 903 314 975 400 951 l 617 978 b 689 961 653 997 668 982 l 693 957 b 664 888 714 936 701 907 l 569 838 m 611 396 b 403 510 579 453 494 510 b 188 306 264 510 188 435 b 393 94 188 172 269 94 b 611 350 532 94 611 204 "},"ď":{"ha":900,"x_min":0,"x_max":0,"o":"m 832 721 b 799 763 810 721 799 735 l 799 867 b 856 956 799 932 801 956 l 868 956 b 917 867 917 956 931 926 l 892 763 b 857 721 885 733 879 721 l 832 721 m 357 -18 b 44 333 178 -18 44 122 b 361 685 44 544 176 685 b 590 575 469 685 551 635 l 590 939 b 640 954 590 943 614 954 b 728 836 683 954 728 932 l 728 60 b 667 -6 728 10 703 -6 l 653 -6 b 592 60 617 -6 592 10 l 592 111 b 357 -18 539 31 463 -18 m 383 96 b 592 292 494 96 592 178 l 592 433 b 386 571 557 518 489 571 b 178 333 261 571 178 476 b 383 96 178 194 264 96 "},"đ":{"ha":813,"x_min":0,"x_max":0,"o":"m 357 -18 b 44 333 178 -18 44 122 b 361 685 44 544 176 685 b 590 575 469 685 551 635 l 590 747 l 475 747 b 421 786 440 747 421 760 l 421 796 b 475 836 421 824 440 836 l 590 836 l 590 939 b 640 954 590 943 614 954 b 717 903 671 954 701 943 b 728 836 724 886 728 864 l 779 836 b 833 796 814 836 833 824 l 833 786 b 779 747 833 760 813 747 l 728 747 l 728 60 b 667 -6 728 10 703 -6 l 653 -6 b 592 60 617 -6 592 10 l 592 111 b 357 -18 539 31 463 -18 m 383 96 b 592 292 494 96 592 178 l 592 433 b 386 571 557 518 489 571 b 178 333 261 571 178 476 b 383 96 178 194 264 96 "},"e":{"ha":750,"x_min":0,"x_max":0,"o":"m 44 331 b 386 685 44 533 189 685 b 707 349 579 685 707 549 l 707 338 b 665 297 707 308 697 297 l 172 297 b 175 272 172 289 174 281 b 400 90 194 163 282 90 b 610 201 517 90 575 142 b 682 133 613 204 682 192 b 608 36 682 104 657 67 b 397 -18 560 6 489 -18 b 44 331 186 -18 44 122 m 574 390 b 385 581 567 506 496 581 b 174 390 275 581 190 501 l 574 390 "},"é":{"ha":750,"x_min":0,"x_max":0,"o":"m 268 771 b 257 778 263 771 257 772 b 461 1000 257 801 357 1000 b 521 938 500 1000 521 972 b 268 771 521 835 286 771 m 44 331 b 386 685 44 533 189 685 b 707 349 579 685 707 549 l 707 338 b 665 297 707 308 697 297 l 172 297 b 175 272 172 289 174 281 b 400 90 194 163 282 90 b 610 201 517 90 575 142 b 682 133 613 204 682 192 b 608 36 682 104 657 67 b 397 -18 560 6 489 -18 b 44 331 186 -18 44 122 m 574 390 b 385 581 567 506 496 581 b 174 390 275 581 190 501 l 574 390 "},"ĕ":{"ha":750,"x_min":0,"x_max":0,"o":"m 375 764 b 186 907 267 764 186 817 b 261 982 186 942 207 982 b 375 878 272 918 307 878 b 489 982 446 878 478 918 b 564 907 543 982 564 942 b 375 764 564 826 507 764 m 44 331 b 386 685 44 533 189 685 b 707 349 579 685 707 549 l 707 338 b 665 297 707 308 697 297 l 172 297 b 175 272 172 289 174 281 b 400 90 194 163 282 90 b 610 201 517 90 575 142 b 682 133 613 204 682 192 b 608 36 682 104 657 67 b 397 -18 560 6 489 -18 b 44 331 186 -18 44 122 m 574 390 b 385 581 567 506 496 581 b 174 390 275 581 190 501 l 574 390 "},"ě":{"ha":750,"x_min":0,"x_max":0,"o":"m 375 764 b 178 971 347 769 178 892 b 225 1017 178 997 199 1017 b 375 867 264 1017 306 971 b 525 1017 444 971 486 1017 b 572 971 551 1017 572 997 b 375 764 572 892 403 769 m 44 331 b 386 685 44 533 189 685 b 707 349 579 685 707 549 l 707 338 b 665 297 707 308 697 297 l 172 297 b 175 272 172 289 174 281 b 400 90 194 163 282 90 b 610 201 517 90 575 142 b 682 133 613 204 682 192 b 608 36 682 104 657 67 b 397 -18 560 6 489 -18 b 44 331 186 -18 44 122 m 574 390 b 385 581 567 506 496 581 b 174 390 275 581 190 501 l 574 390 "},"ê":{"ha":750,"x_min":0,"x_max":0,"o":"m 226 771 b 176 815 200 771 176 789 b 375 1022 176 894 347 1017 b 574 815 403 1017 574 894 b 526 771 574 789 553 771 b 375 919 488 771 444 815 b 226 771 304 815 265 771 m 44 331 b 386 685 44 533 189 685 b 707 349 579 685 707 549 l 707 338 b 665 297 707 308 697 297 l 172 297 b 175 272 172 289 174 281 b 400 90 194 163 282 90 b 610 201 517 90 575 142 b 682 133 613 204 682 192 b 608 36 682 104 657 67 b 397 -18 560 6 489 -18 b 44 331 186 -18 44 122 m 574 390 b 385 581 567 506 496 581 b 174 390 275 581 190 501 l 574 390 "},"ë":{"ha":750,"x_min":0,"x_max":0,"o":"m 250 803 b 172 881 201 803 172 831 b 249 958 172 932 201 958 b 328 881 300 958 328 932 b 250 803 328 831 300 803 m 500 803 b 422 881 451 803 422 831 b 499 958 422 932 451 958 b 578 881 550 958 578 932 b 500 803 578 831 550 803 m 44 331 b 386 685 44 533 189 685 b 707 349 579 685 707 549 l 707 338 b 665 297 707 308 697 297 l 172 297 b 175 272 172 289 174 281 b 400 90 194 163 282 90 b 610 201 517 90 575 142 b 682 133 613 204 682 192 b 608 36 682 104 657 67 b 397 -18 560 6 489 -18 b 44 331 186 -18 44 122 m 574 390 b 385 581 567 506 496 581 b 174 390 275 581 190 501 l 574 390 "},"ė":{"ha":750,"x_min":0,"x_max":0,"o":"m 374 803 b 292 882 322 803 292 833 b 375 963 292 932 322 963 b 456 882 426 963 456 932 b 374 803 456 832 426 803 m 44 331 b 386 685 44 533 189 685 b 707 349 579 685 707 549 l 707 338 b 665 297 707 308 697 297 l 172 297 b 175 272 172 289 174 281 b 400 90 194 163 282 90 b 610 201 517 90 575 142 b 682 133 613 204 682 192 b 608 36 682 104 657 67 b 397 -18 560 6 489 -18 b 44 331 186 -18 44 122 m 574 390 b 385 581 567 506 496 581 b 174 390 275 581 190 501 l 574 390 "},"è":{"ha":750,"x_min":0,"x_max":0,"o":"m 482 771 b 229 938 464 771 229 835 b 289 1000 229 972 250 1000 b 493 778 393 1000 493 801 b 482 771 493 772 488 771 m 44 331 b 386 685 44 533 189 685 b 707 349 579 685 707 549 l 707 338 b 665 297 707 308 697 297 l 172 297 b 175 272 172 289 174 281 b 400 90 194 163 282 90 b 610 201 517 90 575 142 b 682 133 613 204 682 192 b 608 36 682 104 657 67 b 397 -18 560 6 489 -18 b 44 331 186 -18 44 122 m 574 390 b 385 581 567 506 496 581 b 174 390 275 581 190 501 l 574 390 "},"ē":{"ha":750,"x_min":0,"x_max":0,"o":"m 240 814 b 171 868 196 814 171 832 l 171 876 b 240 928 171 910 197 928 l 510 928 b 579 876 554 928 579 910 l 579 868 b 510 814 579 832 554 814 l 240 814 m 44 331 b 386 685 44 533 189 685 b 707 349 579 685 707 549 l 707 338 b 665 297 707 308 697 297 l 172 297 b 175 272 172 289 174 281 b 400 90 194 163 282 90 b 610 201 517 90 575 142 b 682 133 613 204 682 192 b 608 36 682 104 657 67 b 397 -18 560 6 489 -18 b 44 331 186 -18 44 122 m 574 390 b 385 581 567 506 496 581 b 174 390 275 581 190 501 l 574 390 "},"ę":{"ha":750,"x_min":0,"x_max":0,"o":"m 518 -257 b 378 -139 433 -257 378 -212 b 442 -15 378 -97 399 -53 b 397 -18 426 -17 413 -18 b 44 331 186 -18 44 122 b 386 685 44 533 189 685 b 707 349 579 685 707 549 l 707 338 b 665 297 707 308 697 297 l 172 297 b 179 253 174 282 176 267 b 400 90 206 154 289 90 b 610 201 517 90 575 142 b 682 133 613 204 682 192 b 656 76 682 117 674 96 b 581 19 639 56 614 36 b 483 -112 506 -40 483 -79 b 529 -161 483 -142 503 -161 b 581 -133 553 -161 569 -151 b 626 -186 603 -135 626 -154 b 518 -257 626 -228 586 -257 m 574 390 b 385 581 567 506 496 581 b 174 390 275 581 190 501 "},"ə":{"ha":750,"x_min":0,"x_max":0,"o":"m 364 -18 b 43 318 171 -18 43 118 l 43 329 b 85 369 43 358 53 369 l 578 369 b 575 394 578 378 576 386 b 350 576 556 504 468 576 b 140 465 233 576 175 525 b 68 533 138 463 68 475 b 142 631 68 563 94 600 b 353 685 190 661 263 685 b 706 336 564 685 706 544 b 364 -18 706 133 561 -18 m 365 86 b 576 276 475 86 560 165 l 176 276 b 365 86 183 161 254 86 "},"f":{"ha":490,"x_min":0,"x_max":0,"o":"m 150 556 l 72 556 b 11 608 28 556 11 574 l 11 618 b 72 668 11 651 28 668 l 150 668 l 150 718 b 363 964 150 886 229 964 b 476 936 414 964 451 953 b 513 874 501 919 513 897 b 479 814 513 835 482 811 b 379 853 460 833 421 853 b 283 717 313 853 283 811 l 283 668 l 396 668 b 457 617 440 668 457 650 l 457 607 b 396 556 457 574 440 556 l 286 556 l 286 60 b 226 -6 286 10 263 -6 l 213 -6 b 150 60 176 -6 150 10 "},"g":{"ha":679,"x_min":0,"x_max":0,"o":"m 326 -293 b -3 -108 101 -293 -3 -233 b 210 75 -3 -11 89 54 b 183 138 193 89 183 110 b 221 210 183 165 199 190 b 46 432 114 243 46 328 b 332 685 46 572 167 685 b 492 644 390 685 446 669 l 528 708 b 607 761 550 744 572 761 b 678 703 658 761 682 706 l 564 585 b 622 436 600 543 622 492 b 333 193 622 296 503 193 l 308 193 b 301 169 303 185 301 178 b 482 93 301 126 365 122 b 676 -89 576 68 676 21 b 326 -293 676 -215 547 -293 m 333 283 b 489 435 425 283 489 344 b 331 586 489 524 425 586 b 176 435 240 586 176 525 b 333 283 176 344 242 283 m 329 -197 b 543 -93 464 -197 543 -160 b 407 -3 543 -40 481 -21 l 338 14 b 129 -104 224 7 129 -33 b 329 -197 129 -164 197 -197 "},"ğ":{"ha":679,"x_min":0,"x_max":0,"o":"m 332 764 b 143 907 224 764 143 817 b 218 982 143 942 164 982 b 332 878 229 918 264 878 b 446 982 403 878 435 918 b 521 907 500 982 521 942 b 332 764 521 826 464 764 m 326 -293 b -3 -108 101 -293 -3 -233 b 210 75 -3 -11 89 54 b 183 138 193 89 183 110 b 221 210 183 165 199 190 b 46 432 114 243 46 328 b 332 685 46 572 167 685 b 492 644 390 685 446 669 l 528 708 b 607 761 550 744 572 761 b 678 703 658 761 682 706 l 564 585 b 622 436 600 543 622 492 b 333 193 622 296 503 193 l 308 193 b 301 169 303 185 301 178 b 482 93 301 126 365 122 b 676 -89 576 68 676 21 b 326 -293 676 -215 547 -293 m 333 283 b 489 435 425 283 489 344 b 331 586 489 524 425 586 b 176 435 240 586 176 525 b 333 283 176 344 242 283 m 329 -197 b 543 -93 464 -197 543 -160 b 407 -3 543 -40 481 -21 l 338 14 b 129 -104 224 7 129 -33 b 329 -197 129 -164 197 -197 "},"ĝ":{"ha":679,"x_min":0,"x_max":0,"o":"m 183 771 b 133 815 157 771 133 789 b 332 1022 133 894 304 1017 b 531 815 360 1017 531 894 b 483 771 531 789 510 771 b 332 919 444 771 401 815 b 183 771 261 815 222 771 m 326 -293 b -3 -108 101 -293 -3 -233 b 210 75 -3 -11 89 54 b 183 138 193 89 183 110 b 221 210 183 165 199 190 b 46 432 114 243 46 328 b 332 685 46 572 167 685 b 492 644 390 685 446 669 l 528 708 b 607 761 550 744 572 761 b 678 703 658 761 682 706 l 564 585 b 622 436 600 543 622 492 b 333 193 622 296 503 193 l 308 193 b 301 169 303 185 301 178 b 482 93 301 126 365 122 b 676 -89 576 68 676 21 b 326 -293 676 -215 547 -293 m 333 283 b 489 435 425 283 489 344 b 331 586 489 524 425 586 b 176 435 240 586 176 525 b 333 283 176 344 242 283 m 329 -197 b 543 -93 464 -197 543 -160 b 407 -3 543 -40 481 -21 l 338 14 b 129 -104 224 7 129 -33 b 329 -197 129 -164 197 -197 "},"ģ":{"ha":679,"x_min":0,"x_max":0,"o":"m 319 771 b 257 818 283 771 257 788 l 257 821 b 300 890 257 839 275 860 l 392 1001 b 461 975 414 1019 475 1008 l 406 825 b 332 771 390 790 381 771 l 319 771 m 326 -293 b -3 -108 101 -293 -3 -233 b 210 75 -3 -11 89 54 b 183 138 193 89 183 110 b 221 210 183 165 199 190 b 46 432 114 243 46 328 b 332 685 46 572 167 685 b 492 644 390 685 446 669 l 528 708 b 607 761 550 744 572 761 b 678 703 658 761 682 706 l 564 585 b 622 436 600 543 622 492 b 333 193 622 296 503 193 l 308 193 b 301 169 303 185 301 178 b 482 93 301 126 365 122 b 676 -89 576 68 676 21 b 326 -293 676 -215 547 -293 m 333 283 b 489 435 425 283 489 344 b 331 586 489 524 425 586 b 176 435 240 586 176 525 b 333 283 176 344 242 283 m 329 -197 b 543 -93 464 -197 543 -160 b 407 -3 543 -40 481 -21 l 338 14 b 129 -104 224 7 129 -33 b 329 -197 129 -164 197 -197 "},"ġ":{"ha":679,"x_min":0,"x_max":0,"o":"m 331 803 b 249 882 279 803 249 833 b 332 963 249 932 279 963 b 413 882 383 963 413 932 b 331 803 413 832 383 803 m 326 -293 b -3 -108 101 -293 -3 -233 b 210 75 -3 -11 89 54 b 183 138 193 89 183 110 b 221 210 183 165 199 190 b 46 432 114 243 46 328 b 332 685 46 572 167 685 b 492 644 390 685 446 669 l 528 708 b 607 761 550 744 572 761 b 678 703 658 761 682 706 l 564 585 b 622 436 600 543 622 492 b 333 193 622 296 503 193 l 308 193 b 301 169 303 185 301 178 b 482 93 301 126 365 122 b 676 -89 576 68 676 21 b 326 -293 676 -215 547 -293 m 333 283 b 489 435 425 283 489 344 b 331 586 489 524 425 586 b 176 435 240 586 176 525 b 333 283 176 344 242 283 m 329 -197 b 543 -93 464 -197 543 -160 b 407 -3 543 -40 481 -21 l 338 14 b 129 -104 224 7 129 -33 b 329 -197 129 -164 197 -197 "},"h":{"ha":779,"x_min":0,"x_max":0,"o":"m 443 685 b 701 396 619 685 701 563 l 701 60 b 640 -6 701 10 675 -6 l 625 -6 b 564 60 589 -6 564 10 l 564 381 b 410 564 564 496 506 564 b 222 368 296 564 222 489 l 222 60 b 161 -6 222 10 196 -6 l 146 -6 b 85 60 110 -6 85 10 l 85 939 b 135 954 85 943 107 954 b 222 836 176 954 222 932 l 222 563 b 443 685 271 636 340 685 "},"ħ":{"ha":779,"x_min":0,"x_max":0,"o":"m 443 685 b 701 396 619 685 701 563 l 701 60 b 640 -6 701 10 675 -6 l 625 -6 b 564 60 589 -6 564 10 l 564 381 b 410 564 564 496 506 564 b 222 368 296 564 222 489 l 222 60 b 161 -6 222 10 196 -6 l 146 -6 b 85 60 110 -6 85 10 l 85 747 l 33 747 b -21 788 -1 747 -21 760 l -21 797 b 33 836 -21 824 0 836 l 85 836 l 85 939 b 135 954 85 943 107 954 b 222 853 174 954 217 935 l 222 836 l 338 836 b 392 797 372 836 392 824 l 392 788 b 338 747 392 760 372 747 l 222 747 l 222 564 b 443 685 267 635 339 685 "},"ĥ":{"ha":779,"x_min":0,"x_max":0,"o":"m 303 968 b 144 1107 263 968 217 1010 b -11 968 71 1010 29 968 b -61 1011 -37 968 -61 985 b 144 1208 -61 1086 115 1203 b 350 1011 174 1203 350 1086 b 303 968 350 985 329 968 m 443 685 b 701 396 619 685 701 563 l 701 60 b 640 -6 701 10 675 -6 l 625 -6 b 564 60 589 -6 564 10 l 564 381 b 410 564 564 496 506 564 b 222 368 296 564 222 489 l 222 60 b 161 -6 222 10 196 -6 l 146 -6 b 85 60 110 -6 85 10 l 85 939 b 135 954 85 943 107 954 b 222 836 176 954 222 932 l 222 563 b 443 685 271 636 340 685 "},"i":{"ha":319,"x_min":0,"x_max":0,"o":"m 79 882 b 163 963 79 932 110 963 b 243 882 214 963 243 932 b 161 803 243 832 214 803 b 79 882 110 803 79 833 m 90 608 b 153 675 90 658 117 675 l 167 675 b 228 608 203 675 228 660 l 228 60 b 167 -6 228 10 203 -6 l 153 -6 b 90 60 117 -6 90 10 "},"ı":{"ha":319,"x_min":0,"x_max":0,"o":"m 153 -6 b 90 60 117 -6 90 10 l 90 608 b 153 675 90 658 117 675 l 167 675 b 228 608 203 675 228 660 l 228 60 b 167 -6 228 10 203 -6 l 153 -6 "},"í":{"ha":319,"x_min":0,"x_max":0,"o":"m 51 771 b 40 778 46 771 40 772 b 244 1000 40 801 140 1000 b 304 938 283 1000 304 972 b 51 771 304 835 69 771 m 153 -6 b 90 60 117 -6 90 10 l 90 608 b 153 675 90 658 117 675 l 167 675 b 228 608 203 675 228 660 l 228 60 b 167 -6 228 10 203 -6 l 153 -6 "},"ĭ":{"ha":319,"x_min":0,"x_max":0,"o":"m 158 764 b -31 907 50 764 -31 817 b 44 982 -31 942 -10 982 b 158 878 56 918 90 878 b 272 982 229 878 261 918 b 347 907 326 982 347 942 b 158 764 347 826 290 764 m 153 -6 b 90 60 117 -6 90 10 l 90 608 b 153 675 90 658 117 675 l 167 675 b 228 608 203 675 228 660 l 228 60 b 167 -6 228 10 203 -6 l 153 -6 "},"î":{"ha":319,"x_min":0,"x_max":0,"o":"m 10 771 b -40 815 -17 771 -40 789 b 158 1022 -40 894 131 1017 b 357 815 186 1017 357 894 b 310 771 357 789 336 771 b 158 919 271 771 228 815 b 10 771 88 815 49 771 m 153 -6 b 90 60 117 -6 90 10 l 90 608 b 153 675 90 658 117 675 l 167 675 b 228 608 203 675 228 660 l 228 60 b 167 -6 228 10 203 -6 l 153 -6 "},"ï":{"ha":319,"x_min":0,"x_max":0,"o":"m 33 803 b -44 881 -15 803 -44 831 b 32 958 -44 932 -15 958 b 111 881 83 958 111 932 b 33 803 111 831 83 803 m 283 803 b 206 881 235 803 206 831 b 282 958 206 932 235 958 b 361 881 333 958 361 932 b 283 803 361 831 333 803 m 153 -6 b 90 60 117 -6 90 10 l 90 608 b 153 675 90 658 117 675 l 167 675 b 228 608 203 675 228 660 l 228 60 b 167 -6 228 10 203 -6 l 153 -6 "},"ì":{"ha":319,"x_min":0,"x_max":0,"o":"m 265 771 b 13 938 247 771 13 835 b 72 1000 13 972 33 1000 b 276 778 176 1000 276 801 b 265 771 276 772 271 771 m 153 -6 b 90 60 117 -6 90 10 l 90 608 b 153 675 90 658 117 675 l 167 675 b 228 608 203 675 228 660 l 228 60 b 167 -6 228 10 203 -6 l 153 -6 "},"ĳ":{"ha":639,"x_min":0,"x_max":0,"o":"m 79 882 b 163 963 79 932 110 963 b 243 882 214 963 243 932 b 161 803 243 832 214 803 b 79 882 110 803 79 833 m 399 882 b 482 963 399 932 429 963 b 563 882 533 963 563 932 b 481 803 563 832 533 803 b 399 882 429 803 399 833 m 90 608 b 153 675 90 658 117 675 l 167 675 b 228 608 203 675 228 660 l 228 60 b 167 -6 228 10 203 -6 l 153 -6 b 90 60 117 -6 90 10 m 226 -239 b 206 -189 213 -225 206 -208 b 238 -125 206 -151 235 -122 b 326 -164 257 -144 288 -164 b 410 -57 386 -164 410 -132 l 410 608 b 472 675 410 658 436 675 l 486 675 b 547 608 522 675 547 660 l 547 -65 b 347 -278 547 -201 478 -278 b 226 -239 292 -278 250 -262 "},"ī":{"ha":319,"x_min":0,"x_max":0,"o":"m 24 814 b -46 868 -21 814 -46 832 l -46 876 b 24 928 -46 910 -19 928 l 293 928 b 363 876 338 928 363 910 l 363 868 b 293 814 363 832 338 814 l 24 814 m 153 -6 b 90 60 117 -6 90 10 l 90 608 b 153 675 90 658 117 675 l 167 675 b 228 608 203 675 228 660 l 228 60 b 167 -6 228 10 203 -6 l 153 -6 "},"į":{"ha":319,"x_min":0,"x_max":0,"o":"m 160 811 b 78 888 108 811 78 839 b 161 965 78 938 108 965 b 242 888 213 965 242 938 b 160 811 242 838 213 811 m 136 -279 b -4 -161 51 -279 -4 -235 b 117 1 -4 -103 36 -43 b 90 60 100 11 90 28 l 90 608 b 153 675 90 658 117 675 l 167 675 b 228 608 203 675 228 660 l 228 60 b 210 7 228 33 221 17 b 101 -135 126 -58 101 -100 b 147 -183 101 -164 121 -183 b 199 -156 171 -183 188 -174 b 244 -208 221 -157 244 -176 b 136 -279 244 -250 204 -279 "},"ĩ":{"ha":319,"x_min":0,"x_max":0,"o":"m -7 796 b -44 810 -24 796 -36 801 b -58 847 -54 819 -58 832 b 56 986 -58 921 -8 986 b 147 954 86 986 117 975 b 243 871 179 935 211 906 b 324 978 258 921 292 978 b 361 964 340 978 353 972 b 375 925 371 954 375 942 b 261 788 375 853 324 788 b 168 818 231 788 200 799 b 74 903 138 839 106 868 b -7 796 57 853 25 796 m 153 -6 b 90 60 117 -6 90 10 l 90 608 b 153 675 90 658 117 675 l 167 675 b 228 608 203 675 228 660 l 228 60 b 167 -6 228 10 203 -6 l 153 -6 "},"j":{"ha":319,"x_min":0,"x_max":0,"o":"m 79 882 b 163 963 79 932 110 963 b 243 882 214 963 243 932 b 161 803 243 832 214 803 b 79 882 110 803 79 833 m -93 -239 b -114 -189 -107 -225 -114 -208 b -82 -125 -114 -151 -85 -122 b 7 -164 -62 -144 -32 -164 b 90 -57 67 -164 90 -132 l 90 608 b 153 675 90 658 117 675 l 167 675 b 228 608 203 675 228 660 l 228 -65 b 28 -278 228 -201 158 -278 b -93 -239 -28 -278 -69 -262 "},"ȷ":{"ha":319,"x_min":0,"x_max":0,"o":"m 28 -278 b -93 -239 -28 -278 -69 -262 b -114 -189 -107 -225 -114 -208 b -82 -125 -114 -151 -85 -122 b 7 -164 -62 -144 -32 -164 b 90 -57 67 -164 90 -132 l 90 608 b 153 675 90 658 117 675 l 167 675 b 228 608 203 675 228 660 l 228 -65 b 28 -278 228 -201 158 -278 "},"ĵ":{"ha":319,"x_min":0,"x_max":0,"o":"m 11 771 b -39 815 -15 771 -39 789 b 160 1022 -39 894 132 1017 b 358 815 188 1017 358 894 b 311 771 358 789 338 771 b 160 919 272 771 229 815 b 11 771 89 815 50 771 m 28 -278 b -93 -239 -28 -278 -69 -262 b -114 -189 -107 -225 -114 -208 b -82 -125 -114 -151 -85 -122 b 7 -164 -62 -144 -32 -164 b 90 -57 67 -164 90 -132 l 90 608 b 153 675 90 658 117 675 l 167 675 b 228 608 203 675 228 660 l 228 -65 b 28 -278 228 -201 158 -278 "},"k":{"ha":658,"x_min":0,"x_max":0,"o":"m 85 939 b 135 954 85 943 107 954 b 222 836 176 954 222 932 l 222 368 l 454 628 b 536 675 482 663 511 675 b 607 621 585 675 613 628 l 364 353 l 644 49 b 569 -7 649 42 618 -7 b 488 40 543 -7 517 4 l 222 326 l 222 60 b 161 -6 222 10 196 -6 l 146 -6 b 85 60 110 -6 85 10 "},"ķ":{"ha":658,"x_min":0,"x_max":0,"o":"m 85 939 b 135 954 85 943 107 954 b 222 836 176 954 222 932 l 222 368 l 454 628 b 536 675 482 663 511 675 b 607 621 585 675 613 628 l 364 353 l 644 49 b 569 -7 649 42 618 -7 b 488 40 543 -7 517 4 l 222 326 l 222 60 b 161 -6 222 10 196 -6 l 146 -6 b 85 60 110 -6 85 10 m 292 -303 b 222 -276 269 -321 208 -310 l 278 -126 b 351 -72 293 -92 303 -72 l 364 -72 b 426 -119 400 -72 426 -89 l 426 -122 b 383 -192 426 -140 408 -161 l 292 -303 "},"ĸ":{"ha":658,"x_min":0,"x_max":0,"o":"m 569 -7 b 488 40 543 -7 517 4 l 222 326 l 222 60 b 161 -6 222 10 196 -6 l 146 -6 b 85 60 110 -6 85 10 l 85 660 b 135 675 85 664 107 675 b 222 557 176 675 222 653 l 222 368 l 454 628 b 536 675 482 663 511 675 b 607 621 585 675 613 628 l 364 353 l 644 49 b 569 -7 649 42 618 -7 "},"l":{"ha":319,"x_min":0,"x_max":0,"o":"m 153 -6 b 90 60 117 -6 90 10 l 90 939 b 140 954 90 943 114 954 b 228 836 183 954 228 932 l 228 60 b 167 -6 228 10 203 -6 l 153 -6 "},"ĺ":{"ha":319,"x_min":0,"x_max":0,"o":"m 46 975 b 35 982 40 975 35 976 b 249 1194 35 1006 144 1194 b 310 1135 288 1194 310 1169 b 46 975 310 1032 64 975 m 153 -6 b 90 60 117 -6 90 10 l 90 939 b 140 954 90 943 114 954 b 228 836 183 954 228 932 l 228 60 b 167 -6 228 10 203 -6 l 153 -6 "},"ľ":{"ha":400,"x_min":0,"x_max":0,"o":"m 332 725 b 299 767 310 725 299 739 l 299 871 b 356 960 299 936 301 960 l 368 960 b 417 871 417 960 431 931 l 392 767 b 357 725 385 738 379 725 l 332 725 m 153 -6 b 90 60 117 -6 90 10 l 90 939 b 140 954 90 943 114 954 b 228 836 183 954 228 932 l 228 60 b 167 -6 228 10 203 -6 l 153 -6 "},"ļ":{"ha":319,"x_min":0,"x_max":0,"o":"m 153 -6 b 90 60 117 -6 90 10 l 90 939 b 140 954 90 943 114 954 b 228 836 183 954 228 932 l 228 60 b 167 -6 228 10 203 -6 l 153 -6 m 113 -303 b 43 -276 90 -321 29 -310 l 99 -126 b 172 -72 114 -92 124 -72 l 185 -72 b 247 -119 221 -72 247 -89 l 247 -122 b 204 -192 247 -140 229 -161 l 113 -303 "},"ŀ":{"ha":524,"x_min":0,"x_max":0,"o":"m 153 -6 b 90 60 117 -6 90 10 l 90 939 b 140 954 90 943 114 954 b 228 836 183 954 228 932 l 228 60 b 167 -6 228 10 203 -6 l 153 -6 m 414 379 b 339 453 365 379 339 404 l 339 469 b 414 546 339 518 365 546 l 433 546 b 510 469 483 546 510 518 l 510 453 b 433 379 510 404 483 379 l 414 379 "},"ł":{"ha":467,"x_min":0,"x_max":0,"o":"m 222 -6 b 160 60 186 -6 160 10 l 160 471 l 46 435 b 18 494 39 432 18 467 b 99 569 18 524 33 549 l 160 589 l 160 939 b 210 954 160 943 183 954 b 297 836 253 954 297 932 l 297 632 l 422 671 b 450 611 429 674 450 639 b 368 536 450 582 433 558 l 297 513 l 297 60 b 236 -6 297 10 272 -6 l 222 -6 "},"m":{"ha":1207,"x_min":0,"x_max":0,"o":"m 878 685 b 1129 410 1047 685 1129 582 l 1129 60 b 1068 -6 1129 10 1104 -6 l 1054 -6 b 992 60 1017 -6 992 10 l 992 393 b 844 564 992 506 943 564 b 675 453 774 564 710 519 l 675 60 b 614 -6 675 10 650 -6 l 600 -6 b 538 60 564 -6 538 10 l 538 388 b 390 564 538 506 489 564 b 222 453 321 564 256 519 l 222 60 b 161 -6 222 10 196 -6 l 146 -6 b 85 60 110 -6 85 10 l 85 660 b 135 675 85 664 107 675 b 221 572 174 675 215 658 b 428 685 267 638 336 685 b 646 544 536 685 611 633 b 878 685 692 622 767 685 "},"n":{"ha":779,"x_min":0,"x_max":0,"o":"m 443 685 b 701 399 619 685 701 564 l 701 60 b 640 -6 701 10 675 -6 l 625 -6 b 564 60 589 -6 564 10 l 564 382 b 410 564 564 494 507 564 b 222 447 322 564 256 517 l 222 60 b 161 -6 222 10 196 -6 l 146 -6 b 85 60 110 -6 85 10 l 85 660 b 135 675 85 664 107 675 b 221 567 172 675 218 656 b 443 685 268 636 342 685 "},"ń":{"ha":779,"x_min":0,"x_max":0,"o":"m 286 771 b 275 778 281 771 275 772 b 479 1000 275 801 375 1000 b 539 938 518 1000 539 972 b 286 771 539 835 304 771 m 443 685 b 701 399 619 685 701 564 l 701 60 b 640 -6 701 10 675 -6 l 625 -6 b 564 60 589 -6 564 10 l 564 382 b 410 564 564 494 507 564 b 222 447 322 564 256 517 l 222 60 b 161 -6 222 10 196 -6 l 146 -6 b 85 60 110 -6 85 10 l 85 660 b 135 675 85 664 107 675 b 221 567 172 675 218 656 b 443 685 268 636 342 685 "},"ň":{"ha":779,"x_min":0,"x_max":0,"o":"m 393 764 b 196 971 365 769 196 892 b 243 1017 196 997 217 1017 b 393 867 282 1017 324 971 b 543 1017 463 971 504 1017 b 590 971 569 1017 590 997 b 393 764 590 892 421 769 m 443 685 b 701 399 619 685 701 564 l 701 60 b 640 -6 701 10 675 -6 l 625 -6 b 564 60 589 -6 564 10 l 564 382 b 410 564 564 494 507 564 b 222 447 322 564 256 517 l 222 60 b 161 -6 222 10 196 -6 l 146 -6 b 85 60 110 -6 85 10 l 85 660 b 135 675 85 664 107 675 b 221 567 172 675 218 656 b 443 685 268 636 342 685 "},"ņ":{"ha":779,"x_min":0,"x_max":0,"o":"m 443 685 b 701 399 619 685 701 564 l 701 60 b 640 -6 701 10 675 -6 l 625 -6 b 564 60 589 -6 564 10 l 564 382 b 410 564 564 494 507 564 b 222 447 322 564 256 517 l 222 60 b 161 -6 222 10 196 -6 l 146 -6 b 85 60 110 -6 85 10 l 85 660 b 135 675 85 664 107 675 b 221 567 172 675 218 656 b 443 685 268 636 342 685 m 418 -72 b 481 -119 454 -72 481 -89 l 481 -122 b 438 -192 481 -140 463 -161 l 346 -303 b 276 -276 324 -321 263 -310 l 332 -126 b 406 -72 347 -92 357 -72 l 418 -72 "},"ŋ":{"ha":779,"x_min":0,"x_max":0,"o":"m 501 -278 b 397 -253 457 -278 422 -269 b 360 -189 374 -237 360 -215 b 392 -125 360 -151 389 -122 b 481 -164 411 -144 442 -164 b 564 -57 540 -164 564 -132 l 564 382 b 410 564 564 493 506 564 b 222 447 322 564 256 517 l 222 60 b 161 -6 222 40 221 -6 l 146 -6 b 85 60 86 -6 85 40 l 85 660 b 135 675 85 664 107 675 b 207 629 163 675 190 664 b 221 567 215 614 219 593 b 443 685 267 635 340 685 b 701 399 610 685 701 565 l 701 1 b 501 -278 701 -176 667 -278 "},"ñ":{"ha":779,"x_min":0,"x_max":0,"o":"m 228 796 b 190 810 211 796 199 801 b 176 847 181 819 176 832 b 290 986 176 921 226 986 b 382 954 321 986 350 974 b 478 871 414 935 446 906 b 558 978 493 921 526 978 b 596 964 575 978 588 972 b 610 925 606 954 610 942 b 496 788 610 853 558 788 b 403 818 465 788 433 797 b 308 903 372 839 340 868 b 228 796 292 853 260 796 m 443 685 b 701 399 619 685 701 564 l 701 60 b 640 -6 701 10 675 -6 l 625 -6 b 564 60 589 -6 564 10 l 564 382 b 410 564 564 494 507 564 b 222 447 322 564 256 517 l 222 60 b 161 -6 222 10 196 -6 l 146 -6 b 85 60 110 -6 85 10 l 85 660 b 135 675 85 664 107 675 b 221 567 172 675 218 656 b 443 685 268 636 342 685 "},"o":{"ha":789,"x_min":0,"x_max":0,"o":"m 44 335 b 396 685 44 539 189 685 b 744 332 600 685 744 538 b 394 -18 744 128 600 -18 b 44 335 188 -18 44 128 m 617 332 b 394 572 617 471 524 572 b 171 335 267 572 171 472 b 394 94 171 197 267 94 b 617 332 522 94 617 196 "},"ó":{"ha":789,"x_min":0,"x_max":0,"o":"m 288 771 b 276 778 282 771 276 772 b 481 1000 276 801 376 1000 b 540 938 519 1000 540 972 b 288 771 540 835 306 771 m 44 335 b 396 685 44 539 189 685 b 744 332 600 685 744 538 b 394 -18 744 128 600 -18 b 44 335 188 -18 44 128 m 617 332 b 394 572 617 471 524 572 b 171 335 267 572 171 472 b 394 94 171 197 267 94 b 617 332 522 94 617 196 "},"ŏ":{"ha":789,"x_min":0,"x_max":0,"o":"m 394 764 b 206 907 286 764 206 817 b 281 982 206 942 226 982 b 394 878 292 918 326 878 b 508 982 465 878 497 918 b 583 907 563 982 583 942 b 394 764 583 826 526 764 m 44 335 b 396 685 44 539 189 685 b 744 332 600 685 744 538 b 394 -18 744 128 600 -18 b 44 335 188 -18 44 128 m 617 332 b 394 572 617 471 524 572 b 171 335 267 572 171 472 b 394 94 171 197 267 94 b 617 332 522 94 617 196 "},"ô":{"ha":789,"x_min":0,"x_max":0,"o":"m 246 771 b 196 815 219 771 196 789 b 394 1022 196 894 367 1017 b 593 815 422 1017 593 894 b 546 771 593 789 572 771 b 394 919 507 771 464 815 b 246 771 324 815 285 771 m 44 335 b 396 685 44 539 189 685 b 744 332 600 685 744 538 b 394 -18 744 128 600 -18 b 44 335 188 -18 44 128 m 617 332 b 394 572 617 471 524 572 b 171 335 267 572 171 472 b 394 94 171 197 267 94 b 617 332 522 94 617 196 "},"ö":{"ha":789,"x_min":0,"x_max":0,"o":"m 269 803 b 192 881 221 803 192 831 b 268 958 192 932 221 958 b 347 881 319 958 347 932 b 269 803 347 831 319 803 m 519 803 b 442 881 471 803 442 831 b 518 958 442 932 471 958 b 597 881 569 958 597 932 b 519 803 597 831 569 803 m 44 335 b 396 685 44 539 189 685 b 744 332 600 685 744 538 b 394 -18 744 128 600 -18 b 44 335 188 -18 44 128 m 617 332 b 394 572 617 471 524 572 b 171 335 267 572 171 472 b 394 94 171 197 267 94 b 617 332 522 94 617 196 "},"ò":{"ha":789,"x_min":0,"x_max":0,"o":"m 501 771 b 249 938 483 771 249 835 b 308 1000 249 972 269 1000 b 513 778 413 1000 513 801 b 501 771 513 772 507 771 m 44 335 b 396 685 44 539 189 685 b 744 332 600 685 744 538 b 394 -18 744 128 600 -18 b 44 335 188 -18 44 128 m 617 332 b 394 572 617 471 524 572 b 171 335 267 572 171 472 b 394 94 171 197 267 94 b 617 332 522 94 617 196 "},"ő":{"ha":789,"x_min":0,"x_max":0,"o":"m 233 771 b 228 778 231 771 228 772 b 410 994 228 801 314 994 b 467 940 447 994 467 972 b 233 771 467 842 250 771 m 481 771 b 475 778 478 771 475 772 b 657 994 475 801 561 994 b 714 940 694 994 714 972 b 481 771 714 842 497 771 m 44 335 b 396 685 44 539 189 685 b 744 332 600 685 744 538 b 394 -18 744 128 600 -18 b 44 335 188 -18 44 128 m 617 332 b 394 572 617 471 524 572 b 171 335 267 572 171 472 b 394 94 171 197 267 94 b 617 332 522 94 617 196 "},"ō":{"ha":789,"x_min":0,"x_max":0,"o":"m 260 814 b 190 868 215 814 190 832 l 190 876 b 260 928 190 910 217 928 l 529 928 b 599 876 574 928 599 910 l 599 868 b 529 814 599 832 574 814 l 260 814 m 44 335 b 396 685 44 539 189 685 b 744 332 600 685 744 538 b 394 -18 744 128 600 -18 b 44 335 188 -18 44 128 m 617 332 b 394 572 617 471 524 572 b 171 335 267 572 171 472 b 394 94 171 197 267 94 b 617 332 522 94 617 196 "},"ø":{"ha":789,"x_min":0,"x_max":0,"o":"m 669 561 b 744 332 717 500 744 422 b 394 -18 744 128 600 -18 b 194 38 318 -18 250 1 l 103 -64 b 43 -12 97 -69 43 -49 b 75 50 43 4 51 24 l 122 103 b 44 335 72 163 44 243 b 396 685 44 539 189 685 b 599 625 474 685 543 664 l 693 731 b 753 679 699 736 753 715 b 722 618 753 664 744 643 m 171 335 b 213 190 171 279 186 231 l 524 532 b 394 572 488 557 443 572 b 171 335 267 572 171 472 m 617 332 b 579 472 617 385 603 433 l 271 132 b 394 94 306 108 349 94 b 617 332 522 94 617 196 "},"ǿ":{"ha":789,"x_min":0,"x_max":0,"o":"m 289 771 b 278 778 283 771 278 772 b 482 1000 278 801 378 1000 b 542 938 521 1000 542 972 b 289 771 542 835 307 771 m 669 561 b 744 332 717 500 744 422 b 394 -18 744 128 600 -18 b 194 38 318 -18 250 1 l 103 -64 b 43 -12 97 -69 43 -49 b 75 50 43 4 51 24 l 122 103 b 44 335 72 163 44 243 b 396 685 44 539 189 685 b 599 625 474 685 543 664 l 693 731 b 753 679 699 736 753 715 b 722 618 753 664 744 643 m 171 335 b 213 190 171 279 186 231 l 524 532 b 394 572 488 557 443 572 b 171 335 267 572 171 472 m 617 332 b 579 472 617 385 603 433 l 271 132 b 394 94 306 108 349 94 b 617 332 522 94 617 196 "},"õ":{"ha":789,"x_min":0,"x_max":0,"o":"m 229 796 b 192 810 213 796 200 801 b 178 847 182 819 178 832 b 292 986 178 921 228 986 b 383 954 322 986 351 974 b 479 871 415 935 447 906 b 560 978 494 921 528 978 b 597 964 576 978 589 972 b 611 925 607 954 611 942 b 497 788 611 853 560 788 b 404 818 467 788 435 797 b 310 903 374 839 342 868 b 229 796 293 853 261 796 m 44 335 b 396 685 44 539 189 685 b 744 332 600 685 744 538 b 394 -18 744 128 600 -18 b 44 335 188 -18 44 128 m 617 332 b 394 572 617 471 524 572 b 171 335 267 572 171 472 b 394 94 171 197 267 94 b 617 332 522 94 617 196 "},"œ":{"ha":1322,"x_min":0,"x_max":0,"o":"m 394 -18 b 44 335 188 -18 44 128 b 396 685 44 539 189 685 b 678 531 521 685 621 625 b 958 685 735 626 835 685 b 1279 349 1151 685 1279 549 l 1279 338 b 1238 297 1279 308 1269 297 l 744 297 b 747 274 744 289 746 282 b 972 90 765 164 854 90 b 1182 201 1089 90 1147 142 b 1254 133 1185 204 1254 192 b 1207 56 1254 110 1238 82 b 969 -18 1160 15 1079 -18 b 674 132 833 -18 731 36 b 394 -18 617 40 518 -18 m 1146 390 b 957 581 1139 506 1068 581 b 746 390 847 581 763 501 m 394 94 b 617 332 522 94 617 196 b 394 572 617 471 524 572 b 171 335 267 572 171 472 b 394 94 171 197 267 94 "},"p":{"ha":813,"x_min":0,"x_max":0,"o":"m 456 685 b 768 335 635 685 768 547 b 451 -18 768 125 636 -18 b 222 107 340 -18 260 40 l 222 -207 b 161 -272 222 -257 196 -272 l 146 -272 b 85 -207 110 -272 85 -257 l 85 660 b 135 675 85 664 107 675 b 217 599 168 675 206 660 b 221 560 218 592 221 574 b 456 685 272 638 349 685 m 426 96 b 635 333 551 96 635 192 b 429 571 635 472 549 571 b 221 432 326 571 256 517 l 221 292 b 426 96 221 179 315 96 "},"þ":{"ha":824,"x_min":0,"x_max":0,"o":"m 146 -272 b 85 -207 110 -272 85 -257 l 85 939 b 135 954 85 943 107 954 b 222 836 176 954 222 932 l 222 558 b 456 685 275 636 354 685 b 768 335 635 685 768 547 b 451 -18 768 122 638 -18 b 222 99 344 -18 263 36 l 222 -207 b 161 -272 222 -257 196 -272 l 146 -272 m 426 96 b 635 333 551 96 635 192 b 429 571 635 472 549 571 b 222 436 328 571 257 518 l 222 267 b 426 96 235 167 324 96 "},"q":{"ha":813,"x_min":0,"x_max":0,"o":"m 678 675 b 728 660 706 675 728 664 l 728 -207 b 667 -272 728 -257 703 -272 l 651 -272 b 590 -207 617 -272 590 -257 l 590 108 b 357 -18 543 33 461 -18 b 44 333 178 -18 44 122 b 361 685 44 544 176 685 b 592 572 468 685 553 635 l 592 574 b 678 675 597 660 642 675 m 592 432 b 386 571 557 515 489 571 b 178 333 261 571 178 476 b 383 96 178 194 264 96 b 592 293 494 96 592 181 "},"r":{"ha":517,"x_min":0,"x_max":0,"o":"m 390 685 b 500 596 460 685 500 651 b 458 525 500 543 461 522 b 374 554 438 542 411 554 b 222 294 265 554 222 449 l 222 60 b 161 -6 222 10 196 -6 l 146 -6 b 85 60 110 -6 85 10 l 85 660 b 135 675 85 664 107 675 b 215 608 167 675 201 661 b 221 558 218 594 221 578 b 390 685 250 640 306 685 "},"ŕ":{"ha":517,"x_min":0,"x_max":0,"o":"m 147 771 b 136 778 142 771 136 772 b 340 1000 136 801 236 1000 b 400 938 379 1000 400 972 b 147 771 400 835 165 771 m 390 685 b 500 596 460 685 500 651 b 458 525 500 543 461 522 b 374 554 438 542 411 554 b 222 294 265 554 222 449 l 222 60 b 161 -6 222 10 196 -6 l 146 -6 b 85 60 110 -6 85 10 l 85 660 b 135 675 85 664 107 675 b 215 608 167 675 201 661 b 221 558 218 594 221 578 b 390 685 250 640 306 685 "},"ř":{"ha":517,"x_min":0,"x_max":0,"o":"m 254 764 b 57 971 226 769 57 892 b 104 1017 57 997 78 1017 b 254 867 143 1017 185 971 b 404 1017 324 971 365 1017 b 451 971 431 1017 451 997 b 254 764 451 892 282 769 m 390 685 b 500 596 460 685 500 651 b 458 525 500 543 461 522 b 374 554 438 542 411 554 b 222 294 265 554 222 449 l 222 60 b 161 -6 222 10 196 -6 l 146 -6 b 85 60 110 -6 85 10 l 85 660 b 135 675 85 664 107 675 b 215 608 167 675 201 661 b 221 558 218 594 221 578 b 390 685 250 640 306 685 "},"ŗ":{"ha":517,"x_min":0,"x_max":0,"o":"m 390 685 b 500 596 460 685 500 651 b 458 525 500 543 461 522 b 374 554 438 542 411 554 b 222 294 265 554 222 449 l 222 60 b 161 -6 222 10 196 -6 l 146 -6 b 85 60 110 -6 85 10 l 85 660 b 135 675 85 664 107 675 b 215 608 167 675 201 661 b 221 558 218 594 221 578 b 390 685 250 640 306 685 m 181 -72 b 243 -119 217 -72 243 -89 l 243 -122 b 200 -192 243 -140 225 -161 l 108 -303 b 39 -276 86 -321 25 -310 l 94 -126 b 168 -72 110 -92 119 -72 l 181 -72 "},"s":{"ha":644,"x_min":0,"x_max":0,"o":"m 89 42 b 36 125 54 67 36 97 b 90 188 36 168 86 190 b 315 88 135 131 210 88 b 463 178 410 88 463 122 b 290 282 463 246 400 258 b 56 475 192 303 56 333 b 322 685 56 600 160 685 b 563 597 450 685 531 644 b 579 550 574 582 579 565 b 524 486 579 507 526 482 b 328 581 482 542 413 581 b 183 489 233 581 183 544 b 350 390 183 428 242 414 b 596 193 453 368 596 338 b 318 -17 596 65 490 -17 b 89 42 213 -17 136 8 "},"":{"ha":644,"x_min":0,"x_max":0,"o":"m 89 42 b 318 -17 136 8 213 -17 b 596 193 490 -17 596 65 b 350 390 596 338 453 368 b 183 489 242 414 183 428 b 328 581 183 544 233 581 b 524 486 413 581 482 542 b 579 550 526 482 579 507 b 563 597 579 565 574 582 b 322 685 531 644 450 685 b 56 475 160 685 56 600 b 290 282 56 333 192 303 b 463 178 400 258 463 246 b 315 88 463 122 410 88 b 90 188 210 88 135 131 b 36 125 86 190 36 168 b 89 42 36 97 54 67 "},"ś":{"ha":644,"x_min":0,"x_max":0,"o":"m 208 771 b 197 778 203 771 197 772 b 401 1000 197 801 297 1000 b 461 938 440 1000 461 972 b 208 771 461 835 226 771 m 89 42 b 36 125 54 67 36 97 b 90 188 36 168 86 190 b 315 88 135 131 210 88 b 463 178 410 88 463 122 b 290 282 463 246 400 258 b 56 475 192 303 56 333 b 322 685 56 600 160 685 b 563 597 450 685 531 644 b 579 550 574 582 579 565 b 524 486 579 507 526 482 b 328 581 482 542 413 581 b 183 489 233 581 183 544 b 350 390 183 428 242 414 b 596 193 453 368 596 338 b 318 -17 596 65 490 -17 b 89 42 213 -17 136 8 "},"š":{"ha":644,"x_min":0,"x_max":0,"o":"m 315 764 b 118 971 288 769 118 892 b 165 1017 118 997 139 1017 b 315 867 204 1017 246 971 b 465 1017 385 971 426 1017 b 513 971 492 1017 513 997 b 315 764 513 892 343 769 m 89 42 b 36 125 54 67 36 97 b 90 188 36 168 86 190 b 315 88 135 131 210 88 b 463 178 410 88 463 122 b 290 282 463 246 400 258 b 56 475 192 303 56 333 b 322 685 56 600 160 685 b 563 597 450 685 531 644 b 579 550 574 582 579 565 b 524 486 579 507 526 482 b 328 581 482 542 413 581 b 183 489 233 581 183 544 b 350 390 183 428 242 414 b 596 193 453 368 596 338 b 318 -17 596 65 490 -17 b 89 42 213 -17 136 8 "},"ş":{"ha":644,"x_min":0,"x_max":0,"o":"m 311 -293 b 168 -190 224 -293 168 -240 b 211 -143 168 -158 190 -146 b 300 -194 229 -167 258 -194 b 368 -132 336 -194 368 -172 b 292 -15 368 -89 331 -44 b 89 42 200 -12 132 11 b 36 125 54 67 36 97 b 90 188 36 168 86 190 b 315 88 135 131 210 88 b 463 178 410 88 463 122 b 290 282 463 246 400 258 b 56 475 192 303 56 333 b 322 685 56 600 160 685 b 563 597 450 685 531 644 b 579 550 574 582 579 565 b 524 486 579 507 526 482 b 328 581 482 542 413 581 b 183 489 233 581 183 544 b 350 390 183 428 242 414 b 596 193 453 368 596 338 b 425 -3 596 94 532 24 b 385 -11 413 -7 399 -10 b 465 -158 439 -53 465 -104 b 311 -293 465 -251 388 -293 "},"ŝ":{"ha":644,"x_min":0,"x_max":0,"o":"m 167 771 b 117 815 140 771 117 789 b 315 1022 117 894 288 1017 b 514 815 343 1017 514 894 b 467 771 514 789 493 771 b 315 919 428 771 385 815 b 167 771 244 815 206 771 m 89 42 b 36 125 54 67 36 97 b 90 188 36 168 86 190 b 315 88 135 131 210 88 b 463 178 410 88 463 122 b 290 282 463 246 400 258 b 56 475 192 303 56 333 b 322 685 56 600 160 685 b 563 597 450 685 531 644 b 579 550 574 582 579 565 b 524 486 579 507 526 482 b 328 581 482 542 413 581 b 183 489 233 581 183 544 b 350 390 183 428 242 414 b 596 193 453 368 596 338 b 318 -17 596 65 490 -17 b 89 42 213 -17 136 8 "},"ș":{"ha":644,"x_min":0,"x_max":0,"o":"m 89 42 b 36 125 54 67 36 97 b 90 188 36 168 86 190 b 315 88 135 131 210 88 b 463 178 410 88 463 122 b 290 282 463 246 400 258 b 56 475 192 303 56 333 b 322 685 56 600 160 685 b 563 597 450 685 531 644 b 579 550 574 582 579 565 b 524 486 579 507 526 482 b 328 581 482 542 413 581 b 183 489 233 581 183 544 b 350 390 183 428 242 414 b 596 193 453 368 596 338 b 318 -17 596 65 490 -17 b 89 42 213 -17 136 8 m 268 -303 b 199 -276 246 -321 185 -310 l 254 -126 b 328 -72 269 -92 279 -72 l 340 -72 b 403 -119 376 -72 403 -89 l 403 -122 b 360 -192 403 -140 385 -161 l 268 -303 "},"ß":{"ha":767,"x_min":0,"x_max":0,"o":"m 329 15 b 281 89 297 35 281 63 b 322 154 281 128 318 157 b 457 94 351 121 386 94 b 599 242 533 94 599 161 b 411 436 599 325 560 397 b 329 524 354 453 329 475 b 358 593 329 560 357 593 b 547 722 482 592 547 629 b 393 851 547 803 488 851 b 222 649 283 851 222 789 l 222 58 b 160 -7 222 13 197 -7 l 146 -7 b 85 58 110 -7 85 13 l 85 642 b 394 964 85 858 196 964 b 679 738 568 964 679 874 b 481 533 679 617 613 550 b 732 242 663 485 732 378 b 472 -18 732 96 618 -18 b 329 15 408 -18 361 -6 "},"t":{"ha":515,"x_min":0,"x_max":0,"o":"m 335 -18 b 135 203 197 -18 135 58 l 135 556 l 86 556 b 26 607 43 556 26 574 l 26 617 b 86 668 26 650 43 668 l 135 668 l 135 771 b 196 836 135 818 158 836 l 210 836 b 269 771 246 836 269 822 l 269 668 l 421 668 b 479 618 464 668 479 651 l 479 608 b 419 556 479 574 463 556 l 268 556 l 268 218 b 357 94 268 135 292 94 b 451 142 400 94 431 114 b 490 83 456 146 490 126 b 461 22 490 61 481 40 b 335 -18 435 -1 392 -18 "},"ŧ":{"ha":515,"x_min":0,"x_max":0,"o":"m 335 -18 b 135 203 197 -18 135 58 l 135 333 l 110 333 b 40 388 65 333 40 351 l 40 394 b 110 446 40 428 67 446 l 135 446 l 135 556 l 86 556 b 26 607 43 556 26 574 l 26 617 b 86 668 26 650 43 668 l 135 668 l 135 771 b 196 836 135 818 158 836 l 210 836 b 269 771 246 836 269 822 l 269 668 l 421 668 b 479 618 464 668 479 651 l 479 608 b 419 556 479 574 463 556 l 268 556 l 268 446 l 407 446 b 476 394 451 446 476 428 l 476 388 b 407 333 476 351 451 333 l 268 333 l 268 218 b 357 94 268 135 292 94 b 451 142 400 94 431 114 b 490 83 456 146 490 126 b 450 14 490 58 476 32 b 335 -18 424 -6 385 -18 "},"ť":{"ha":515,"x_min":0,"x_max":0,"o":"m 372 725 b 339 767 350 725 339 739 l 339 871 b 396 960 339 936 342 960 l 408 960 b 457 871 457 960 471 931 l 432 767 b 397 725 425 738 419 725 l 372 725 m 335 -18 b 135 203 197 -18 135 58 l 135 556 l 86 556 b 26 607 43 556 26 574 l 26 617 b 86 668 26 650 43 668 l 135 668 l 135 771 b 196 836 135 818 158 836 l 210 836 b 269 771 246 836 269 822 l 269 668 l 421 668 b 479 618 464 668 479 651 l 479 608 b 419 556 479 574 463 556 l 268 556 l 268 218 b 357 94 268 135 292 94 b 451 142 400 94 431 114 b 490 83 456 146 490 126 b 461 22 490 61 481 40 b 335 -18 435 -1 392 -18 "},"ţ":{"ha":515,"x_min":0,"x_max":0,"o":"m 279 -293 b 136 -190 192 -293 136 -240 b 179 -143 136 -158 158 -146 b 268 -194 197 -167 226 -194 b 336 -132 304 -194 336 -172 b 232 1 336 -79 279 -22 b 135 203 165 32 135 100 l 135 556 l 86 556 b 26 607 43 556 26 574 l 26 617 b 86 668 26 650 43 668 l 135 668 l 135 771 b 196 836 135 818 158 836 l 210 836 b 269 771 246 836 269 822 l 269 668 l 421 668 b 479 618 464 668 479 651 l 479 608 b 419 556 479 574 463 556 l 268 556 l 268 218 b 357 94 268 135 292 94 b 451 142 400 94 431 114 b 490 83 456 146 490 126 b 461 22 490 61 481 40 b 394 -11 444 7 422 -4 b 360 -17 383 -14 372 -15 b 433 -158 410 -57 433 -107 b 279 -293 433 -251 356 -293 "},"ț":{"ha":515,"x_min":0,"x_max":0,"o":"m 335 -18 b 135 203 197 -18 135 58 l 135 556 l 86 556 b 26 607 43 556 26 574 l 26 617 b 86 668 26 650 43 668 l 135 668 l 135 771 b 196 836 135 818 158 836 l 210 836 b 269 771 246 836 269 822 l 269 668 l 421 668 b 479 618 464 668 479 651 l 479 608 b 419 556 479 574 463 556 l 268 556 l 268 218 b 357 94 268 135 292 94 b 451 142 400 94 431 114 b 490 83 456 146 490 126 b 461 22 490 61 481 40 b 335 -18 435 -1 392 -18 m 254 -303 b 185 -276 232 -321 171 -310 l 240 -126 b 314 -72 256 -92 265 -72 l 326 -72 b 389 -119 363 -72 389 -89 l 389 -122 b 346 -192 389 -140 371 -161 l 254 -303 "},"u":{"ha":779,"x_min":0,"x_max":0,"o":"m 633 675 b 694 608 669 675 694 660 l 694 10 b 646 -6 694 6 672 -6 b 564 57 613 -6 578 7 b 558 100 561 69 558 83 b 336 -17 511 32 439 -17 b 79 269 160 -17 79 103 l 79 608 b 139 675 79 658 104 675 l 154 675 b 215 608 190 675 215 660 l 215 286 b 375 103 215 171 274 103 b 558 221 458 103 524 150 l 558 608 b 618 675 558 658 583 675 l 633 675 "},"ú":{"ha":779,"x_min":0,"x_max":0,"o":"m 279 771 b 268 778 274 771 268 772 b 472 1000 268 801 368 1000 b 532 938 511 1000 532 972 b 279 771 532 835 297 771 m 633 675 b 694 608 669 675 694 660 l 694 10 b 646 -6 694 6 672 -6 b 564 57 613 -6 578 7 b 558 100 561 69 558 83 b 336 -17 511 32 439 -17 b 79 269 160 -17 79 103 l 79 608 b 139 675 79 658 104 675 l 154 675 b 215 608 190 675 215 660 l 215 286 b 375 103 215 171 274 103 b 558 221 458 103 524 150 l 558 608 b 618 675 558 658 583 675 l 633 675 "},"ŭ":{"ha":779,"x_min":0,"x_max":0,"o":"m 386 764 b 197 907 278 764 197 817 b 272 982 197 942 218 982 b 386 878 283 918 318 878 b 500 982 457 878 489 918 b 575 907 554 982 575 942 b 386 764 575 826 518 764 m 633 675 b 694 608 669 675 694 660 l 694 10 b 646 -6 694 6 672 -6 b 564 57 613 -6 578 7 b 558 100 561 69 558 83 b 336 -17 511 32 439 -17 b 79 269 160 -17 79 103 l 79 608 b 139 675 79 658 104 675 l 154 675 b 215 608 190 675 215 660 l 215 286 b 375 103 215 171 274 103 b 558 221 458 103 524 150 l 558 608 b 618 675 558 658 583 675 l 633 675 "},"û":{"ha":779,"x_min":0,"x_max":0,"o":"m 238 771 b 188 815 211 771 188 789 b 386 1022 188 894 358 1017 b 585 815 414 1017 585 894 b 538 771 585 789 564 771 b 386 919 499 771 456 815 b 238 771 315 815 276 771 m 633 675 b 694 608 669 675 694 660 l 694 10 b 646 -6 694 6 672 -6 b 564 57 613 -6 578 7 b 558 100 561 69 558 83 b 336 -17 511 32 439 -17 b 79 269 160 -17 79 103 l 79 608 b 139 675 79 658 104 675 l 154 675 b 215 608 190 675 215 660 l 215 286 b 375 103 215 171 274 103 b 558 221 458 103 524 150 l 558 608 b 618 675 558 658 583 675 l 633 675 "},"ü":{"ha":779,"x_min":0,"x_max":0,"o":"m 261 803 b 183 881 213 803 183 831 b 260 958 183 932 213 958 b 339 881 311 958 339 932 b 261 803 339 831 311 803 m 511 803 b 433 881 463 803 433 831 b 510 958 433 932 463 958 b 589 881 561 958 589 932 b 511 803 589 831 561 803 m 633 675 b 694 608 669 675 694 660 l 694 10 b 646 -6 694 6 672 -6 b 564 57 613 -6 578 7 b 558 100 561 69 558 83 b 336 -17 511 32 439 -17 b 79 269 160 -17 79 103 l 79 608 b 139 675 79 658 104 675 l 154 675 b 215 608 190 675 215 660 l 215 286 b 375 103 215 171 274 103 b 558 221 458 103 524 150 l 558 608 b 618 675 558 658 583 675 l 633 675 "},"ù":{"ha":779,"x_min":0,"x_max":0,"o":"m 493 771 b 240 938 475 771 240 835 b 300 1000 240 972 261 1000 b 504 778 404 1000 504 801 b 493 771 504 772 499 771 m 633 675 b 694 608 669 675 694 660 l 694 10 b 646 -6 694 6 672 -6 b 564 57 613 -6 578 7 b 558 100 561 69 558 83 b 336 -17 511 32 439 -17 b 79 269 160 -17 79 103 l 79 608 b 139 675 79 658 104 675 l 154 675 b 215 608 190 675 215 660 l 215 286 b 375 103 215 171 274 103 b 558 221 458 103 524 150 l 558 608 b 618 675 558 658 583 675 l 633 675 "},"ű":{"ha":779,"x_min":0,"x_max":0,"o":"m 225 771 b 219 778 222 771 219 772 b 401 994 219 801 306 994 b 458 940 439 994 458 972 b 225 771 458 842 242 771 m 472 771 b 467 778 469 771 467 772 b 649 994 467 801 553 994 b 706 940 686 994 706 972 b 472 771 706 842 489 771 m 633 675 b 694 608 669 675 694 660 l 694 10 b 646 -6 694 6 672 -6 b 564 57 613 -6 578 7 b 558 100 561 69 558 83 b 336 -17 511 32 439 -17 b 79 269 160 -17 79 103 l 79 608 b 139 675 79 658 104 675 l 154 675 b 215 608 190 675 215 660 l 215 286 b 375 103 215 171 274 103 b 558 221 458 103 524 150 l 558 608 b 618 675 558 658 583 675 l 633 675 "},"ū":{"ha":779,"x_min":0,"x_max":0,"o":"m 251 814 b 182 868 207 814 182 832 l 182 876 b 251 928 182 910 208 928 l 521 928 b 590 876 565 928 590 910 l 590 868 b 521 814 590 832 565 814 l 251 814 m 633 675 b 694 608 669 675 694 660 l 694 10 b 646 -6 694 6 672 -6 b 564 57 613 -6 578 7 b 558 100 561 69 558 83 b 336 -17 511 32 439 -17 b 79 269 160 -17 79 103 l 79 608 b 139 675 79 658 104 675 l 154 675 b 215 608 190 675 215 660 l 215 286 b 375 103 215 171 274 103 b 558 221 458 103 524 150 l 558 608 b 618 675 558 658 583 675 l 633 675 "},"ạ":{"ha":726,"x_min":0,"x_max":0,"o":"m 46 175 b 494 401 46 329 193 396 l 513 401 l 513 415 b 347 572 513 517 454 572 b 156 458 246 572 186 519 b 71 525 156 457 71 458 b 117 608 71 550 86 581 b 357 685 163 650 243 685 b 649 418 546 685 649 588 l 649 8 b 599 -7 649 1 624 -7 b 519 54 561 -7 531 10 b 514 100 517 67 514 82 b 274 -15 463 28 375 -15 b 46 175 131 -15 46 61 m 513 315 l 475 314 b 181 181 281 307 181 271 b 307 83 181 121 228 83 b 513 264 426 83 513 158 m 356 -257 b 274 -178 304 -257 274 -226 b 356 -97 274 -128 303 -97 b 438 -178 407 -97 438 -128 b 356 -257 438 -228 408 -257 "},"ẹ":{"ha":750,"x_min":0,"x_max":0,"o":"m 44 331 b 386 685 44 533 189 685 b 707 349 579 685 707 549 l 707 338 b 665 297 707 308 697 297 l 172 297 b 175 272 172 289 174 281 b 400 90 194 163 282 90 b 610 201 517 90 575 142 b 682 133 613 204 682 192 b 608 36 682 104 657 67 b 397 -18 560 6 489 -18 b 44 331 186 -18 44 122 m 574 390 b 385 581 567 506 496 581 b 174 390 275 581 190 501 l 574 390 m 375 -257 b 293 -178 324 -257 293 -226 b 375 -97 293 -128 322 -97 b 457 -178 426 -97 457 -128 b 375 -257 457 -228 428 -257 "},"ẽ":{"ha":750,"x_min":0,"x_max":0,"o":"m 210 796 b 172 810 193 796 181 801 b 158 847 163 819 158 832 b 272 986 158 921 208 986 b 364 954 303 986 332 974 b 460 871 396 935 428 906 b 540 978 475 921 508 978 b 578 964 557 978 569 972 b 592 925 588 954 592 942 b 478 788 592 853 540 788 b 385 818 447 788 415 797 b 290 903 354 839 322 868 b 210 796 274 853 242 796 m 44 331 b 386 685 44 533 189 685 b 707 349 579 685 707 549 l 707 338 b 665 297 707 308 697 297 l 172 297 b 175 272 172 289 174 281 b 400 90 194 163 282 90 b 610 201 517 90 575 142 b 682 133 613 204 682 192 b 608 36 682 104 657 67 b 397 -18 560 6 489 -18 b 44 331 186 -18 44 122 m 574 390 b 385 581 567 506 496 581 b 174 390 275 581 190 501 l 574 390 "},"ị":{"ha":319,"x_min":0,"x_max":0,"o":"m 157 803 b 75 882 106 803 75 833 b 158 963 75 932 106 963 b 239 882 210 963 239 932 b 157 803 239 832 210 803 m 153 -6 b 90 60 117 -6 90 10 l 90 608 b 153 675 90 658 117 675 l 167 675 b 228 608 203 675 228 660 l 228 60 b 167 -6 228 10 203 -6 l 153 -6 m 158 -257 b 76 -178 107 -257 76 -226 b 158 -97 76 -128 106 -97 b 240 -178 210 -97 240 -128 b 158 -257 240 -228 211 -257 "},"ọ":{"ha":789,"x_min":0,"x_max":0,"o":"m 44 335 b 396 685 44 539 189 685 b 744 332 600 685 744 538 b 394 -18 744 128 600 -18 b 44 335 188 -18 44 128 m 617 332 b 394 572 617 471 524 572 b 171 335 267 572 171 472 b 394 94 171 197 267 94 b 617 332 522 94 617 196 m 394 -257 b 313 -178 343 -257 313 -226 b 394 -97 313 -128 342 -97 b 476 -178 446 -97 476 -128 b 394 -257 476 -228 447 -257 "},"ỵ":{"ha":692,"x_min":0,"x_max":0,"o":"m 276 -271 b 204 -233 238 -271 201 -240 l 315 38 b 257 76 285 40 268 49 l 18 635 b 90 675 15 643 46 675 b 178 597 129 675 156 657 l 358 136 l 518 594 b 604 675 538 656 568 675 b 676 638 642 675 679 644 l 361 -194 b 276 -271 339 -254 308 -271 m 518 -257 b 436 -178 467 -257 436 -226 b 518 -97 436 -128 465 -97 b 600 -178 569 -97 600 -128 b 518 -257 600 -228 571 -257 "},"ỹ":{"ha":692,"x_min":0,"x_max":0,"o":"m 182 796 b 144 810 165 796 153 801 b 131 847 135 819 131 832 b 244 986 131 921 181 986 b 336 954 275 986 304 974 b 432 871 368 935 400 906 b 513 978 447 921 481 978 b 550 964 529 978 542 972 b 564 925 560 954 564 942 b 450 788 564 853 513 788 b 357 818 419 788 388 797 b 263 903 326 839 294 868 b 182 796 246 853 214 796 m 276 -271 b 204 -233 238 -271 201 -240 l 315 38 b 257 76 285 40 268 49 l 18 635 b 90 675 15 643 46 675 b 178 597 129 675 156 657 l 358 136 l 518 594 b 604 675 538 656 568 675 b 676 638 642 675 679 644 l 361 -194 b 276 -271 339 -254 308 -271 "},"ų":{"ha":779,"x_min":0,"x_max":0,"o":"m 619 -279 b 479 -161 535 -279 479 -235 b 603 3 479 -101 521 -42 b 561 67 585 13 568 32 b 558 100 560 76 558 88 b 336 -17 511 32 439 -17 b 79 269 160 -17 79 103 l 79 608 b 139 675 79 658 104 675 l 154 675 b 215 608 190 675 215 660 l 215 286 b 375 103 215 171 274 103 b 558 221 458 103 524 150 l 558 608 b 618 675 558 658 583 675 l 633 675 b 694 608 669 675 694 660 l 694 10 b 693 7 694 8 693 7 b 585 -135 610 -58 585 -100 b 631 -183 585 -164 604 -183 b 682 -156 654 -183 671 -174 b 728 -208 704 -157 728 -176 b 619 -279 728 -250 688 -279 "},"ů":{"ha":779,"x_min":0,"x_max":0,"o":"m 386 743 b 213 908 283 743 213 814 b 388 1075 213 1003 286 1075 b 560 908 490 1075 560 1004 b 386 743 560 815 488 743 m 386 1001 b 294 908 333 1001 294 961 b 386 818 294 858 335 818 b 478 908 440 818 478 857 b 386 1001 478 961 439 1001 m 633 675 b 694 608 669 675 694 660 l 694 10 b 646 -6 694 6 672 -6 b 564 57 613 -6 578 7 b 558 100 561 69 558 83 b 336 -17 511 32 439 -17 b 79 269 160 -17 79 103 l 79 608 b 139 675 79 658 104 675 l 154 675 b 215 608 190 675 215 660 l 215 286 b 375 103 215 171 274 103 b 558 221 458 103 524 150 l 558 608 b 618 675 558 658 583 675 l 633 675 "},"ũ":{"ha":779,"x_min":0,"x_max":0,"o":"m 221 796 b 183 810 204 796 192 801 b 169 847 174 819 169 832 b 283 986 169 921 219 986 b 375 954 314 986 343 974 b 471 871 407 935 439 906 b 551 978 486 921 519 978 b 589 964 568 978 581 972 b 603 925 599 954 603 942 b 489 788 603 853 551 788 b 396 818 458 788 426 797 b 301 903 365 839 333 868 b 221 796 285 853 253 796 m 633 675 b 694 608 669 675 694 660 l 694 10 b 646 -6 694 6 672 -6 b 564 57 613 -6 578 7 b 558 100 561 69 558 83 b 336 -17 511 32 439 -17 b 79 269 160 -17 79 103 l 79 608 b 139 675 79 658 104 675 l 154 675 b 215 608 190 675 215 660 l 215 286 b 375 103 215 171 274 103 b 558 221 458 103 524 150 l 558 608 b 618 675 558 658 583 675 l 633 675 "},"v":{"ha":693,"x_min":0,"x_max":0,"o":"m 18 635 b 90 675 15 643 46 675 b 178 593 129 675 154 658 l 346 122 l 519 593 b 604 675 543 658 569 675 b 675 635 647 675 678 642 l 432 35 b 347 -8 419 4 392 -8 b 264 32 300 -8 276 1 "},"w":{"ha":986,"x_min":0,"x_max":0,"o":"m 279 -8 b 194 36 229 -8 204 3 l 28 635 b 110 675 25 643 69 675 b 182 601 139 675 171 658 l 286 133 l 414 538 b 499 586 424 571 447 586 b 582 538 549 586 572 571 l 706 136 l 808 601 b 879 675 818 658 851 675 b 958 635 919 675 960 642 l 793 36 b 710 -8 785 3 760 -8 b 625 40 653 -8 638 3 l 496 444 l 363 40 b 279 -8 350 4 333 -8 "},"":{"ha":986,"x_min":0,"x_max":0,"o":"m 279 -8 b 363 40 333 -8 350 4 l 496 444 l 625 40 b 710 -8 638 3 653 -8 b 793 36 760 -8 785 3 l 958 635 b 879 675 960 642 919 675 b 808 601 851 675 818 658 l 706 136 l 582 538 b 499 586 572 571 549 586 b 414 538 447 586 424 571 l 286 133 l 182 601 b 110 675 171 658 139 675 b 28 635 69 675 25 643 l 194 36 b 279 -8 204 3 229 -8 "},"ẃ":{"ha":986,"x_min":0,"x_max":0,"o":"m 386 771 b 375 778 381 771 375 772 b 579 1000 375 801 475 1000 b 639 938 618 1000 639 972 b 386 771 639 835 404 771 m 279 -8 b 194 36 229 -8 204 3 l 28 635 b 110 675 25 643 69 675 b 182 601 139 675 171 658 l 286 133 l 414 538 b 499 586 424 571 447 586 b 582 538 549 586 572 571 l 706 136 l 808 601 b 879 675 818 658 851 675 b 958 635 919 675 960 642 l 793 36 b 710 -8 785 3 760 -8 b 625 40 653 -8 638 3 l 496 444 l 363 40 b 279 -8 350 4 333 -8 "},"ŵ":{"ha":986,"x_min":0,"x_max":0,"o":"m 344 771 b 294 815 318 771 294 789 b 493 1022 294 894 465 1017 b 692 815 521 1017 692 894 b 644 771 692 789 671 771 b 493 919 606 771 563 815 b 344 771 422 815 383 771 m 279 -8 b 194 36 229 -8 204 3 l 28 635 b 110 675 25 643 69 675 b 182 601 139 675 171 658 l 286 133 l 414 538 b 499 586 424 571 447 586 b 582 538 549 586 572 571 l 706 136 l 808 601 b 879 675 818 658 851 675 b 958 635 919 675 960 642 l 793 36 b 710 -8 785 3 760 -8 b 625 40 653 -8 638 3 l 496 444 l 363 40 b 279 -8 350 4 333 -8 "},"ẅ":{"ha":986,"x_min":0,"x_max":0,"o":"m 368 803 b 290 881 319 803 290 831 b 367 958 290 932 319 958 b 446 881 418 958 446 932 b 368 803 446 831 418 803 m 618 803 b 540 881 569 803 540 831 b 617 958 540 932 569 958 b 696 881 668 958 696 932 b 618 803 696 831 668 803 m 279 -8 b 194 36 229 -8 204 3 l 28 635 b 110 675 25 643 69 675 b 182 601 139 675 171 658 l 286 133 l 414 538 b 499 586 424 571 447 586 b 582 538 549 586 572 571 l 706 136 l 808 601 b 879 675 818 658 851 675 b 958 635 919 675 960 642 l 793 36 b 710 -8 785 3 760 -8 b 625 40 653 -8 638 3 l 496 444 l 363 40 b 279 -8 350 4 333 -8 "},"ẁ":{"ha":986,"x_min":0,"x_max":0,"o":"m 600 771 b 347 938 582 771 347 835 b 407 1000 347 972 368 1000 b 611 778 511 1000 611 801 b 600 771 611 772 606 771 m 279 -8 b 194 36 229 -8 204 3 l 28 635 b 110 675 25 643 69 675 b 182 601 139 675 171 658 l 286 133 l 414 538 b 499 586 424 571 447 586 b 582 538 549 586 572 571 l 706 136 l 808 601 b 879 675 818 658 851 675 b 958 635 919 675 960 642 l 793 36 b 710 -8 785 3 760 -8 b 625 40 653 -8 638 3 l 496 444 l 363 40 b 279 -8 350 4 333 -8 "},"x":{"ha":679,"x_min":0,"x_max":0,"o":"m 251 333 l 33 625 b 107 675 29 632 58 675 b 193 618 144 675 169 656 l 342 406 l 488 618 b 572 675 514 660 544 675 b 649 625 622 675 653 631 l 428 333 l 644 44 b 569 -7 649 38 621 -7 b 485 50 532 -7 507 14 l 336 261 l 192 51 b 106 -7 168 14 140 -7 b 31 44 57 -7 25 39 "},"y":{"ha":692,"x_min":0,"x_max":0,"o":"m 276 -271 b 204 -233 238 -271 201 -240 l 315 38 b 257 76 285 40 268 49 l 18 635 b 90 675 15 643 46 675 b 178 597 129 675 156 657 l 358 136 l 518 594 b 604 675 538 656 568 675 b 676 638 642 675 679 644 l 361 -194 b 276 -271 339 -254 308 -271 "},"":{"ha":692,"x_min":0,"x_max":0,"o":"m 276 -271 b 361 -194 308 -271 339 -254 l 676 638 b 604 675 679 644 642 675 b 518 594 568 675 538 656 l 358 136 l 178 597 b 90 675 156 657 129 675 b 18 635 46 675 15 643 l 257 76 b 315 38 268 49 285 40 l 204 -233 b 276 -271 201 -240 238 -271 "},"ý":{"ha":692,"x_min":0,"x_max":0,"o":"m 240 771 b 229 778 235 771 229 772 b 433 1000 229 801 329 1000 b 493 938 472 1000 493 972 b 240 771 493 835 258 771 m 276 -271 b 204 -233 238 -271 201 -240 l 315 38 b 257 76 285 40 268 49 l 18 635 b 90 675 15 643 46 675 b 178 597 129 675 156 657 l 358 136 l 518 594 b 604 675 538 656 568 675 b 676 638 642 675 679 644 l 361 -194 b 276 -271 339 -254 308 -271 "},"ŷ":{"ha":692,"x_min":0,"x_max":0,"o":"m 199 771 b 149 815 172 771 149 789 b 347 1022 149 894 319 1017 b 546 815 375 1017 546 894 b 499 771 546 789 525 771 b 347 919 460 771 417 815 b 199 771 276 815 238 771 m 276 -271 b 204 -233 238 -271 201 -240 l 315 38 b 257 76 285 40 268 49 l 18 635 b 90 675 15 643 46 675 b 178 597 129 675 156 657 l 358 136 l 518 594 b 604 675 538 656 568 675 b 676 638 642 675 679 644 l 361 -194 b 276 -271 339 -254 308 -271 "},"ÿ":{"ha":692,"x_min":0,"x_max":0,"o":"m 222 803 b 144 881 174 803 144 831 b 221 958 144 932 174 958 b 300 881 272 958 300 932 b 222 803 300 831 272 803 m 472 803 b 394 881 424 803 394 831 b 471 958 394 932 424 958 b 550 881 522 958 550 932 b 472 803 550 831 522 803 m 276 -271 b 204 -233 238 -271 201 -240 l 315 38 b 257 76 285 40 268 49 l 18 635 b 90 675 15 643 46 675 b 178 597 129 675 156 657 l 358 136 l 518 594 b 604 675 538 656 568 675 b 676 638 642 675 679 644 l 361 -194 b 276 -271 339 -254 308 -271 "},"ỳ":{"ha":692,"x_min":0,"x_max":0,"o":"m 454 771 b 201 938 436 771 201 835 b 261 1000 201 972 222 1000 b 465 778 365 1000 465 801 b 454 771 465 772 460 771 m 276 -271 b 204 -233 238 -271 201 -240 l 315 38 b 257 76 285 40 268 49 l 18 635 b 90 675 15 643 46 675 b 178 597 129 675 156 657 l 358 136 l 518 594 b 604 675 538 656 568 675 b 676 638 642 675 679 644 l 361 -194 b 276 -271 339 -254 308 -271 "},"z":{"ha":669,"x_min":0,"x_max":0,"o":"m 49 64 b 88 139 49 93 60 107 l 438 558 l 111 558 b 51 608 69 558 51 574 l 51 618 b 111 668 51 651 69 668 l 557 668 b 614 617 600 668 614 644 l 614 608 b 576 536 614 582 604 568 l 219 111 l 565 111 b 625 60 607 111 625 94 l 625 51 b 565 0 625 17 607 0 l 106 0 b 49 53 64 0 49 25 "},"ź":{"ha":669,"x_min":0,"x_max":0,"o":"m 229 771 b 218 778 224 771 218 772 b 422 1000 218 801 318 1000 b 482 938 461 1000 482 972 b 229 771 482 835 247 771 m 49 64 b 88 139 49 93 60 107 l 438 558 l 111 558 b 51 608 69 558 51 574 l 51 618 b 111 668 51 651 69 668 l 557 668 b 614 617 600 668 614 644 l 614 608 b 576 536 614 582 604 568 l 219 111 l 565 111 b 625 60 607 111 625 94 l 625 51 b 565 0 625 17 607 0 l 106 0 b 49 53 64 0 49 25 "},"ž":{"ha":669,"x_min":0,"x_max":0,"o":"m 336 764 b 139 971 308 769 139 892 b 186 1017 139 997 160 1017 b 336 867 225 1017 267 971 b 486 1017 406 971 447 1017 b 533 971 513 1017 533 997 b 336 764 533 892 364 769 m 49 64 b 88 139 49 93 60 107 l 438 558 l 111 558 b 51 608 69 558 51 574 l 51 618 b 111 668 51 651 69 668 l 557 668 b 614 617 600 668 614 644 l 614 608 b 576 536 614 582 604 568 l 219 111 l 565 111 b 625 60 607 111 625 94 l 625 51 b 565 0 625 17 607 0 l 106 0 b 49 53 64 0 49 25 "},"ż":{"ha":669,"x_min":0,"x_max":0,"o":"m 335 803 b 253 882 283 803 253 833 b 336 963 253 932 283 963 b 417 882 388 963 417 932 b 335 803 417 832 388 803 m 49 64 b 88 139 49 93 60 107 l 438 558 l 111 558 b 51 608 69 558 51 574 l 51 618 b 111 668 51 651 69 668 l 557 668 b 614 617 600 668 614 644 l 614 608 b 576 536 614 582 604 568 l 219 111 l 565 111 b 625 60 607 111 625 94 l 625 51 b 565 0 625 17 607 0 l 106 0 b 49 53 64 0 49 25 "},"ﬀ":{"ha":981,"x_min":0,"x_max":0,"o":"m 150 556 l 72 556 b 11 608 28 556 11 574 l 11 618 b 72 668 11 651 28 668 l 150 668 l 150 718 b 363 964 150 886 229 964 b 476 936 414 964 451 953 b 513 874 501 919 513 897 b 479 814 513 835 482 811 b 379 853 460 833 421 853 b 283 717 313 853 283 811 l 283 668 l 396 668 b 457 617 440 668 457 650 l 457 607 b 396 556 457 574 440 556 l 286 556 l 286 60 b 226 -6 286 10 263 -6 l 213 -6 b 150 60 176 -6 150 10 m 640 556 l 563 556 b 501 608 518 556 501 574 l 501 618 b 563 668 501 651 518 668 l 640 668 l 640 718 b 853 964 640 886 719 964 b 967 936 904 964 942 953 b 1003 874 992 919 1003 897 b 969 814 1003 835 972 811 b 869 853 950 833 911 853 b 774 717 803 853 774 811 l 774 668 l 886 668 b 947 617 931 668 947 650 l 947 607 b 886 556 947 574 931 556 l 776 556 l 776 60 b 717 -6 776 10 753 -6 l 703 -6 b 640 60 667 -6 640 10 "},"ﬃ":{"ha":1300,"x_min":0,"x_max":0,"o":"m 150 556 l 72 556 b 11 608 28 556 11 574 l 11 618 b 72 668 11 651 28 668 l 150 668 l 150 718 b 363 964 150 886 229 964 b 476 936 414 964 451 953 b 513 874 501 919 513 897 b 479 814 513 835 482 811 b 379 853 460 833 421 853 b 283 717 313 853 283 811 l 283 668 l 396 668 b 457 617 440 668 457 650 l 457 607 b 396 556 457 574 440 556 l 286 556 l 286 60 b 226 -6 286 10 263 -6 l 213 -6 b 150 60 176 -6 150 10 m 640 556 l 563 556 b 501 608 518 556 501 574 l 501 618 b 563 668 501 651 518 668 l 640 668 l 640 718 b 853 964 640 886 719 964 b 967 936 904 964 942 953 b 1003 874 992 919 1003 897 b 969 814 1003 835 972 811 b 869 853 950 833 911 853 b 774 717 803 853 774 811 l 774 668 l 886 668 b 947 617 931 668 947 650 l 947 607 b 886 556 947 574 931 556 l 776 556 l 776 60 b 717 -6 776 10 753 -6 l 703 -6 b 640 60 667 -6 640 10 m 1060 882 b 1143 963 1060 932 1090 963 b 1224 882 1194 963 1224 932 b 1142 803 1224 832 1194 803 b 1060 882 1090 803 1060 833 m 1071 608 b 1133 675 1071 658 1097 675 l 1147 675 b 1208 608 1183 675 1208 660 l 1208 60 b 1147 -6 1208 10 1183 -6 l 1133 -6 b 1071 60 1097 -6 1071 10 "},"ﬄ":{"ha":1300,"x_min":0,"x_max":0,"o":"m 150 556 l 72 556 b 11 608 28 556 11 574 l 11 618 b 72 668 11 651 28 668 l 150 668 l 150 718 b 363 964 150 886 229 964 b 476 936 414 964 451 953 b 513 874 501 919 513 897 b 479 814 513 835 482 811 b 379 853 460 833 421 853 b 283 717 313 853 283 811 l 283 668 l 396 668 b 457 617 440 668 457 650 l 457 607 b 396 556 457 574 440 556 l 286 556 l 286 60 b 226 -6 286 10 263 -6 l 213 -6 b 150 60 176 -6 150 10 m 640 556 l 563 556 b 501 608 518 556 501 574 l 501 618 b 563 668 501 651 518 668 l 640 668 l 640 718 b 853 964 640 886 719 964 b 967 936 904 964 942 953 b 1003 874 992 919 1003 897 b 969 814 1003 835 972 811 b 869 853 950 833 911 853 b 774 717 803 853 774 811 l 774 668 l 886 668 b 947 617 931 668 947 650 l 947 607 b 886 556 947 574 931 556 l 776 556 l 776 60 b 717 -6 776 10 753 -6 l 703 -6 b 640 60 667 -6 640 10 m 1133 -6 b 1071 60 1097 -6 1071 10 l 1071 939 b 1121 954 1071 943 1094 954 b 1208 836 1164 954 1208 932 l 1208 60 b 1147 -6 1208 10 1183 -6 l 1133 -6 "},"ﬁ":{"ha":810,"x_min":0,"x_max":0,"o":"m 150 556 l 72 556 b 11 608 28 556 11 574 l 11 618 b 72 668 11 651 28 668 l 150 668 l 150 718 b 363 964 150 886 229 964 b 476 936 414 964 451 953 b 513 874 501 919 513 897 b 479 814 513 835 482 811 b 379 853 460 833 421 853 b 283 717 313 853 283 811 l 283 668 l 396 668 b 457 617 440 668 457 650 l 457 607 b 396 556 457 574 440 556 l 286 556 l 286 60 b 226 -6 286 10 263 -6 l 213 -6 b 150 60 176 -6 150 10 m 569 882 b 653 963 569 932 600 963 b 733 882 704 963 733 932 b 651 803 733 832 704 803 b 569 882 600 803 569 833 m 581 608 b 643 675 581 658 607 675 l 657 675 b 718 608 693 675 718 660 l 718 60 b 657 -6 718 10 693 -6 l 643 -6 b 581 60 607 -6 581 10 "},"ﬂ":{"ha":810,"x_min":0,"x_max":0,"o":"m 150 556 l 72 556 b 11 608 28 556 11 574 l 11 618 b 72 668 11 651 28 668 l 150 668 l 150 718 b 363 964 150 886 229 964 b 476 936 414 964 451 953 b 513 874 501 919 513 897 b 479 814 513 835 482 811 b 379 853 460 833 421 853 b 283 717 313 853 283 811 l 283 668 l 396 668 b 457 617 440 668 457 650 l 457 607 b 396 556 457 574 440 556 l 286 556 l 286 60 b 226 -6 286 10 263 -6 l 213 -6 b 150 60 176 -6 150 10 m 643 -6 b 581 60 607 -6 581 10 l 581 939 b 631 954 581 943 604 954 b 718 836 674 954 718 932 l 718 60 b 657 -6 718 10 693 -6 l 643 -6 "},"ª":{"ha":604,"x_min":0,"x_max":0,"o":"m 239 354 b 43 504 117 354 43 413 b 413 690 43 613 115 675 b 411 711 413 697 413 704 b 282 819 406 781 364 819 b 136 731 207 819 163 776 b 64 783 135 728 64 732 b 119 869 64 810 82 843 b 290 917 156 897 213 917 b 531 690 456 917 531 832 l 531 374 b 488 361 531 368 510 361 b 418 424 456 361 426 375 b 417 442 418 429 417 435 b 239 354 379 388 311 354 m 269 440 b 414 558 351 440 414 497 l 414 621 b 158 513 201 607 158 569 b 269 440 158 468 200 440 "},"º":{"ha":664,"x_min":0,"x_max":0,"o":"m 332 353 b 53 633 169 353 53 474 b 333 917 53 790 175 917 b 611 635 494 917 611 794 b 332 353 611 476 490 353 m 333 453 b 500 635 429 453 500 531 b 333 817 500 738 428 817 b 164 635 236 817 164 738 b 333 453 164 533 238 453 "},"μ":{"ha":785,"x_min":0,"x_max":0,"o":"m 639 675 b 700 608 675 675 700 660 l 700 10 b 650 -6 700 6 679 -6 b 572 50 624 -6 590 3 b 563 90 568 63 564 75 b 393 -17 528 32 471 -17 b 221 75 306 -17 249 25 l 221 -207 b 160 -272 221 -257 194 -272 l 146 -272 b 85 -207 110 -272 85 -257 l 85 608 b 144 675 85 658 110 675 l 160 675 b 221 608 196 675 221 660 l 221 242 b 392 103 221 160 290 103 b 564 221 475 103 535 150 l 564 608 b 624 675 564 658 589 675 l 639 675 "},"π":{"ha":1015,"x_min":0,"x_max":0,"o":"m 504 -17 b 63 447 281 -17 63 174 b 506 915 63 719 283 915 b 960 451 729 915 960 725 b 504 -17 960 179 725 -17 m 506 58 b 881 449 689 58 881 217 b 503 840 881 678 685 840 b 142 450 321 840 142 682 b 506 58 142 221 322 58 m 406 208 b 369 258 382 208 369 229 l 369 642 b 415 693 369 675 386 693 l 532 693 b 694 539 632 693 694 643 b 531 382 694 431 632 382 l 457 382 l 457 250 b 418 208 457 225 443 208 l 406 208 m 528 456 b 606 536 576 456 606 485 b 526 615 606 590 575 615 l 456 615 l 456 456 "},"⁰":{"ha":467,"x_min":0,"x_max":0,"o":"m 232 528 b 21 764 100 528 21 614 l 21 814 b 233 1051 21 963 101 1051 b 444 815 365 1051 444 964 l 444 765 b 232 528 444 615 365 528 m 233 618 b 335 757 299 618 335 665 l 335 824 b 232 961 335 914 299 961 b 132 824 168 961 132 915 l 132 757 b 233 618 132 667 168 618 "},"¹":{"ha":467,"x_min":0,"x_max":0,"o":"m 111 538 b 60 582 78 538 60 551 l 60 583 b 111 631 60 617 78 631 l 199 631 l 199 907 b 133 883 181 892 157 883 b 79 901 114 883 93 890 b 54 950 64 914 54 931 b 88 1006 54 988 83 1007 b 140 983 101 992 117 983 b 215 1046 176 983 210 1008 l 253 1046 b 303 993 285 1046 303 1029 l 303 631 l 372 631 b 425 583 407 631 425 617 l 425 582 b 372 538 425 551 407 538 l 111 538 "},"²":{"ha":467,"x_min":0,"x_max":0,"o":"m 115 538 b 47 594 63 538 47 553 l 47 618 b 201 797 47 719 117 758 b 317 893 264 828 317 847 b 231 963 317 935 285 963 b 124 872 165 963 135 918 b 49 922 122 869 49 865 b 99 1010 49 953 65 985 b 239 1051 131 1035 178 1051 b 424 896 356 1051 424 993 b 281 738 424 803 354 769 b 144 647 219 711 161 692 b 139 629 142 642 140 636 l 376 629 b 429 586 414 629 429 614 l 429 582 b 376 538 429 551 414 538 l 115 538 "},"³":{"ha":467,"x_min":0,"x_max":0,"o":"m 219 528 b 78 565 158 528 111 543 b 28 642 46 588 28 615 b 94 694 28 699 92 700 b 218 614 110 643 156 614 b 324 688 281 614 324 643 b 228 758 324 733 288 758 l 200 758 b 149 796 163 758 149 772 l 149 803 b 199 840 149 828 164 840 l 238 840 b 315 900 283 840 315 864 b 217 965 315 939 274 965 b 106 892 151 965 119 929 b 40 944 104 888 40 890 b 89 1018 40 971 58 997 b 219 1051 119 1038 165 1051 b 414 913 347 1051 414 1001 b 328 807 414 857 385 824 b 425 681 390 786 425 743 b 219 528 425 585 351 528 "},"⁴":{"ha":467,"x_min":0,"x_max":0,"o":"m 314 532 b 268 585 283 532 268 553 l 268 663 l 82 663 b 17 710 42 663 17 682 l 17 729 b 42 789 18 749 26 763 l 194 1003 b 289 1046 215 1039 232 1046 b 367 974 346 1046 367 1026 l 367 747 l 407 747 b 456 707 442 747 456 735 l 456 703 b 407 663 456 674 442 663 l 367 663 l 367 585 b 319 532 367 550 353 532 l 314 532 m 272 746 l 271 968 l 113 746 "},"⁵":{"ha":467,"x_min":0,"x_max":0,"o":"m 224 528 b 86 560 165 528 118 540 b 36 625 54 578 36 603 b 82 679 36 660 79 682 b 222 611 114 636 163 611 b 328 693 286 611 328 642 b 225 775 328 743 289 775 b 121 744 179 775 142 760 b 54 811 76 746 54 765 l 54 978 b 110 1040 54 1017 72 1040 l 353 1040 b 406 997 389 1040 406 1026 l 406 993 b 353 950 406 963 389 950 l 149 950 l 149 835 b 243 853 176 846 207 853 b 428 694 353 853 428 793 b 224 528 428 592 350 528 "},"⁶":{"ha":467,"x_min":0,"x_max":0,"o":"m 246 528 b 35 764 111 528 35 621 l 35 810 b 254 1051 35 961 118 1051 b 379 1022 310 1051 351 1040 b 422 956 408 1004 422 981 b 368 907 422 911 369 906 b 261 963 349 938 318 963 b 142 810 185 963 142 910 l 142 796 b 274 854 169 831 218 854 b 439 707 375 854 439 799 l 439 701 b 246 528 439 599 363 528 m 247 607 b 340 694 301 607 340 643 l 340 699 b 249 785 340 754 307 785 b 144 732 208 785 172 761 b 150 688 144 715 147 700 b 247 607 163 635 196 607 "},"⁷":{"ha":467,"x_min":0,"x_max":0,"o":"m 164 532 b 110 572 128 532 104 565 l 317 944 l 90 944 b 40 989 58 944 40 957 l 40 997 b 90 1040 40 1028 58 1040 l 357 1040 b 431 985 421 1040 431 1014 l 431 976 b 397 893 431 950 411 918 l 222 572 b 164 532 206 542 185 532 "},"⁸":{"ha":467,"x_min":0,"x_max":0,"o":"m 232 528 b 29 674 103 528 29 582 b 128 796 29 733 61 775 b 44 908 69 815 44 853 b 235 1053 44 996 117 1053 b 421 910 351 1053 421 997 b 338 796 421 854 394 815 b 436 674 404 776 436 735 b 232 528 436 585 360 528 m 233 824 b 324 896 290 824 324 853 b 232 972 324 940 290 972 b 142 896 175 972 142 942 b 233 824 142 853 178 824 m 233 608 b 333 686 297 608 333 639 b 232 765 333 733 294 765 b 132 686 171 765 132 733 b 233 608 132 640 171 608 "},"⁹":{"ha":467,"x_min":0,"x_max":0,"o":"m 211 528 b 86 556 156 528 114 539 b 43 619 57 574 43 596 b 97 669 43 664 96 671 b 206 614 117 638 150 614 b 321 710 271 614 308 644 b 326 767 325 726 326 746 l 326 776 b 194 717 300 742 254 717 b 29 869 94 717 29 775 b 221 1051 29 972 104 1051 b 432 814 354 1051 432 961 l 432 768 b 211 528 432 613 356 528 m 221 785 b 326 838 263 785 299 807 l 326 847 b 222 968 322 924 283 968 b 128 876 167 968 128 926 b 221 785 128 817 161 785 "},"⁄":{"ha":208,"x_min":0,"x_max":0,"o":"m -214 -40 b -264 0 -219 -46 -265 -39 b -232 72 -264 25 -258 38 b 56 419 -210 100 -57 281 b 422 881 168 558 422 881 b 472 842 425 883 472 882 b 438 769 472 822 464 801 b 151 419 417 742 263 558 b -214 -40 39 281 -214 -40 "},"½":{"ha":1142,"x_min":0,"x_max":0,"o":"m 111 399 b 60 443 78 399 60 413 l 60 444 b 111 492 60 478 78 492 l 199 492 l 199 768 b 133 744 181 753 157 744 b 79 763 114 744 93 751 b 54 811 64 775 54 792 b 88 867 54 849 83 868 b 140 844 101 853 117 844 b 215 907 176 844 210 869 l 253 907 b 303 854 285 907 303 890 l 303 492 l 372 492 b 425 444 407 492 425 478 l 425 443 b 372 399 425 413 407 399 l 111 399 m 253 -40 b 203 0 247 -46 201 -39 b 235 72 203 25 208 38 b 522 419 257 100 410 281 b 889 881 635 558 889 881 b 939 842 892 883 939 882 b 904 769 939 822 931 801 b 618 419 883 742 729 558 b 253 -40 506 281 253 -40 m 790 0 b 722 57 738 0 722 15 l 722 81 b 876 260 722 182 792 221 b 992 356 939 290 992 310 b 906 425 992 397 960 425 b 799 335 840 425 810 381 b 724 385 797 332 724 328 b 774 472 724 415 740 447 b 914 514 806 497 853 514 b 1099 358 1031 514 1099 456 b 956 200 1099 265 1029 232 b 819 110 894 174 836 154 b 814 92 817 104 815 99 l 1051 92 b 1104 49 1089 92 1104 76 l 1104 44 b 1051 0 1104 14 1089 0 l 790 0 "},"⅓":{"ha":1142,"x_min":0,"x_max":0,"o":"m 111 399 b 60 443 78 399 60 413 l 60 444 b 111 492 60 478 78 492 l 199 492 l 199 768 b 133 744 181 753 157 744 b 79 763 114 744 93 751 b 54 811 64 775 54 792 b 88 867 54 849 83 868 b 140 844 101 853 117 844 b 215 907 176 844 210 869 l 253 907 b 303 854 285 907 303 890 l 303 492 l 372 492 b 425 444 407 492 425 478 l 425 443 b 372 399 425 413 407 399 l 111 399 m 253 -40 b 203 0 247 -46 201 -39 b 235 72 203 25 208 38 b 522 419 257 100 410 281 b 889 881 635 558 889 881 b 939 842 892 883 939 882 b 904 769 939 822 931 801 b 618 419 883 742 729 558 b 253 -40 506 281 253 -40 m 894 -10 b 753 28 833 -10 786 6 b 703 104 721 50 703 78 b 769 157 703 161 767 163 b 893 76 785 106 831 76 b 999 150 956 76 999 106 b 903 221 999 196 963 221 l 875 221 b 824 258 838 221 824 235 l 824 265 b 874 303 824 290 839 303 l 913 303 b 990 363 958 303 990 326 b 892 428 990 401 949 428 b 781 354 826 428 794 392 b 715 407 779 350 715 353 b 764 481 715 433 733 460 b 894 514 794 500 840 514 b 1089 375 1022 514 1089 464 b 1003 269 1089 319 1060 286 b 1100 143 1065 249 1100 206 b 894 -10 1100 47 1026 -10 "},"⅔":{"ha":1142,"x_min":0,"x_max":0,"o":"m 115 399 b 47 456 63 399 47 414 l 47 479 b 201 658 47 581 117 619 b 317 754 264 689 317 708 b 231 824 317 796 285 824 b 124 733 165 824 135 779 b 49 783 122 731 49 726 b 99 871 49 814 65 846 b 239 913 131 896 178 913 b 424 757 356 913 424 854 b 281 599 424 664 354 631 b 144 508 219 572 161 553 b 139 490 142 503 140 497 l 376 490 b 429 447 414 490 429 475 l 429 443 b 376 399 429 413 414 399 l 115 399 m 253 -40 b 203 0 247 -46 201 -39 b 235 72 203 25 208 38 b 522 419 257 100 410 281 b 889 881 635 558 889 881 b 939 842 892 883 939 882 b 904 769 939 822 931 801 b 618 419 883 742 729 558 b 253 -40 506 281 253 -40 m 894 -10 b 753 28 833 -10 786 6 b 703 104 721 50 703 78 b 769 157 703 161 767 163 b 893 76 785 106 831 76 b 999 150 956 76 999 106 b 903 221 999 196 963 221 l 875 221 b 824 258 838 221 824 235 l 824 265 b 874 303 824 290 839 303 l 913 303 b 990 363 958 303 990 326 b 892 428 990 401 949 428 b 781 354 826 428 794 392 b 715 407 779 350 715 353 b 764 481 715 433 733 460 b 894 514 794 500 840 514 b 1089 375 1022 514 1089 464 b 1003 269 1089 319 1060 286 b 1100 143 1065 249 1100 206 b 894 -10 1100 47 1026 -10 "},"¼":{"ha":1100,"x_min":0,"x_max":0,"o":"m 111 399 b 60 443 78 399 60 413 l 60 444 b 111 492 60 478 78 492 l 199 492 l 199 768 b 133 744 181 753 157 744 b 79 763 114 744 93 751 b 54 811 64 775 54 792 b 88 867 54 849 83 868 b 140 844 101 853 117 844 b 215 907 176 844 210 869 l 253 907 b 303 854 285 907 303 890 l 303 492 l 372 492 b 425 444 407 492 425 478 l 425 443 b 372 399 425 413 407 399 l 111 399 m 253 -40 b 203 0 247 -46 201 -39 b 235 72 203 25 208 38 b 522 419 257 100 410 281 b 889 881 635 558 889 881 b 939 842 892 883 939 882 b 904 769 939 822 931 801 b 618 419 883 742 729 558 b 253 -40 506 281 253 -40 m 947 -6 b 901 47 917 -6 901 15 l 901 125 l 715 125 b 650 172 675 125 650 144 l 650 192 b 675 251 651 211 660 225 l 828 465 b 922 508 849 501 865 508 b 1000 436 979 508 1000 489 l 1000 210 l 1040 210 b 1089 169 1075 210 1089 197 l 1089 165 b 1040 125 1089 136 1075 125 l 1000 125 l 1000 47 b 953 -6 1000 13 986 -6 l 947 -6 m 906 208 l 904 431 l 746 208 "},"¾":{"ha":1072,"x_min":0,"x_max":0,"o":"m 219 389 b 78 426 158 389 111 404 b 28 503 46 449 28 476 b 94 556 28 560 92 561 b 218 475 110 504 156 475 b 324 549 281 475 324 504 b 228 619 324 594 288 619 l 200 619 b 149 657 163 619 149 633 l 149 664 b 199 701 149 689 164 701 l 238 701 b 315 761 283 701 315 725 b 217 826 315 800 274 826 b 106 753 151 826 119 790 b 40 806 104 749 40 751 b 89 879 40 832 58 858 b 219 913 119 899 165 913 b 414 774 347 913 414 863 b 328 668 414 718 385 685 b 425 542 390 647 425 604 b 219 389 425 446 351 389 m 225 -40 b 175 0 219 -46 174 -39 b 207 72 175 25 181 38 b 494 419 229 100 382 281 b 861 881 607 558 861 881 b 911 842 864 883 911 882 b 876 769 911 822 903 801 b 590 419 856 742 701 558 b 225 -40 478 281 225 -40 m 919 -6 b 874 47 889 -6 874 15 l 874 125 l 688 125 b 622 172 647 125 622 144 l 622 192 b 647 251 624 211 632 225 l 800 465 b 894 508 821 501 838 508 b 972 436 951 508 972 489 l 972 210 l 1013 210 b 1061 169 1047 210 1061 197 l 1061 165 b 1013 125 1061 136 1047 125 l 972 125 l 972 47 b 925 -6 972 13 958 -6 l 919 -6 m 878 208 l 876 431 l 718 208 "},"⅕":{"ha":1156,"x_min":0,"x_max":0,"o":"m 111 399 b 60 443 78 399 60 413 l 60 444 b 111 492 60 478 78 492 l 199 492 l 199 768 b 133 744 181 753 157 744 b 79 763 114 744 93 751 b 54 811 64 775 54 792 b 88 867 54 849 83 868 b 140 844 101 853 117 844 b 215 907 176 844 210 869 l 253 907 b 303 854 285 907 303 890 l 303 492 l 372 492 b 425 444 407 492 425 478 l 425 443 b 372 399 425 413 407 399 l 111 399 m 253 -40 b 203 0 247 -46 201 -39 b 235 72 203 25 208 38 b 522 419 257 100 410 281 b 889 881 635 558 889 881 b 939 842 892 883 939 882 b 904 769 939 822 931 801 b 618 419 883 742 729 558 b 253 -40 506 281 253 -40 m 913 -10 b 775 22 854 -10 807 3 b 725 88 743 40 725 65 b 771 142 725 122 768 144 b 911 74 803 99 851 74 b 1017 156 975 74 1017 104 b 914 238 1017 206 978 238 b 810 207 868 238 831 222 b 743 274 765 208 743 228 l 743 440 b 799 503 743 479 761 503 l 1042 503 b 1094 460 1078 503 1094 489 l 1094 456 b 1042 413 1094 425 1078 413 l 838 413 l 838 297 b 932 315 865 308 896 315 b 1117 157 1042 315 1117 256 b 913 -10 1117 54 1039 -10 "},"⅖":{"ha":1156,"x_min":0,"x_max":0,"o":"m 115 399 b 47 456 63 399 47 414 l 47 479 b 201 658 47 581 117 619 b 317 754 264 689 317 708 b 231 824 317 796 285 824 b 124 733 165 824 135 779 b 49 783 122 731 49 726 b 99 871 49 814 65 846 b 239 913 131 896 178 913 b 424 757 356 913 424 854 b 281 599 424 664 354 631 b 144 508 219 572 161 553 b 139 490 142 503 140 497 l 376 490 b 429 447 414 490 429 475 l 429 443 b 376 399 429 413 414 399 l 115 399 m 253 -40 b 203 0 247 -46 201 -39 b 235 72 203 25 208 38 b 522 419 257 100 410 281 b 889 881 635 558 889 881 b 939 842 892 883 939 882 b 904 769 939 822 931 801 b 618 419 883 742 729 558 b 253 -40 506 281 253 -40 m 913 -10 b 775 22 854 -10 807 3 b 725 88 743 40 725 65 b 771 142 725 122 768 144 b 911 74 803 99 851 74 b 1017 156 975 74 1017 104 b 914 238 1017 206 978 238 b 810 207 868 238 831 222 b 743 274 765 208 743 228 l 743 440 b 799 503 743 479 761 503 l 1042 503 b 1094 460 1078 503 1094 489 l 1094 456 b 1042 413 1094 425 1078 413 l 838 413 l 838 297 b 932 315 865 308 896 315 b 1117 157 1042 315 1117 256 b 913 -10 1117 54 1039 -10 "},"⅗":{"ha":1128,"x_min":0,"x_max":0,"o":"m 219 389 b 78 426 158 389 111 404 b 28 503 46 449 28 476 b 94 556 28 560 92 561 b 218 475 110 504 156 475 b 324 549 281 475 324 504 b 228 619 324 594 288 619 l 200 619 b 149 657 163 619 149 633 l 149 664 b 199 701 149 689 164 701 l 238 701 b 315 761 283 701 315 725 b 217 826 315 800 274 826 b 106 753 151 826 119 790 b 40 806 104 749 40 751 b 89 879 40 832 58 858 b 219 913 119 899 165 913 b 414 774 347 913 414 863 b 328 668 414 718 385 685 b 425 542 390 647 425 604 b 219 389 425 446 351 389 m 225 -40 b 175 0 219 -46 174 -39 b 207 72 175 25 181 38 b 494 419 229 100 382 281 b 861 881 607 558 861 881 b 911 842 864 883 911 882 b 876 769 911 822 903 801 b 590 419 856 742 701 558 b 225 -40 478 281 225 -40 m 885 -10 b 747 22 826 -10 779 3 b 697 88 715 40 697 65 b 743 142 697 122 740 144 b 883 74 775 99 824 74 b 989 156 947 74 989 104 b 886 238 989 206 950 238 b 782 207 840 238 803 222 b 715 274 738 208 715 228 l 715 440 b 771 503 715 479 733 503 l 1014 503 b 1067 460 1050 503 1067 489 l 1067 456 b 1014 413 1067 425 1050 413 l 810 413 l 810 297 b 904 315 838 308 868 315 b 1089 157 1014 315 1089 256 b 885 -10 1089 54 1011 -10 "},"⅘":{"ha":1156,"x_min":0,"x_max":0,"o":"m 314 393 b 268 446 283 393 268 414 l 268 524 l 82 524 b 17 571 42 524 17 543 l 17 590 b 42 650 18 610 26 624 l 194 864 b 289 907 215 900 232 907 b 367 835 346 907 367 888 l 367 608 l 407 608 b 456 568 442 608 456 596 l 456 564 b 407 524 456 535 442 524 l 367 524 l 367 446 b 319 393 367 411 353 393 l 314 393 m 253 -40 b 203 0 247 -46 201 -39 b 235 72 203 25 208 38 b 522 419 257 100 410 281 b 889 881 635 558 889 881 b 939 842 892 883 939 882 b 904 769 939 822 931 801 b 618 419 883 742 729 558 b 253 -40 506 281 253 -40 m 272 607 l 271 829 l 113 607 m 913 -10 b 775 22 854 -10 807 3 b 725 88 743 40 725 65 b 771 142 725 122 768 144 b 911 74 803 99 851 74 b 1017 156 975 74 1017 104 b 914 238 1017 206 978 238 b 810 207 868 238 831 222 b 743 274 765 208 743 228 l 743 440 b 799 503 743 479 761 503 l 1042 503 b 1094 460 1078 503 1094 489 l 1094 456 b 1042 413 1094 425 1078 413 l 838 413 l 838 297 b 932 315 865 308 896 315 b 1117 157 1042 315 1117 256 b 913 -10 1117 54 1039 -10 "},"⅙":{"ha":1142,"x_min":0,"x_max":0,"o":"m 111 399 b 60 443 78 399 60 413 l 60 444 b 111 492 60 478 78 492 l 199 492 l 199 768 b 133 744 181 753 157 744 b 79 763 114 744 93 751 b 54 811 64 775 54 792 b 88 867 54 849 83 868 b 140 844 101 853 117 844 b 215 907 176 844 210 869 l 253 907 b 303 854 285 907 303 890 l 303 492 l 372 492 b 425 444 407 492 425 478 l 425 443 b 372 399 425 413 407 399 l 111 399 m 253 -40 b 203 0 247 -46 201 -39 b 235 72 203 25 208 38 b 522 419 257 100 410 281 b 889 881 635 558 889 881 b 939 842 892 883 939 882 b 904 769 939 822 931 801 b 618 419 883 742 729 558 b 253 -40 506 281 253 -40 m 921 -10 b 710 226 786 -10 710 83 l 710 272 b 929 514 710 424 793 514 b 1054 485 985 514 1026 503 b 1097 418 1083 467 1097 443 b 1043 369 1097 374 1044 368 b 936 425 1024 400 993 425 b 817 272 860 425 817 372 l 817 258 b 949 317 844 293 893 317 b 1114 169 1050 317 1114 261 l 1114 164 b 921 -10 1114 61 1038 -10 m 922 69 b 1015 157 976 69 1015 106 l 1015 161 b 924 247 1015 217 982 247 b 819 194 883 247 847 224 b 825 150 819 178 822 163 b 922 69 838 97 871 69 "},"⅚":{"ha":1114,"x_min":0,"x_max":0,"o":"m 224 389 b 86 421 165 389 118 401 b 36 486 54 439 36 464 b 82 540 36 521 79 543 b 222 472 114 497 163 472 b 328 554 286 472 328 503 b 225 636 328 604 289 636 b 121 606 179 636 142 621 b 54 672 76 607 54 626 l 54 839 b 110 901 54 878 72 901 l 353 901 b 406 858 389 901 406 888 l 406 854 b 353 811 406 824 389 811 l 149 811 l 149 696 b 243 714 176 707 207 714 b 428 556 353 714 428 654 b 224 389 428 453 350 389 m 225 -40 b 175 0 219 -46 174 -39 b 207 72 175 25 181 38 b 494 419 229 100 382 281 b 861 881 607 558 861 881 b 911 842 864 883 911 882 b 876 769 911 822 903 801 b 590 419 856 742 701 558 b 225 -40 478 281 225 -40 m 893 -10 b 682 226 758 -10 682 83 l 682 272 b 901 514 682 424 765 514 b 1026 485 957 514 999 503 b 1069 418 1056 467 1069 443 b 1015 369 1069 374 1017 368 b 908 425 996 400 965 425 b 789 272 832 425 789 372 l 789 258 b 921 317 817 293 865 317 b 1086 169 1022 317 1086 261 l 1086 164 b 893 -10 1086 61 1010 -10 m 894 69 b 988 157 949 69 988 106 l 988 161 b 896 247 988 217 954 247 b 792 194 856 247 819 224 b 797 150 792 178 794 163 b 894 69 810 97 843 69 "},"⅐":{"ha":1156,"x_min":0,"x_max":0,"o":"m 111 399 b 60 443 78 399 60 413 l 60 444 b 111 492 60 478 78 492 l 199 492 l 199 768 b 133 744 181 753 157 744 b 79 763 114 744 93 751 b 54 811 64 775 54 792 b 88 867 54 849 83 868 b 140 844 101 853 117 844 b 215 907 176 844 210 869 l 253 907 b 303 854 285 907 303 890 l 303 492 l 372 492 b 425 444 407 492 425 478 l 425 443 b 372 399 425 413 407 399 l 111 399 m 253 -40 b 203 0 247 -46 201 -39 b 235 72 203 25 208 38 b 522 419 257 100 410 281 b 889 881 635 558 889 881 b 939 842 892 883 939 882 b 904 769 939 822 931 801 b 618 419 883 742 729 558 b 253 -40 506 281 253 -40 m 853 -6 b 799 35 817 -6 793 28 l 1006 407 l 779 407 b 729 451 747 407 729 419 l 729 460 b 779 503 729 490 747 503 l 1046 503 b 1119 447 1110 503 1119 476 l 1119 439 b 1086 356 1119 413 1100 381 l 911 35 b 853 -6 894 4 874 -6 "},"⅛":{"ha":1142,"x_min":0,"x_max":0,"o":"m 111 399 b 60 443 78 399 60 413 l 60 444 b 111 492 60 478 78 492 l 199 492 l 199 768 b 133 744 181 753 157 744 b 79 763 114 744 93 751 b 54 811 64 775 54 792 b 88 867 54 849 83 868 b 140 844 101 853 117 844 b 215 907 176 844 210 869 l 253 907 b 303 854 285 907 303 890 l 303 492 l 372 492 b 425 444 407 492 425 478 l 425 443 b 372 399 425 413 407 399 l 111 399 m 253 -40 b 203 0 247 -46 201 -39 b 235 72 203 25 208 38 b 522 419 257 100 410 281 b 889 881 635 558 889 881 b 939 842 892 883 939 882 b 904 769 939 822 931 801 b 618 419 883 742 729 558 b 253 -40 506 281 253 -40 m 907 -10 b 704 136 778 -10 704 44 b 803 258 704 196 736 238 b 719 371 744 278 719 315 b 910 515 719 458 792 515 b 1096 372 1026 515 1096 460 b 1013 258 1096 317 1069 278 b 1111 136 1079 239 1111 197 b 907 -10 1111 47 1035 -10 m 908 286 b 999 358 965 286 999 315 b 907 435 999 403 965 435 b 817 358 850 435 817 404 b 908 286 817 315 853 286 m 908 71 b 1008 149 972 71 1008 101 b 907 228 1008 196 969 228 b 807 149 846 228 807 196 b 908 71 807 103 846 71 "},"⅜":{"ha":1114,"x_min":0,"x_max":0,"o":"m 219 389 b 78 426 158 389 111 404 b 28 503 46 449 28 476 b 94 556 28 560 92 561 b 218 475 110 504 156 475 b 324 549 281 475 324 504 b 228 619 324 594 288 619 l 200 619 b 149 657 163 619 149 633 l 149 664 b 199 701 149 689 164 701 l 238 701 b 315 761 283 701 315 725 b 217 826 315 800 274 826 b 106 753 151 826 119 790 b 40 806 104 749 40 751 b 89 879 40 832 58 858 b 219 913 119 899 165 913 b 414 774 347 913 414 863 b 328 668 414 718 385 685 b 425 542 390 647 425 604 b 219 389 425 446 351 389 m 225 -40 b 175 0 219 -46 174 -39 b 207 72 175 25 181 38 b 494 419 229 100 382 281 b 861 881 607 558 861 881 b 911 842 864 883 911 882 b 876 769 911 822 903 801 b 590 419 856 742 701 558 b 225 -40 478 281 225 -40 m 879 -10 b 676 136 750 -10 676 44 b 775 258 676 196 708 238 b 692 371 717 278 692 315 b 882 515 692 458 764 515 b 1068 372 999 515 1068 460 b 985 258 1068 317 1042 278 b 1083 136 1051 239 1083 197 b 879 -10 1083 47 1007 -10 m 881 286 b 971 358 938 286 971 315 b 879 435 971 403 938 435 b 789 358 822 435 789 404 b 881 286 789 315 825 286 m 881 71 b 981 149 944 71 981 101 b 879 228 981 196 942 228 b 779 149 818 228 779 196 b 881 71 779 103 818 71 "},"⅝":{"ha":1114,"x_min":0,"x_max":0,"o":"m 224 389 b 86 421 165 389 118 401 b 36 486 54 439 36 464 b 82 540 36 521 79 543 b 222 472 114 497 163 472 b 328 554 286 472 328 503 b 225 636 328 604 289 636 b 121 606 179 636 142 621 b 54 672 76 607 54 626 l 54 839 b 110 901 54 878 72 901 l 353 901 b 406 858 389 901 406 888 l 406 854 b 353 811 406 824 389 811 l 149 811 l 149 696 b 243 714 176 707 207 714 b 428 556 353 714 428 654 b 224 389 428 453 350 389 m 225 -40 b 175 0 219 -46 174 -39 b 207 72 175 25 181 38 b 494 419 229 100 382 281 b 861 881 607 558 861 881 b 911 842 864 883 911 882 b 876 769 911 822 903 801 b 590 419 856 742 701 558 b 225 -40 478 281 225 -40 m 879 -10 b 676 136 750 -10 676 44 b 775 258 676 196 708 238 b 692 371 717 278 692 315 b 882 515 692 458 764 515 b 1068 372 999 515 1068 460 b 985 258 1068 317 1042 278 b 1083 136 1051 239 1083 197 b 879 -10 1083 47 1007 -10 m 881 286 b 971 358 938 286 971 315 b 879 435 971 403 938 435 b 789 358 822 435 789 404 b 881 286 789 315 825 286 m 881 71 b 981 149 944 71 981 101 b 879 228 981 196 942 228 b 779 149 818 228 779 196 b 881 71 779 103 818 71 "},"⅞":{"ha":1058,"x_min":0,"x_max":0,"o":"m 164 393 b 110 433 128 393 104 426 l 317 806 l 90 806 b 40 850 58 806 40 818 l 40 858 b 90 901 40 889 58 901 l 357 901 b 431 846 421 901 431 875 l 431 838 b 397 754 431 811 411 779 l 222 433 b 164 393 206 403 185 393 m 169 -40 b 119 0 164 -46 118 -39 b 151 72 119 25 125 38 b 439 419 174 100 326 281 b 806 881 551 558 806 881 b 856 842 808 883 856 882 b 821 769 856 822 847 801 b 535 419 800 742 646 558 b 169 -40 422 281 169 -40 m 824 -10 b 621 136 694 -10 621 44 b 719 258 621 196 653 238 b 636 371 661 278 636 315 b 826 515 636 458 708 515 b 1013 372 943 515 1013 460 b 929 258 1013 317 986 278 b 1028 136 996 239 1028 197 b 824 -10 1028 47 951 -10 m 825 286 b 915 358 882 286 915 315 b 824 435 915 403 882 435 b 733 358 767 435 733 404 b 825 286 733 315 769 286 m 825 71 b 925 149 889 71 925 101 b 824 228 925 196 886 228 b 724 149 763 228 724 196 b 825 71 724 103 763 71 "},"⅑":{"ha":1142,"x_min":0,"x_max":0,"o":"m 111 399 b 60 443 78 399 60 413 l 60 444 b 111 492 60 478 78 492 l 199 492 l 199 768 b 133 744 181 753 157 744 b 79 763 114 744 93 751 b 54 811 64 775 54 792 b 88 867 54 849 83 868 b 140 844 101 853 117 844 b 215 907 176 844 210 869 l 253 907 b 303 854 285 907 303 890 l 303 492 l 372 492 b 425 444 407 492 425 478 l 425 443 b 372 399 425 413 407 399 l 111 399 m 253 -40 b 203 0 247 -46 201 -39 b 235 72 203 25 208 38 b 522 419 257 100 410 281 b 889 881 635 558 889 881 b 939 842 892 883 939 882 b 904 769 939 822 931 801 b 618 419 883 742 729 558 b 253 -40 506 281 253 -40 m 886 -10 b 761 18 831 -10 789 1 b 718 82 732 36 718 58 b 772 132 718 126 771 133 b 881 76 792 100 825 76 b 996 172 946 76 983 107 b 1001 229 1000 189 1001 208 l 1001 239 b 869 179 975 204 929 179 b 704 332 769 179 704 238 b 896 514 704 435 779 514 b 1107 276 1029 514 1107 424 l 1107 231 b 886 -10 1107 75 1031 -10 m 896 247 b 1001 300 938 247 974 269 l 1001 310 b 897 431 997 386 958 431 b 803 339 842 431 803 389 b 896 247 803 279 836 247 "},"⅒":{"ha":1608,"x_min":0,"x_max":0,"o":"m 111 399 b 60 443 78 399 60 413 l 60 444 b 111 492 60 478 78 492 l 199 492 l 199 768 b 133 744 181 753 157 744 b 79 763 114 744 93 751 b 54 811 64 775 54 792 b 88 867 54 849 83 868 b 140 844 101 853 117 844 b 215 907 176 844 210 869 l 253 907 b 303 854 285 907 303 890 l 303 492 l 372 492 b 425 444 407 492 425 478 l 425 443 b 372 399 425 413 407 399 l 111 399 m 253 -40 b 203 0 247 -46 201 -39 b 235 72 203 25 208 38 b 522 419 257 100 410 281 b 889 881 635 558 889 881 b 939 842 892 883 939 882 b 904 769 939 822 931 801 b 618 419 883 742 729 558 b 253 -40 506 281 253 -40 m 1374 -10 b 1163 226 1242 -10 1163 76 l 1163 276 b 1375 514 1163 425 1243 514 b 1586 278 1507 514 1586 426 l 1586 228 b 1374 -10 1586 78 1507 -10 m 786 0 b 735 44 753 0 735 14 l 735 46 b 786 93 735 79 753 93 l 874 93 l 874 369 b 808 346 856 354 832 346 b 754 364 789 346 768 353 b 729 413 739 376 729 393 b 763 468 729 450 758 469 b 815 446 776 454 792 446 b 890 508 851 446 885 471 l 928 508 b 978 456 960 508 978 492 l 978 93 l 1047 93 b 1100 46 1082 93 1100 79 l 1100 44 b 1047 0 1100 14 1082 0 l 786 0 m 1375 81 b 1476 219 1440 81 1476 128 l 1476 286 b 1374 424 1476 376 1440 424 b 1274 286 1310 424 1274 378 l 1274 219 b 1375 81 1274 129 1310 81 "},".":{"ha":308,"x_min":0,"x_max":0,"o":"m 69 82 b 144 158 69 131 94 158 l 163 158 b 239 82 214 158 239 131 l 239 65 b 163 -10 239 17 213 -10 l 144 -10 b 69 65 96 -10 69 17 "},",":{"ha":308,"x_min":0,"x_max":0,"o":"m 93 99 b 164 164 106 142 117 164 l 176 164 b 235 99 211 164 235 142 l 235 92 b 203 8 235 68 229 43 l 88 -169 b 18 -137 69 -193 7 -179 "},":":{"ha":342,"x_min":0,"x_max":0,"o":"m 86 533 b 161 608 86 582 111 608 l 179 608 b 256 533 231 608 256 582 l 256 517 b 179 442 256 468 229 442 l 161 442 b 86 517 113 442 86 468 m 86 82 b 161 158 86 131 111 158 l 179 158 b 256 82 231 158 256 131 l 256 65 b 179 -10 256 17 229 -10 l 161 -10 b 86 65 113 -10 86 17 "},";":{"ha":342,"x_min":0,"x_max":0,"o":"m 161 442 b 86 517 113 442 86 468 l 86 533 b 161 608 86 582 111 608 l 179 608 b 256 533 231 608 256 582 l 256 517 b 179 442 256 468 229 442 l 161 442 m 104 -169 b 35 -137 86 -193 24 -179 l 110 99 b 181 164 122 142 133 164 l 193 164 b 251 99 228 164 251 142 l 251 92 b 219 8 251 68 246 43 l 104 -169 "},"…":{"ha":926,"x_min":0,"x_max":0,"o":"m 69 82 b 144 158 69 131 94 158 l 163 158 b 239 82 214 158 239 131 l 239 65 b 163 -10 239 17 213 -10 l 144 -10 b 69 65 96 -10 69 17 m 378 82 b 453 158 378 131 404 158 l 471 158 b 547 82 522 158 547 131 l 547 65 b 471 -10 547 17 522 -10 l 453 -10 b 378 65 404 -10 378 17 m 686 82 b 761 158 686 131 713 158 l 779 158 b 857 82 831 158 857 131 l 857 65 b 779 -10 857 17 831 -10 l 761 -10 b 686 65 713 -10 686 17 "},"!":{"ha":361,"x_min":0,"x_max":0,"o":"m 172 261 b 139 308 151 261 144 278 l 97 822 b 163 907 90 881 118 907 l 197 907 b 264 822 244 907 272 881 l 222 308 b 188 261 218 278 211 261 l 172 261 m 171 -10 b 96 65 122 -10 96 17 l 96 82 b 171 158 96 131 122 158 l 189 158 b 265 82 240 158 265 131 l 265 65 b 189 -10 265 17 240 -10 l 171 -10 "},"¡":{"ha":361,"x_min":0,"x_max":0,"o":"m 172 742 b 96 817 121 742 96 768 l 96 833 b 172 908 96 882 122 908 l 190 908 b 265 833 239 908 265 882 l 265 817 b 190 742 265 768 240 742 l 172 742 m 164 -8 b 97 76 117 -8 89 19 l 139 592 b 174 638 144 621 151 638 l 189 638 b 222 592 211 638 217 621 l 264 76 b 199 -8 272 19 244 -8 l 164 -8 "},"?":{"ha":665,"x_min":0,"x_max":0,"o":"m 299 257 b 240 304 264 257 239 272 b 369 528 244 433 308 488 b 493 668 432 569 493 596 b 336 799 493 747 436 799 b 139 622 204 799 151 708 b 42 696 138 618 42 621 b 114 838 42 738 65 793 b 339 915 163 882 236 915 b 629 679 519 915 629 817 b 494 471 629 565 563 517 b 356 288 426 426 358 386 b 299 257 353 267 331 257 m 292 -10 b 217 65 243 -10 217 17 l 217 82 b 292 158 217 131 243 158 l 311 158 b 388 82 361 158 388 131 l 388 65 b 311 -10 388 17 361 -10 l 292 -10 "},"¿":{"ha":665,"x_min":0,"x_max":0,"o":"m 354 740 b 278 817 304 740 278 768 l 278 833 b 354 908 278 882 304 908 l 374 908 b 449 833 422 908 449 882 l 449 817 b 374 740 449 768 422 740 l 354 740 m 326 -17 b 36 219 146 -17 36 82 b 171 428 36 333 103 382 b 310 611 239 472 307 513 b 367 642 313 632 335 642 b 425 594 401 642 426 626 b 296 371 421 465 357 411 b 172 231 233 329 172 303 b 329 100 172 151 229 100 b 526 276 461 100 514 190 b 624 203 528 281 624 278 b 551 61 624 161 600 106 b 326 -17 503 17 429 -17 "},"·":{"ha":322,"x_min":0,"x_max":0,"o":"m 150 256 b 75 329 101 256 75 281 l 75 346 b 150 422 75 394 101 422 l 169 422 b 246 346 219 422 246 394 l 246 329 b 169 256 246 281 219 256 l 150 256 "},"•":{"ha":464,"x_min":0,"x_max":0,"o":"m 75 338 b 232 499 75 426 143 499 b 390 338 321 499 390 426 b 232 179 390 250 319 179 b 75 338 143 179 75 249 "},"*":{"ha":544,"x_min":0,"x_max":0,"o":"m 121 460 b 113 518 101 471 96 488 l 185 636 l 60 689 b 32 740 28 703 25 715 l 33 746 b 86 771 40 768 53 776 l 221 738 l 232 872 b 272 915 236 908 249 915 l 278 915 b 318 872 300 915 314 908 l 326 738 l 461 771 b 515 746 494 776 508 767 l 517 740 b 489 689 524 715 521 703 l 361 636 l 435 518 b 426 460 453 488 444 472 l 422 457 b 365 468 406 444 389 442 l 274 575 l 183 468 b 125 457 158 442 144 444 "},"#":{"ha":921,"x_min":0,"x_max":0,"o":"m 200 -10 b 133 64 174 -10 133 10 b 144 117 133 76 138 96 l 178 226 l 72 226 b 13 274 33 226 13 242 l 13 288 b 72 336 13 321 33 336 l 213 336 l 282 563 l 176 563 b 117 611 138 563 117 578 l 117 624 b 176 672 117 657 138 672 l 315 672 l 386 903 b 404 908 386 906 394 908 b 471 835 431 908 471 889 b 460 782 471 822 467 804 l 425 672 l 632 672 l 703 903 b 722 908 704 906 713 908 b 788 835 747 908 788 889 b 776 782 788 822 783 804 l 743 672 l 849 672 b 908 625 889 672 908 657 l 908 611 b 849 563 908 578 889 563 l 708 563 l 639 336 l 744 336 b 804 289 783 336 804 321 l 804 275 b 744 226 804 242 783 226 l 606 226 l 536 -4 b 517 -10 535 -7 526 -10 b 451 64 490 -10 451 10 b 461 117 451 76 456 96 l 494 226 l 289 226 l 218 -4 b 200 -10 218 -7 210 -10 m 531 333 l 601 565 l 390 565 l 319 333 "},"/":{"ha":471,"x_min":0,"x_max":0,"o":"m 83 -281 b 6 -217 53 -281 6 -272 b 17 -161 6 -204 10 -183 l 347 903 b 375 908 347 904 360 908 b 451 844 404 908 451 901 b 440 789 451 832 447 813 l 111 -275 b 83 -281 111 -278 97 -281 "},"\\":{"ha":471,"x_min":0,"x_max":0,"o":"m 388 -281 b 360 -275 372 -281 360 -278 l 29 789 b 18 844 22 813 18 832 b 96 908 18 901 65 908 b 124 903 110 908 124 904 l 453 -161 b 464 -217 460 -183 464 -204 b 388 -281 464 -272 417 -281 "},"(":{"ha":521,"x_min":0,"x_max":0,"o":"m 450 -275 b 232 -162 379 -275 300 -235 b 60 315 135 -61 60 106 b 238 796 60 522 138 693 b 450 906 304 867 381 906 b 514 850 490 906 514 888 b 493 801 514 828 497 804 b 200 317 307 760 200 551 b 493 -172 200 74 307 -129 b 514 -219 497 -174 514 -197 b 450 -275 514 -257 490 -275 "},")":{"ha":521,"x_min":0,"x_max":0,"o":"m 71 -275 b 7 -219 31 -275 7 -257 b 28 -172 7 -197 24 -174 b 321 317 214 -129 321 74 b 28 801 321 551 214 760 b 7 850 24 804 7 828 b 71 906 7 888 31 906 b 304 774 147 906 233 857 b 461 315 394 668 461 507 b 308 -142 461 121 396 -37 b 71 -275 236 -226 149 -275 "},"{":{"ha":601,"x_min":0,"x_max":0,"o":"m 513 -276 b 318 -183 449 -276 378 -247 b 190 163 251 -112 200 1 l 114 204 b 33 315 50 238 33 251 b 114 426 33 379 53 394 l 190 468 b 317 810 200 626 251 739 b 514 907 376 876 449 907 b 578 847 553 907 578 885 b 557 800 578 824 561 801 b 321 404 383 768 328 638 l 156 315 l 319 226 b 556 -169 328 -7 382 -137 b 578 -217 561 -171 578 -193 b 513 -276 578 -254 551 -276 "},"}":{"ha":601,"x_min":0,"x_max":0,"o":"m 88 -276 b 24 -217 49 -276 24 -254 b 44 -169 24 -193 40 -171 b 281 226 218 -137 274 -7 l 444 315 l 281 404 b 44 800 272 638 218 768 b 22 847 39 801 22 824 b 86 907 22 885 47 907 b 292 803 154 907 231 874 b 410 468 354 731 401 621 l 488 426 b 568 315 547 394 568 379 b 488 204 568 251 550 238 l 411 163 b 293 -172 403 10 356 -100 b 88 -276 232 -243 156 -276 "},"[":{"ha":479,"x_min":0,"x_max":0,"o":"m 174 -275 b 97 -194 128 -275 97 -243 l 97 822 b 174 903 97 871 128 903 l 388 903 b 453 850 435 903 453 886 l 453 840 b 388 786 453 803 435 786 l 226 786 l 226 -158 l 388 -158 b 454 -211 436 -158 454 -175 l 454 -219 b 388 -275 454 -257 436 -275 l 174 -275 "},"]":{"ha":479,"x_min":0,"x_max":0,"o":"m 92 -275 b 25 -219 43 -275 25 -257 l 25 -211 b 92 -158 25 -175 43 -158 l 253 -158 l 253 786 l 93 786 b 26 840 44 786 26 803 l 26 850 b 93 903 26 886 44 903 l 306 903 b 382 822 351 903 382 871 l 382 -194 b 306 -275 382 -243 351 -275 l 92 -275 "},"-":{"ha":546,"x_min":0,"x_max":0,"o":"m 57 347 b 117 401 57 379 78 401 l 429 401 b 489 347 469 401 489 379 l 489 328 b 429 275 489 296 469 275 l 117 275 b 57 328 78 275 57 296 "},"­":{"ha":546,"x_min":0,"x_max":0,"o":"m 117 275 b 57 328 78 275 57 296 l 57 347 b 117 401 57 379 78 401 l 429 401 b 489 347 469 401 489 379 l 489 328 b 429 275 489 296 469 275 l 117 275 "},"–":{"ha":749,"x_min":0,"x_max":0,"o":"m 57 344 b 117 397 57 375 74 397 l 629 397 b 689 344 672 397 689 375 l 689 332 b 629 279 689 300 672 279 l 117 279 b 57 332 74 279 57 300 "},"—":{"ha":979,"x_min":0,"x_max":0,"o":"m 57 344 b 117 397 57 375 74 397 l 863 397 b 922 344 906 397 922 375 l 922 332 b 863 279 922 300 906 279 l 117 279 b 57 332 74 279 57 300 "},"_":{"ha":665,"x_min":0,"x_max":0,"o":"m -60 -110 b 0 -56 -60 -76 -39 -56 l 665 -56 b 725 -110 704 -56 725 -76 l 725 -117 b 665 -169 725 -150 704 -169 l 0 -169 b -60 -117 -39 -169 -60 -150 "},"‚":{"ha":300,"x_min":0,"x_max":0,"o":"m 92 -167 b 22 -136 72 -192 10 -176 l 96 100 b 168 165 110 144 119 165 l 181 165 b 239 100 215 165 239 143 l 239 94 b 207 10 239 67 228 38 l 92 -167 "},"„":{"ha":543,"x_min":0,"x_max":0,"o":"m 90 -167 b 21 -136 72 -192 10 -176 l 96 100 b 167 165 108 144 119 165 l 179 165 b 238 100 214 165 238 143 l 238 94 b 206 10 238 67 226 38 l 90 -167 m 335 -167 b 264 -136 315 -192 251 -176 l 339 100 b 410 165 353 144 361 165 l 424 165 b 481 100 457 165 481 143 l 481 94 b 449 10 481 67 469 39 l 335 -167 "},"“":{"ha":543,"x_min":0,"x_max":0,"o":"m 108 572 b 50 638 75 572 50 594 l 50 643 b 83 728 50 671 63 699 l 197 904 b 267 874 218 929 279 914 l 193 638 b 122 572 181 593 169 572 l 108 572 m 351 572 b 293 638 318 572 293 594 l 293 643 b 326 728 293 671 306 700 l 440 904 b 510 874 461 929 521 914 l 436 638 b 364 572 424 593 413 572 l 351 572 "},"”":{"ha":543,"x_min":0,"x_max":0,"o":"m 101 585 b 32 615 83 560 21 575 l 107 851 b 178 917 119 896 131 917 l 190 917 b 249 851 225 917 249 894 l 249 846 b 217 761 249 818 238 789 l 101 585 m 346 585 b 275 615 326 560 263 575 l 350 851 b 421 917 364 896 372 917 l 435 917 b 492 851 468 917 492 894 l 492 846 b 460 761 492 818 481 790 l 346 585 "},"‘":{"ha":300,"x_min":0,"x_max":0,"o":"m 110 572 b 50 638 75 572 50 594 l 50 643 b 83 728 50 667 57 692 l 197 904 b 267 874 217 929 279 915 l 194 638 b 122 572 181 594 169 572 l 110 572 "},"’":{"ha":300,"x_min":0,"x_max":0,"o":"m 103 585 b 33 615 83 560 21 575 l 107 851 b 179 917 121 896 131 917 l 192 917 b 250 851 226 917 250 894 l 250 846 b 218 761 250 818 239 789 l 103 585 "},"‛":{"ha":300,"x_min":0,"x_max":0,"o":"m 83 774 b 50 858 57 810 50 835 l 50 864 b 110 929 50 907 75 929 l 122 929 b 194 864 169 929 181 907 l 267 628 b 197 597 279 586 217 572 "},"«":{"ha":721,"x_min":0,"x_max":0,"o":"m 608 100 b 442 211 563 100 497 154 b 343 339 386 268 343 328 b 442 467 343 349 386 408 b 608 578 497 524 563 578 l 610 578 b 660 529 642 578 660 556 l 660 525 b 594 439 660 503 633 472 b 456 338 556 407 504 371 b 594 236 506 304 557 269 b 660 153 633 204 660 174 l 660 147 b 610 100 660 121 642 100 l 608 100 m 299 124 b 146 224 257 124 197 172 b 56 339 96 275 56 329 b 146 454 56 349 96 403 b 299 554 197 506 257 554 l 300 554 b 344 510 328 554 344 533 l 344 507 b 288 429 344 486 321 460 b 164 338 253 400 207 367 b 288 247 207 308 253 276 b 344 169 321 217 344 189 l 344 168 b 300 124 344 143 328 124 l 299 124 "},"»":{"ha":721,"x_min":0,"x_max":0,"o":"m 113 578 b 279 467 158 578 224 524 b 378 339 335 410 378 350 b 279 211 378 329 336 269 b 113 100 224 154 158 100 l 111 100 b 61 149 79 100 61 122 l 61 153 b 126 239 61 175 88 207 b 265 340 165 271 217 307 b 126 442 215 374 165 410 b 61 525 88 474 61 504 l 61 531 b 111 578 61 557 79 578 l 113 578 m 422 554 b 575 454 464 554 524 507 b 665 339 625 403 665 349 b 575 224 665 329 626 275 b 422 124 524 172 464 124 l 421 124 b 376 168 393 124 376 144 l 376 171 b 433 249 376 192 399 219 b 557 340 468 278 514 311 b 433 431 514 369 467 400 b 376 508 400 461 376 489 l 376 510 b 421 554 376 535 393 554 l 422 554 "},"‹":{"ha":438,"x_min":0,"x_max":0,"o":"m 157 211 b 56 339 100 268 56 328 b 157 467 56 350 100 410 b 324 578 213 524 279 578 l 326 578 b 376 529 357 578 376 556 l 376 525 b 311 439 376 503 350 472 b 172 338 272 406 222 371 b 311 238 222 306 272 269 b 376 153 350 206 376 175 l 376 147 b 326 100 376 122 357 100 l 324 100 b 157 211 279 100 213 154 "},"›":{"ha":438,"x_min":0,"x_max":0,"o":"m 111 100 b 63 147 81 100 63 122 l 63 153 b 128 238 63 175 89 206 b 267 338 165 269 217 306 b 128 439 217 371 165 406 b 63 525 89 472 63 503 l 63 529 b 111 578 63 556 81 578 l 113 578 b 281 467 158 578 225 524 b 382 339 338 410 382 350 b 281 211 382 328 338 268 b 113 100 225 154 158 100 l 111 100 "},"\"":{"ha":540,"x_min":0,"x_max":0,"o":"m 144 521 b 111 564 122 521 115 535 l 78 817 b 153 906 69 882 94 906 b 229 817 213 906 238 882 l 196 564 b 163 521 192 535 185 521 l 144 521 m 376 521 b 343 564 354 521 347 535 l 310 817 b 386 906 303 882 328 906 b 461 817 444 906 469 882 l 429 564 b 394 521 425 535 417 521 l 376 521 "},"'":{"ha":308,"x_min":0,"x_max":0,"o":"m 144 521 b 111 564 122 521 115 535 l 78 817 b 153 906 69 882 94 906 b 229 817 213 906 238 882 l 196 564 b 163 521 192 535 185 521 l 144 521 "}," ":{"ha":694,"x_min":0,"x_max":0,"o":""}," ":{"ha":236,"x_min":0,"x_max":0,"o":""}," ":{"ha":236,"x_min":0,"x_max":0,"o":""}," ":{"ha":115,"x_min":0,"x_max":0,"o":""},"​":{"ha":0,"x_min":0,"x_max":0,"o":""},"\r":{"ha":236,"x_min":0,"x_max":0,"o":""},"€":{"ha":872,"x_min":0,"x_max":0,"o":"m 542 -18 b 176 296 347 -18 214 99 l 97 296 b 42 340 57 296 42 314 l 42 351 b 97 396 42 378 57 396 l 167 396 l 167 449 l 167 463 l 167 508 l 97 508 b 42 553 57 508 42 525 l 42 564 b 97 607 42 590 57 607 l 178 607 b 536 915 217 797 350 915 b 728 868 615 915 681 896 b 824 740 790 832 824 782 b 750 669 824 685 754 664 b 533 797 701 751 639 797 b 315 607 425 797 346 725 l 581 607 b 635 564 621 607 635 590 l 635 553 b 581 508 635 525 621 508 l 301 508 l 301 463 l 301 449 l 301 396 l 581 396 b 635 351 621 396 635 378 l 635 340 b 581 296 635 314 621 296 l 315 296 b 540 101 346 176 428 101 b 753 240 647 101 708 153 b 828 168 757 247 828 225 b 774 65 828 138 808 99 b 542 -18 725 19 647 -18 "},"¢":{"ha":743,"x_min":0,"x_max":0,"o":"m 633 278 b 710 213 638 283 710 268 b 654 113 710 182 690 144 b 465 38 614 75 549 46 l 465 -72 b 408 -137 465 -119 446 -137 l 401 -137 b 346 -72 364 -137 346 -119 l 346 40 b 53 392 164 67 53 193 b 344 743 53 578 172 714 l 344 850 b 401 917 344 897 364 917 l 408 917 b 464 850 446 917 464 899 l 464 747 b 626 694 533 740 588 719 b 699 588 675 661 699 619 b 625 518 699 532 629 511 b 456 633 588 585 538 624 l 456 150 b 633 278 539 158 600 204 m 186 392 b 349 158 186 272 247 188 l 349 628 b 186 392 246 603 186 514 "},"¤":{"ha":872,"x_min":0,"x_max":0,"o":"m 542 -18 b 176 296 347 -18 214 99 l 97 296 b 42 340 57 296 42 314 l 42 351 b 97 396 42 378 57 396 l 167 396 l 167 449 l 167 463 l 167 508 l 97 508 b 42 553 57 508 42 525 l 42 564 b 97 607 42 590 57 607 l 178 607 b 536 915 217 797 350 915 b 728 868 615 915 681 896 b 824 740 790 832 824 782 b 750 669 824 685 754 664 b 533 797 701 751 639 797 b 315 607 425 797 346 725 l 581 607 b 635 564 621 607 635 590 l 635 553 b 581 508 635 525 621 508 l 301 508 l 301 463 l 301 449 l 301 396 l 581 396 b 635 351 621 396 635 378 l 635 340 b 581 296 635 314 621 296 l 315 296 b 540 101 346 176 428 101 b 753 240 647 101 708 153 b 828 168 757 247 828 225 b 774 65 828 138 808 99 b 542 -18 725 19 647 -18 "},"$":{"ha":764,"x_min":0,"x_max":0,"o":"m 711 250 b 440 -7 711 113 603 11 l 440 -76 b 383 -143 440 -124 422 -143 l 375 -143 b 319 -76 336 -143 319 -125 l 319 -8 b 79 99 204 4 121 49 b 49 167 60 121 49 144 b 111 240 49 215 107 246 b 325 111 153 178 229 126 l 325 404 b 71 654 201 435 71 489 b 322 904 71 783 174 882 l 322 972 b 378 1038 322 1019 340 1038 l 388 1038 b 443 972 426 1038 443 1019 l 443 907 b 657 824 542 897 615 863 b 693 751 681 800 693 775 b 629 675 693 701 632 671 b 436 789 589 732 518 776 l 436 507 b 711 250 567 475 711 421 m 207 657 b 329 533 207 588 254 557 l 329 786 b 207 657 256 769 207 719 m 432 110 b 571 244 517 124 571 176 b 432 378 571 319 511 353 l 432 110 "},"ƒ":{"ha":574,"x_min":0,"x_max":0,"o":"m 138 -11 b 75 13 100 -11 74 7 l 160 488 l 97 488 b 36 539 53 488 36 506 l 36 549 b 97 600 36 582 53 600 l 181 600 l 196 685 b 421 915 224 840 303 915 b 532 888 468 915 506 906 b 572 821 558 871 572 847 b 526 750 572 776 528 746 b 431 797 510 774 476 797 b 328 665 374 797 344 757 l 315 600 l 451 600 b 511 547 494 600 511 582 l 511 538 b 451 488 511 504 494 488 l 300 488 l 228 93 b 138 -11 214 15 178 -11 "},"£":{"ha":804,"x_min":0,"x_max":0,"o":"m 86 0 b 22 56 43 0 22 17 l 22 65 b 86 119 22 101 43 119 l 144 119 l 188 357 l 101 357 b 46 406 67 357 46 374 l 46 418 b 101 468 46 450 68 468 l 207 468 l 242 653 b 524 917 272 821 365 917 b 706 857 606 917 665 892 b 767 735 747 822 767 776 b 681 664 767 658 682 660 b 528 800 663 749 614 800 b 369 639 432 800 389 750 l 338 468 l 547 468 b 603 418 582 468 603 450 l 603 406 b 547 357 603 374 582 357 l 318 357 l 275 119 l 689 119 b 753 64 732 119 753 101 l 753 56 b 689 0 753 18 732 0 l 86 0 "},"¥":{"ha":818,"x_min":0,"x_max":0,"o":"m 400 -7 b 344 58 361 -7 344 15 l 344 157 l 133 157 b 76 203 92 157 76 175 l 76 214 b 133 260 76 242 92 260 l 344 260 l 344 354 l 133 354 b 76 400 92 354 76 372 l 76 411 b 133 457 76 439 92 457 l 303 457 l 58 844 b 146 906 53 854 82 906 b 215 856 175 906 199 889 l 408 501 l 608 854 b 679 906 629 892 653 906 b 758 844 735 906 764 853 l 515 457 l 683 457 b 740 411 725 457 740 439 l 740 400 b 683 354 740 372 725 354 l 474 354 l 474 260 l 683 260 b 740 214 725 260 740 242 l 740 203 b 683 157 740 175 725 157 l 474 157 l 474 58 b 415 -7 474 15 457 -7 l 400 -7 "},"+":{"ha":747,"x_min":0,"x_max":0,"o":"m 368 33 b 315 93 336 33 315 50 l 315 311 l 114 311 b 54 363 69 311 54 331 l 54 371 b 114 422 54 403 69 422 l 315 422 l 315 628 b 368 688 315 671 336 688 l 379 688 b 432 628 410 688 432 671 l 432 422 l 633 422 b 693 371 678 422 693 403 l 693 363 b 633 311 693 331 678 311 l 432 311 l 432 93 b 379 33 432 50 410 33 l 368 33 "},"−":{"ha":833,"x_min":0,"x_max":0,"o":"m 164 307 b 104 361 121 307 104 328 l 104 371 b 164 425 104 404 121 425 l 668 425 b 728 371 711 425 728 404 l 728 361 b 668 307 728 328 711 307 l 164 307 "},"×":{"ha":758,"x_min":0,"x_max":0,"o":"m 132 115 b 138 194 110 136 107 164 l 304 364 l 138 531 b 132 611 107 561 111 590 l 140 619 b 221 613 161 642 190 646 l 382 443 l 542 613 b 624 619 574 646 601 642 l 632 611 b 626 531 654 589 657 561 l 460 364 l 626 194 b 631 115 657 164 653 136 l 622 107 b 542 114 603 86 574 81 l 382 283 l 221 114 b 140 107 190 81 161 86 "},"÷":{"ha":833,"x_min":0,"x_max":0,"o":"m 407 525 b 336 596 361 525 336 550 l 336 611 b 407 682 336 656 361 682 l 424 682 b 496 611 471 682 496 656 l 496 596 b 424 525 496 550 471 525 l 407 525 m 164 310 b 104 363 121 310 104 329 l 104 372 b 164 425 104 404 121 425 l 668 425 b 728 372 711 425 728 404 l 728 363 b 668 310 728 329 711 310 l 164 310 m 407 53 b 336 124 361 53 336 78 l 336 139 b 407 210 336 185 361 210 l 424 210 b 496 139 471 210 496 185 l 496 124 b 424 53 496 78 471 53 l 407 53 "},"=":{"ha":747,"x_min":0,"x_max":0,"o":"m 131 464 b 71 518 86 464 71 486 l 71 531 b 131 585 71 561 86 585 l 617 585 b 676 531 661 585 676 561 l 676 518 b 617 464 676 486 661 464 l 131 464 m 131 139 b 71 193 86 139 71 163 l 71 207 b 131 261 71 238 86 261 l 617 261 b 676 207 661 261 676 238 l 676 193 b 617 139 676 163 661 139 l 131 139 "},"≠":{"ha":833,"x_min":0,"x_max":0,"o":"m 208 -83 b 192 -4 183 -74 172 -53 l 256 143 l 164 143 b 104 194 121 143 104 164 l 104 206 b 164 257 104 236 121 257 l 315 257 l 411 468 l 164 468 b 104 519 121 468 104 488 l 104 529 b 164 581 104 560 121 581 l 453 581 l 538 769 b 603 813 557 817 579 824 l 618 807 b 635 728 643 796 654 776 l 568 581 l 668 581 b 728 529 711 581 728 560 l 728 519 b 668 468 728 488 711 468 l 510 468 l 414 257 l 668 257 b 728 206 711 257 728 236 l 728 194 b 668 143 728 164 711 143 l 371 143 l 289 -46 b 224 -90 269 -93 249 -101 "},">":{"ha":643,"x_min":0,"x_max":0,"o":"m 101 54 b 61 118 93 51 64 79 b 129 206 60 146 75 176 l 444 367 l 129 531 b 61 617 75 558 60 589 b 101 681 64 653 94 682 l 540 443 b 582 367 565 429 582 413 b 540 290 582 321 565 304 l 101 54 "},"<":{"ha":644,"x_min":0,"x_max":0,"o":"m 103 290 b 61 367 78 304 61 321 b 103 443 61 413 78 429 l 543 681 b 582 617 549 682 579 653 b 514 531 583 589 569 558 l 197 367 l 514 206 b 582 118 569 176 583 146 b 543 54 579 79 550 51 "},"≥":{"ha":833,"x_min":0,"x_max":0,"o":"m 157 158 b 118 221 150 154 119 182 b 186 304 117 251 143 288 l 569 447 l 186 594 b 118 676 139 613 113 649 b 157 739 121 713 151 742 l 675 522 b 714 447 700 510 714 494 b 675 374 714 401 700 385 l 157 158 m 168 0 b 108 51 125 0 108 21 l 108 63 b 168 114 108 93 125 114 l 664 114 b 724 63 707 114 724 93 l 724 51 b 664 0 724 21 707 0 l 168 0 "},"≤":{"ha":833,"x_min":0,"x_max":0,"o":"m 158 374 b 119 449 132 386 119 401 b 158 524 119 494 132 511 l 675 740 b 714 678 682 742 713 714 b 646 596 719 650 694 614 l 264 449 l 646 304 b 714 222 694 286 715 253 b 675 160 713 183 683 156 m 168 0 b 108 51 125 0 108 19 l 108 61 b 168 113 108 92 125 113 l 664 113 b 724 61 707 113 724 92 l 724 51 b 664 0 724 19 707 0 l 168 0 "},"±":{"ha":833,"x_min":0,"x_max":0,"o":"m 411 168 b 358 228 379 168 358 185 l 358 410 l 178 410 b 118 461 135 410 118 429 l 118 469 b 178 521 118 501 135 521 l 358 521 l 358 699 b 411 758 358 742 379 758 l 421 758 b 474 699 453 758 474 742 l 474 521 l 654 521 b 714 469 697 521 714 501 l 714 461 b 654 410 714 429 697 410 l 474 410 l 474 228 b 421 168 474 185 453 168 l 411 168 m 164 0 b 104 51 121 0 104 21 l 104 63 b 164 114 104 93 121 114 l 668 114 b 728 63 711 114 728 93 l 728 51 b 668 0 728 21 711 0 l 164 0 "},"¬":{"ha":750,"x_min":0,"x_max":0,"o":"m 621 47 b 569 107 589 47 569 63 l 569 311 l 115 311 b 56 363 71 311 56 331 l 56 371 b 115 422 56 403 71 422 l 621 422 b 681 371 665 422 681 403 l 681 107 b 629 47 681 63 661 47 l 621 47 "},"~":{"ha":693,"x_min":0,"x_max":0,"o":"m 176 229 b 146 242 164 229 154 233 b 133 285 138 251 133 265 b 242 411 133 344 181 411 b 333 385 267 411 303 400 b 442 307 361 371 403 343 b 517 403 460 357 476 403 b 549 388 531 403 542 397 b 561 346 557 378 561 364 b 453 221 561 286 513 221 b 361 247 428 221 392 232 b 253 325 333 261 292 289 b 176 229 231 264 213 229 "},"^":{"ha":643,"x_min":0,"x_max":0,"o":"m 242 864 b 318 906 256 889 272 906 b 394 864 364 906 381 889 l 631 425 b 567 385 633 417 606 386 b 479 453 539 383 508 399 l 318 768 l 154 453 b 68 385 126 399 96 382 b 4 425 32 389 3 418 "},"µ":{"ha":785,"x_min":0,"x_max":0,"o":"m 639 675 b 700 608 675 675 700 660 l 700 10 b 650 -6 700 6 679 -6 b 572 50 624 -6 590 3 b 563 90 568 63 564 75 b 393 -17 528 32 471 -17 b 221 75 306 -17 249 25 l 221 -207 b 160 -272 221 -257 194 -272 l 146 -272 b 85 -207 110 -272 85 -257 l 85 608 b 144 675 85 658 110 675 l 160 675 b 221 608 196 675 221 660 l 221 242 b 392 103 221 160 290 103 b 564 221 475 103 535 150 l 564 608 b 624 675 564 658 589 675 l 639 675 "},"%":{"ha":1021,"x_min":0,"x_max":0,"o":"m 169 -12 b 106 39 164 -19 106 0 b 146 113 106 64 115 81 l 844 917 b 908 865 850 922 908 907 b 869 790 908 846 897 822 l 169 -12 m 256 478 b 40 688 132 478 40 568 l 40 700 b 257 913 40 819 133 913 b 474 703 382 913 474 822 l 474 690 b 256 478 474 571 379 478 m 257 565 b 367 685 321 565 367 614 l 367 706 b 256 826 367 776 319 826 b 146 706 192 826 146 778 l 146 685 b 257 565 146 615 193 565 m 764 -8 b 547 201 639 -8 547 82 l 547 214 b 765 426 547 333 642 426 b 981 217 889 426 981 336 l 981 204 b 764 -8 981 85 888 -8 m 765 79 b 875 199 828 79 875 128 l 875 219 b 764 340 875 290 828 340 b 654 219 700 340 654 292 l 654 199 b 765 79 654 129 701 79 "},"‰":{"ha":1522,"x_min":0,"x_max":0,"o":"m 169 -12 b 106 39 164 -19 106 0 b 146 113 106 64 115 81 l 844 917 b 908 865 850 922 908 907 b 869 790 908 846 897 822 l 169 -12 m 256 478 b 40 688 132 478 40 568 l 40 700 b 257 913 40 819 133 913 b 474 703 382 913 474 822 l 474 690 b 256 478 474 571 379 478 m 257 565 b 367 685 321 565 367 614 l 367 706 b 256 826 367 776 319 826 b 146 706 192 826 146 778 l 146 685 b 257 565 146 615 193 565 m 764 -8 b 547 201 639 -8 547 82 l 547 214 b 765 426 547 333 642 426 b 981 217 889 426 981 336 l 981 204 b 764 -8 981 85 888 -8 m 1265 -8 b 1049 201 1140 -8 1049 82 l 1049 214 b 1267 426 1049 333 1143 426 b 1482 217 1392 426 1482 336 l 1482 204 b 1265 -8 1482 85 1389 -8 m 765 79 b 875 199 828 79 875 128 l 875 219 b 764 340 875 290 828 340 b 654 219 700 340 654 292 l 654 199 b 765 79 654 129 701 79 m 1267 79 b 1376 199 1331 79 1376 128 l 1376 219 b 1265 340 1376 290 1329 340 b 1156 219 1201 340 1156 292 l 1156 199 b 1267 79 1156 129 1203 79 "},"∙":{"ha":322,"x_min":0,"x_max":0,"o":"m 75 346 b 150 422 75 394 101 422 l 169 422 b 246 346 219 422 246 394 l 246 329 b 169 256 246 281 219 256 l 150 256 b 75 329 101 256 75 281 "},"◌":{"ha":825,"x_min":0,"x_max":0,"o":"m 378 653 b 413 686 378 675 389 686 b 446 653 435 686 446 675 b 413 618 446 629 435 618 b 378 653 389 618 378 629 m 261 628 b 294 663 261 651 272 663 b 329 628 318 663 329 651 b 294 594 329 606 318 594 b 261 628 272 594 261 606 m 496 628 b 532 663 496 651 508 663 b 564 628 553 663 564 651 b 532 594 564 606 553 594 b 496 628 508 594 496 606 m 161 560 b 194 596 161 583 172 596 b 229 561 218 596 229 585 b 194 528 229 539 218 528 b 161 560 172 528 161 539 m 597 561 b 632 596 597 585 608 596 b 665 561 654 596 665 585 b 632 528 665 539 654 528 b 597 561 608 528 597 539 m 93 461 b 128 494 93 483 104 494 b 161 461 150 494 161 483 b 129 426 161 438 150 426 b 93 461 106 426 93 438 m 664 461 b 699 494 664 483 675 494 b 732 461 721 494 732 483 b 697 426 732 438 721 426 b 664 461 675 426 664 438 m 69 343 b 104 376 69 365 81 376 b 138 343 126 376 138 365 b 104 310 138 321 126 310 b 69 343 81 310 69 321 m 689 343 b 724 376 689 365 700 376 b 756 343 744 376 756 365 b 724 310 756 321 744 310 b 689 343 700 310 689 321 m 93 225 b 128 260 93 249 104 260 b 161 225 150 260 161 249 b 128 192 161 203 150 192 b 93 225 104 192 93 203 m 664 225 b 697 260 664 249 675 260 b 732 225 721 260 732 249 b 697 192 732 203 721 192 b 664 225 675 192 664 203 m 161 124 b 194 158 161 147 172 158 b 229 124 218 158 229 147 b 194 90 229 101 218 90 b 161 124 172 90 161 101 m 597 124 b 632 158 597 147 608 158 b 665 124 654 158 665 147 b 632 90 665 101 654 90 b 597 124 608 90 597 101 m 261 57 b 294 92 261 81 272 92 b 329 60 318 92 329 81 b 294 25 329 36 318 25 b 261 57 272 25 261 36 m 496 57 b 532 92 496 81 508 92 b 564 57 553 92 564 81 b 532 25 564 36 553 25 b 496 57 508 25 496 36 m 378 35 b 413 68 378 57 389 68 b 446 35 435 68 446 57 b 413 0 446 11 435 0 b 378 35 389 0 378 11 "},"♥":{"ha":1003,"x_min":0,"x_max":0,"o":"m 501 -14 b 54 440 344 110 54 214 l 54 449 b 271 681 54 582 142 681 l 276 681 b 501 485 415 681 478 579 b 726 681 525 579 588 681 l 732 681 b 949 449 861 681 949 582 l 949 440 b 501 -14 949 214 658 110 "},"✓":{"ha":847,"x_min":0,"x_max":0,"o":"m 74 638 b 129 676 78 651 92 676 b 228 599 176 676 196 650 l 385 333 l 768 1007 b 885 1126 801 1065 824 1126 b 925 1040 925 1126 950 1079 l 403 164 l 369 165 l 74 638 "},"✗":{"ha":594,"x_min":0,"x_max":0,"o":"m 164 182 b 76 258 117 135 31 213 l 219 403 l 82 540 b 164 622 33 583 122 672 l 297 482 l 432 625 b 513 540 478 671 558 586 l 375 403 l 517 258 b 431 182 567 215 474 133 l 297 322 "},"":{"ha":1053,"x_min":0,"x_max":0,"o":"m 64 276 b 64 376 14 297 14 356 l 235 447 l 164 618 b 235 689 144 668 185 710 l 406 618 l 476 790 b 576 790 497 839 556 839 l 647 618 l 818 689 b 889 618 868 710 908 668 l 818 447 l 989 376 b 989 276 1039 356 1039 297 l 818 207 l 889 35 b 818 -36 908 -15 868 -56 l 647 36 l 576 -136 b 476 -136 556 -186 497 -186 l 406 36 l 235 -36 b 164 35 185 -56 144 -15 l 235 207 m 424 140 b 468 122 442 147 460 138 l 526 -17 l 585 122 b 629 140 593 138 613 147 l 769 85 l 713 224 b 732 268 707 242 715 260 l 869 326 l 732 385 b 713 429 715 393 707 413 l 769 569 l 629 513 b 585 532 611 507 593 515 l 526 669 l 468 532 b 424 513 460 515 442 507 l 283 569 l 340 429 b 322 385 346 413 338 393 l 183 326 l 322 268 b 340 224 338 260 346 242 l 283 85 l 424 140 "},"@":{"ha":1032,"x_min":0,"x_max":0,"o":"m 61 449 b 522 917 61 722 251 917 b 976 500 804 917 976 749 b 765 228 976 325 901 228 b 617 317 689 228 633 263 b 474 229 588 263 538 229 b 288 440 364 229 288 318 b 476 650 288 565 367 650 b 607 582 533 650 581 619 b 632 633 611 607 621 624 b 674 647 644 643 658 647 b 713 632 697 647 713 636 l 713 414 b 793 306 713 343 735 306 b 900 499 863 306 900 382 b 522 843 900 701 760 843 b 138 449 296 843 138 679 b 533 56 138 221 301 56 b 761 124 625 56 708 85 b 808 142 776 135 790 142 b 851 92 838 142 857 97 b 533 -18 785 32 668 -18 b 61 449 250 -18 61 171 m 606 488 b 503 558 588 529 553 558 b 397 440 439 558 397 511 b 501 321 397 368 440 321 b 606 419 558 321 606 360 "},"&":{"ha":926,"x_min":0,"x_max":0,"o":"m 354 -18 b 29 253 160 -18 29 79 b 254 511 29 385 115 468 b 175 693 210 560 175 619 b 426 917 175 818 276 917 b 660 706 563 917 660 828 b 450 486 660 600 585 526 l 661 297 b 729 479 692 351 711 411 b 808 557 746 538 771 557 b 869 518 850 557 871 524 b 744 221 844 406 801 304 l 933 51 b 857 -7 938 49 918 -7 b 767 35 833 -7 801 -1 l 671 126 b 354 -18 588 35 481 -18 m 376 547 b 542 699 490 579 542 625 b 425 814 542 764 493 814 b 304 693 346 814 304 760 b 376 547 304 635 331 592 m 364 90 b 590 201 454 90 532 135 l 321 444 b 163 264 226 414 163 360 b 364 90 163 154 246 90 "},"¶":{"ha":861,"x_min":0,"x_max":0,"o":"m 657 856 b 703 906 657 889 672 906 l 718 906 b 767 856 750 906 767 889 l 767 43 b 718 -7 767 10 750 -7 l 703 -7 b 657 43 672 -7 657 10 m 469 396 l 365 396 b 39 646 154 396 39 481 b 360 903 39 813 147 903 l 517 903 b 578 842 553 903 578 878 l 578 43 b 532 -7 578 10 563 -7 l 517 -7 b 469 43 485 -7 469 14 "},"§":{"ha":753,"x_min":0,"x_max":0,"o":"m 363 -236 b 121 -176 251 -236 172 -211 b 44 -65 68 -143 44 -100 b 103 4 44 -21 100 8 b 363 -125 153 -75 243 -125 b 544 -19 478 -125 544 -86 b 336 106 544 61 465 76 b 49 329 204 136 49 175 b 196 510 49 417 104 479 b 78 685 126 542 78 592 b 382 915 78 822 207 915 b 603 858 486 915 557 890 b 669 760 650 828 669 789 b 610 689 669 713 614 685 b 386 806 557 761 486 806 b 215 699 292 806 215 768 b 425 569 215 626 294 599 b 706 349 556 538 706 500 b 560 168 706 261 650 199 b 681 -8 629 138 681 89 b 363 -236 681 -144 556 -236 m 439 203 b 581 329 522 215 581 272 b 353 465 581 417 478 439 l 321 472 b 172 349 231 458 172 401 b 404 211 172 258 279 238 l 439 203 "},"©":{"ha":1044,"x_min":0,"x_max":0,"o":"m 63 447 b 524 917 63 717 258 917 b 982 451 793 917 982 722 b 522 -18 982 182 788 -18 b 63 447 253 -18 63 176 m 900 449 b 521 842 900 675 740 842 b 144 450 297 842 144 682 b 524 57 144 224 304 57 b 900 449 747 57 900 217 m 285 447 b 533 697 285 590 393 697 b 693 640 611 697 667 667 b 719 585 711 622 719 606 b 664 532 719 547 667 526 b 535 601 636 578 593 601 b 392 449 457 601 392 536 b 539 294 392 358 457 294 b 668 369 601 294 644 324 b 725 315 671 375 725 356 b 693 254 725 297 714 276 b 535 197 667 226 611 197 b 285 447 389 197 285 300 "},"®":{"ha":1044,"x_min":0,"x_max":0,"o":"m 522 -18 b 63 447 253 -18 63 176 b 524 917 63 717 258 917 b 982 451 793 917 982 722 b 522 -18 982 182 788 -18 m 524 57 b 900 449 747 57 900 217 b 521 842 900 675 740 842 b 144 450 297 842 144 682 b 524 57 144 224 304 57 m 669 197 b 603 236 650 197 622 207 l 497 375 l 442 375 l 442 247 b 397 199 442 217 426 199 l 382 199 b 338 257 353 199 338 221 l 338 626 b 393 685 338 664 358 685 l 540 685 b 733 532 665 685 733 635 b 642 397 733 467 700 417 b 604 388 629 393 618 389 l 728 238 b 669 197 732 231 704 197 m 539 456 b 629 528 597 456 629 483 b 535 600 629 578 596 600 l 440 600 l 440 456 "}}}
